<svg xmlns="http://www.w3.org/2000/svg" width="1200" height="504" viewBox="0 0 1200 504" role="img" aria-labelledby="title desc">
<title id="title">Burner evaluation progress</title><desc id="desc">Time series of evaluation scores recorded at each Burner merge.</desc>
<style>text{font-family:ui-sans-serif,system-ui,-apple-system,BlinkMacSystemFont,"Segoe UI",sans-serif}.title{font-size:22px;font-weight:700;fill:#20242a}.axis{font-size:12px;fill:#59636e}.legend{font-size:13px;fill:#2f3740}.grid{stroke:#d8dee5;stroke-width:1}.plot{fill:#fff;stroke:#b7c0ca}</style>
<rect width="100%" height="100%" fill="#f8fafc" rx="14"/><text x="70" y="32" class="title">Burner evaluation progress</text>
<rect x="70" y="54" width="1098" height="276" class="plot"/><line x1="70" y1="330" x2="1168" y2="330" class="grid"/><text x="58" y="335" text-anchor="end" class="axis">0</text><line x1="70" y1="261" x2="1168" y2="261" class="grid"/><text x="58" y="266" text-anchor="end" class="axis">25</text><line x1="70" y1="192" x2="1168" y2="192" class="grid"/><text x="58" y="197" text-anchor="end" class="axis">50</text><line x1="70" y1="123" x2="1168" y2="123" class="grid"/><text x="58" y="128" text-anchor="end" class="axis">75</text><line x1="70" y1="54" x2="1168" y2="54" class="grid"/><text x="58" y="59" text-anchor="end" class="axis">100</text><polyline points="70.0,76.1 89.6,76.1 109.2,76.1 128.8,76.1 148.4,76.1 168.0,76.1 187.6,76.1 207.3,76.1 226.9,76.1 246.5,76.1 266.1,76.1 285.7,76.1 305.3,76.1 324.9,76.1 344.5,76.1 364.1,76.1 383.7,76.1 403.3,76.1 422.9,76.1 442.5,76.1 462.1,76.1 481.8,76.1 501.4,76.1 521.0,76.1 540.6,76.1 560.2,76.1 579.8,76.1 599.4,76.1 619.0,76.1 638.6,76.1 658.2,76.1 677.8,76.1 697.4,76.1 717.0,76.1 736.6,76.1 756.3,73.3 775.9,70.6 795.5,70.6 815.1,67.8 834.7,65.0 854.3,62.3 873.9,59.5 893.5,59.5 913.1,59.5 932.7,59.5 952.3,59.5 971.9,56.8 991.5,56.8 1011.1,56.8 1030.8,56.8 1050.4,56.8 1070.0,56.8 1089.6,56.8 1109.2,56.8 1128.8,56.8 1148.4,56.8 1168.0,56.8" fill="none" stroke="#ff6b35" stroke-width="3" stroke-linejoin="round" stroke-linecap="round"/><circle cx="70.0" cy="76.1" r="3.5" fill="#ff6b35"/><circle cx="89.6" cy="76.1" r="3.5" fill="#ff6b35"/><circle cx="109.2" cy="76.1" r="3.5" fill="#ff6b35"/><circle cx="128.8" cy="76.1" r="3.5" fill="#ff6b35"/><circle cx="148.4" cy="76.1" r="3.5" fill="#ff6b35"/><circle cx="168.0" cy="76.1" r="3.5" fill="#ff6b35"/><circle cx="187.6" cy="76.1" r="3.5" fill="#ff6b35"/><circle cx="207.3" cy="76.1" r="3.5" fill="#ff6b35"/><circle cx="226.9" cy="76.1" r="3.5" fill="#ff6b35"/><circle cx="246.5" cy="76.1" r="3.5" fill="#ff6b35"/><circle cx="266.1" cy="76.1" r="3.5" fill="#ff6b35"/><circle cx="285.7" cy="76.1" r="3.5" fill="#ff6b35"/><circle cx="305.3" cy="76.1" r="3.5" fill="#ff6b35"/><circle cx="324.9" cy="76.1" r="3.5" fill="#ff6b35"/><circle cx="344.5" cy="76.1" r="3.5" fill="#ff6b35"/><circle cx="364.1" cy="76.1" r="3.5" fill="#ff6b35"/><circle cx="383.7" cy="76.1" r="3.5" fill="#ff6b35"/><circle cx="403.3" cy="76.1" r="3.5" fill="#ff6b35"/><circle cx="422.9" cy="76.1" r="3.5" fill="#ff6b35"/><circle cx="442.5" cy="76.1" r="3.5" fill="#ff6b35"/><circle cx="462.1" cy="76.1" r="3.5" fill="#ff6b35"/><circle cx="481.8" cy="76.1" r="3.5" fill="#ff6b35"/><circle cx="501.4" cy="76.1" r="3.5" fill="#ff6b35"/><circle cx="521.0" cy="76.1" r="3.5" fill="#ff6b35"/><circle cx="540.6" cy="76.1" r="3.5" fill="#ff6b35"/><circle cx="560.2" cy="76.1" r="3.5" fill="#ff6b35"/><circle cx="579.8" cy="76.1" r="3.5" fill="#ff6b35"/><circle cx="599.4" cy="76.1" r="3.5" fill="#ff6b35"/><circle cx="619.0" cy="76.1" r="3.5" fill="#ff6b35"/><circle cx="638.6" cy="76.1" r="3.5" fill="#ff6b35"/><circle cx="658.2" cy="76.1" r="3.5" fill="#ff6b35"/><circle cx="677.8" cy="76.1" r="3.5" fill="#ff6b35"/><circle cx="697.4" cy="76.1" r="3.5" fill="#ff6b35"/><circle cx="717.0" cy="76.1" r="3.5" fill="#ff6b35"/><circle cx="736.6" cy="76.1" r="3.5" fill="#ff6b35"/><circle cx="756.3" cy="73.3" r="3.5" fill="#ff6b35"/><circle cx="775.9" cy="70.6" r="3.5" fill="#ff6b35"/><circle cx="795.5" cy="70.6" r="3.5" fill="#ff6b35"/><circle cx="815.1" cy="67.8" r="3.5" fill="#ff6b35"/><circle cx="834.7" cy="65.0" r="3.5" fill="#ff6b35"/><circle cx="854.3" cy="62.3" r="3.5" fill="#ff6b35"/><circle cx="873.9" cy="59.5" r="3.5" fill="#ff6b35"/><circle cx="893.5" cy="59.5" r="3.5" fill="#ff6b35"/><circle cx="913.1" cy="59.5" r="3.5" fill="#ff6b35"/><circle cx="932.7" cy="59.5" r="3.5" fill="#ff6b35"/><circle cx="952.3" cy="59.5" r="3.5" fill="#ff6b35"/><circle cx="971.9" cy="56.8" r="3.5" fill="#ff6b35"/><circle cx="991.5" cy="56.8" r="3.5" fill="#ff6b35"/><circle cx="1011.1" cy="56.8" r="3.5" fill="#ff6b35"/><circle cx="1030.8" cy="56.8" r="3.5" fill="#ff6b35"/><circle cx="1050.4" cy="56.8" r="3.5" fill="#ff6b35"/><circle cx="1070.0" cy="56.8" r="3.5" fill="#ff6b35"/><circle cx="1089.6" cy="56.8" r="3.5" fill="#ff6b35"/><circle cx="1109.2" cy="56.8" r="3.5" fill="#ff6b35"/><circle cx="1128.8" cy="56.8" r="3.5" fill="#ff6b35"/><circle cx="1148.4" cy="56.8" r="3.5" fill="#ff6b35"/><circle cx="1168.0" cy="56.8" r="3.5" fill="#ff6b35"/><polyline points="70.0,280.0 89.6,277.0 109.2,270.7 128.8,270.7 148.4,264.3 168.0,264.3 187.6,253.8 207.3,253.8 226.9,248.3 246.5,248.3 266.1,245.3 285.7,245.3 305.3,242.0 324.9,242.0 344.5,236.7 364.1,236.7 383.7,236.7 403.3,236.7 422.9,233.7 442.5,233.7 462.1,228.4 481.8,228.4 501.4,228.4 521.0,228.4 540.6,228.4 560.2,228.4 579.8,228.4 599.4,228.4 619.0,228.4 638.6,228.4 658.2,228.4 677.8,228.4 697.4,228.4 717.0,228.4 736.6,187.0 756.3,185.4 775.9,184.8 795.5,180.1 815.1,179.9 834.7,179.3 854.3,179.3 873.9,179.3 893.5,178.2 913.1,178.2 932.7,178.2 952.3,177.6 971.9,176.8 991.5,176.3 1011.1,176.0 1030.8,175.7 1050.4,175.4 1070.0,172.7 1089.6,172.4 1109.2,172.1 1128.8,171.9 1148.4,171.9 1168.0,171.6" fill="none" stroke="#7c5cff" stroke-width="3" stroke-linejoin="round" stroke-linecap="round"/><circle cx="70.0" cy="280.0" r="3.5" fill="#7c5cff"/><circle cx="89.6" cy="277.0" r="3.5" fill="#7c5cff"/><circle cx="109.2" cy="270.7" r="3.5" fill="#7c5cff"/><circle cx="128.8" cy="270.7" r="3.5" fill="#7c5cff"/><circle cx="148.4" cy="264.3" r="3.5" fill="#7c5cff"/><circle cx="168.0" cy="264.3" r="3.5" fill="#7c5cff"/><circle cx="187.6" cy="253.8" r="3.5" fill="#7c5cff"/><circle cx="207.3" cy="253.8" r="3.5" fill="#7c5cff"/><circle cx="226.9" cy="248.3" r="3.5" fill="#7c5cff"/><circle cx="246.5" cy="248.3" r="3.5" fill="#7c5cff"/><circle cx="266.1" cy="245.3" r="3.5" fill="#7c5cff"/><circle cx="285.7" cy="245.3" r="3.5" fill="#7c5cff"/><circle cx="305.3" cy="242.0" r="3.5" fill="#7c5cff"/><circle cx="324.9" cy="242.0" r="3.5" fill="#7c5cff"/><circle cx="344.5" cy="236.7" r="3.5" fill="#7c5cff"/><circle cx="364.1" cy="236.7" r="3.5" fill="#7c5cff"/><circle cx="383.7" cy="236.7" r="3.5" fill="#7c5cff"/><circle cx="403.3" cy="236.7" r="3.5" fill="#7c5cff"/><circle cx="422.9" cy="233.7" r="3.5" fill="#7c5cff"/><circle cx="442.5" cy="233.7" r="3.5" fill="#7c5cff"/><circle cx="462.1" cy="228.4" r="3.5" fill="#7c5cff"/><circle cx="481.8" cy="228.4" r="3.5" fill="#7c5cff"/><circle cx="501.4" cy="228.4" r="3.5" fill="#7c5cff"/><circle cx="521.0" cy="228.4" r="3.5" fill="#7c5cff"/><circle cx="540.6" cy="228.4" r="3.5" fill="#7c5cff"/><circle cx="560.2" cy="228.4" r="3.5" fill="#7c5cff"/><circle cx="579.8" cy="228.4" r="3.5" fill="#7c5cff"/><circle cx="599.4" cy="228.4" r="3.5" fill="#7c5cff"/><circle cx="619.0" cy="228.4" r="3.5" fill="#7c5cff"/><circle cx="638.6" cy="228.4" r="3.5" fill="#7c5cff"/><circle cx="658.2" cy="228.4" r="3.5" fill="#7c5cff"/><circle cx="677.8" cy="228.4" r="3.5" fill="#7c5cff"/><circle cx="697.4" cy="228.4" r="3.5" fill="#7c5cff"/><circle cx="717.0" cy="228.4" r="3.5" fill="#7c5cff"/><circle cx="736.6" cy="187.0" r="3.5" fill="#7c5cff"/><circle cx="756.3" cy="185.4" r="3.5" fill="#7c5cff"/><circle cx="775.9" cy="184.8" r="3.5" fill="#7c5cff"/><circle cx="795.5" cy="180.1" r="3.5" fill="#7c5cff"/><circle cx="815.1" cy="179.9" r="3.5" fill="#7c5cff"/><circle cx="834.7" cy="179.3" r="3.5" fill="#7c5cff"/><circle cx="854.3" cy="179.3" r="3.5" fill="#7c5cff"/><circle cx="873.9" cy="179.3" r="3.5" fill="#7c5cff"/><circle cx="893.5" cy="178.2" r="3.5" fill="#7c5cff"/><circle cx="913.1" cy="178.2" r="3.5" fill="#7c5cff"/><circle cx="932.7" cy="178.2" r="3.5" fill="#7c5cff"/><circle cx="952.3" cy="177.6" r="3.5" fill="#7c5cff"/><circle cx="971.9" cy="176.8" r="3.5" fill="#7c5cff"/><circle cx="991.5" cy="176.3" r="3.5" fill="#7c5cff"/><circle cx="1011.1" cy="176.0" r="3.5" fill="#7c5cff"/><circle cx="1030.8" cy="175.7" r="3.5" fill="#7c5cff"/><circle cx="1050.4" cy="175.4" r="3.5" fill="#7c5cff"/><circle cx="1070.0" cy="172.7" r="3.5" fill="#7c5cff"/><circle cx="1089.6" cy="172.4" r="3.5" fill="#7c5cff"/><circle cx="1109.2" cy="172.1" r="3.5" fill="#7c5cff"/><circle cx="1128.8" cy="171.9" r="3.5" fill="#7c5cff"/><circle cx="1148.4" cy="171.9" r="3.5" fill="#7c5cff"/><circle cx="1168.0" cy="171.6" r="3.5" fill="#7c5cff"/><polyline points="70.0,147.0 89.6,140.1 109.2,119.4 128.8,120.2 148.4,119.1 168.0,118.9 187.6,117.2 207.3,117.5 226.9,116.9 246.5,117.8 266.1,117.2 285.7,117.8 305.3,116.9 324.9,116.9 344.5,116.9 364.1,117.8 383.7,117.2 403.3,116.9 422.9,113.3 442.5,114.2 462.1,111.1 481.8,111.4 501.4,111.1 521.0,111.1 540.6,110.9 560.2,111.4 579.8,110.9 599.4,111.7 619.0,111.1 638.6,111.1 658.2,111.1 677.8,110.6 697.4,110.3 717.0,110.6 736.6,109.8 756.3,109.8 775.9,109.8 795.5,109.8 815.1,109.8 834.7,109.8 854.3,109.8 873.9,109.8 893.5,109.8 913.1,109.8 932.7,109.8 952.3,109.8 971.9,109.8 991.5,109.8 1011.1,109.8 1030.8,109.8 1050.4,109.8 1070.0,109.8 1089.6,109.8 1109.2,109.8 1128.8,110.6 1148.4,110.6 1168.0,110.6" fill="none" stroke="#00a7a5" stroke-width="3" stroke-linejoin="round" stroke-linecap="round"/><circle cx="70.0" cy="147.0" r="3.5" fill="#00a7a5"/><circle cx="89.6" cy="140.1" r="3.5" fill="#00a7a5"/><circle cx="109.2" cy="119.4" r="3.5" fill="#00a7a5"/><circle cx="128.8" cy="120.2" r="3.5" fill="#00a7a5"/><circle cx="148.4" cy="119.1" r="3.5" fill="#00a7a5"/><circle cx="168.0" cy="118.9" r="3.5" fill="#00a7a5"/><circle cx="187.6" cy="117.2" r="3.5" fill="#00a7a5"/><circle cx="207.3" cy="117.5" r="3.5" fill="#00a7a5"/><circle cx="226.9" cy="116.9" r="3.5" fill="#00a7a5"/><circle cx="246.5" cy="117.8" r="3.5" fill="#00a7a5"/><circle cx="266.1" cy="117.2" r="3.5" fill="#00a7a5"/><circle cx="285.7" cy="117.8" r="3.5" fill="#00a7a5"/><circle cx="305.3" cy="116.9" r="3.5" fill="#00a7a5"/><circle cx="324.9" cy="116.9" r="3.5" fill="#00a7a5"/><circle cx="344.5" cy="116.9" r="3.5" fill="#00a7a5"/><circle cx="364.1" cy="117.8" r="3.5" fill="#00a7a5"/><circle cx="383.7" cy="117.2" r="3.5" fill="#00a7a5"/><circle cx="403.3" cy="116.9" r="3.5" fill="#00a7a5"/><circle cx="422.9" cy="113.3" r="3.5" fill="#00a7a5"/><circle cx="442.5" cy="114.2" r="3.5" fill="#00a7a5"/><circle cx="462.1" cy="111.1" r="3.5" fill="#00a7a5"/><circle cx="481.8" cy="111.4" r="3.5" fill="#00a7a5"/><circle cx="501.4" cy="111.1" r="3.5" fill="#00a7a5"/><circle cx="521.0" cy="111.1" r="3.5" fill="#00a7a5"/><circle cx="540.6" cy="110.9" r="3.5" fill="#00a7a5"/><circle cx="560.2" cy="111.4" r="3.5" fill="#00a7a5"/><circle cx="579.8" cy="110.9" r="3.5" fill="#00a7a5"/><circle cx="599.4" cy="111.7" r="3.5" fill="#00a7a5"/><circle cx="619.0" cy="111.1" r="3.5" fill="#00a7a5"/><circle cx="638.6" cy="111.1" r="3.5" fill="#00a7a5"/><circle cx="658.2" cy="111.1" r="3.5" fill="#00a7a5"/><circle cx="677.8" cy="110.6" r="3.5" fill="#00a7a5"/><circle cx="697.4" cy="110.3" r="3.5" fill="#00a7a5"/><circle cx="717.0" cy="110.6" r="3.5" fill="#00a7a5"/><circle cx="736.6" cy="109.8" r="3.5" fill="#00a7a5"/><circle cx="756.3" cy="109.8" r="3.5" fill="#00a7a5"/><circle cx="775.9" cy="109.8" r="3.5" fill="#00a7a5"/><circle cx="795.5" cy="109.8" r="3.5" fill="#00a7a5"/><circle cx="815.1" cy="109.8" r="3.5" fill="#00a7a5"/><circle cx="834.7" cy="109.8" r="3.5" fill="#00a7a5"/><circle cx="854.3" cy="109.8" r="3.5" fill="#00a7a5"/><circle cx="873.9" cy="109.8" r="3.5" fill="#00a7a5"/><circle cx="893.5" cy="109.8" r="3.5" fill="#00a7a5"/><circle cx="913.1" cy="109.8" r="3.5" fill="#00a7a5"/><circle cx="932.7" cy="109.8" r="3.5" fill="#00a7a5"/><circle cx="952.3" cy="109.8" r="3.5" fill="#00a7a5"/><circle cx="971.9" cy="109.8" r="3.5" fill="#00a7a5"/><circle cx="991.5" cy="109.8" r="3.5" fill="#00a7a5"/><circle cx="1011.1" cy="109.8" r="3.5" fill="#00a7a5"/><circle cx="1030.8" cy="109.8" r="3.5" fill="#00a7a5"/><circle cx="1050.4" cy="109.8" r="3.5" fill="#00a7a5"/><circle cx="1070.0" cy="109.8" r="3.5" fill="#00a7a5"/><circle cx="1089.6" cy="109.8" r="3.5" fill="#00a7a5"/><circle cx="1109.2" cy="109.8" r="3.5" fill="#00a7a5"/><circle cx="1128.8" cy="110.6" r="3.5" fill="#00a7a5"/><circle cx="1148.4" cy="110.6" r="3.5" fill="#00a7a5"/><circle cx="1168.0" cy="110.6" r="3.5" fill="#00a7a5"/><polyline points="70.0,310.7 89.6,307.9 109.2,305.2 128.8,305.2 148.4,296.9 168.0,302.4 187.6,296.9 207.3,296.9 226.9,288.6 246.5,291.4 266.1,288.6 285.7,294.1 305.3,291.4 324.9,294.1 344.5,288.6 364.1,291.4 383.7,288.6 403.3,294.1 422.9,291.4 442.5,299.6 462.1,294.1 481.8,294.1 501.4,291.4 521.0,291.4 540.6,288.6 560.2,294.1 579.8,291.4 599.4,291.4 619.0,288.6 638.6,294.1 658.2,291.4 677.8,296.9 697.4,294.1 717.0,294.1 736.6,285.8 756.3,283.1 775.9,280.3 795.5,277.6 815.1,274.8 834.7,272.0 854.3,269.3 873.9,266.5 893.5,263.8 913.1,263.8 932.7,263.8 952.3,261.0 971.9,258.2 991.5,255.5 1011.1,255.5 1030.8,252.7 1050.4,250.0 1070.0,247.2 1089.6,244.4 1109.2,241.7 1128.8,238.9 1148.4,238.9 1168.0,236.2" fill="none" stroke="#e6a700" stroke-width="3" stroke-linejoin="round" stroke-linecap="round"/><circle cx="70.0" cy="310.7" r="3.5" fill="#e6a700"/><circle cx="89.6" cy="307.9" r="3.5" fill="#e6a700"/><circle cx="109.2" cy="305.2" r="3.5" fill="#e6a700"/><circle cx="128.8" cy="305.2" r="3.5" fill="#e6a700"/><circle cx="148.4" cy="296.9" r="3.5" fill="#e6a700"/><circle cx="168.0" cy="302.4" r="3.5" fill="#e6a700"/><circle cx="187.6" cy="296.9" r="3.5" fill="#e6a700"/><circle cx="207.3" cy="296.9" r="3.5" fill="#e6a700"/><circle cx="226.9" cy="288.6" r="3.5" fill="#e6a700"/><circle cx="246.5" cy="291.4" r="3.5" fill="#e6a700"/><circle cx="266.1" cy="288.6" r="3.5" fill="#e6a700"/><circle cx="285.7" cy="294.1" r="3.5" fill="#e6a700"/><circle cx="305.3" cy="291.4" r="3.5" fill="#e6a700"/><circle cx="324.9" cy="294.1" r="3.5" fill="#e6a700"/><circle cx="344.5" cy="288.6" r="3.5" fill="#e6a700"/><circle cx="364.1" cy="291.4" r="3.5" fill="#e6a700"/><circle cx="383.7" cy="288.6" r="3.5" fill="#e6a700"/><circle cx="403.3" cy="294.1" r="3.5" fill="#e6a700"/><circle cx="422.9" cy="291.4" r="3.5" fill="#e6a700"/><circle cx="442.5" cy="299.6" r="3.5" fill="#e6a700"/><circle cx="462.1" cy="294.1" r="3.5" fill="#e6a700"/><circle cx="481.8" cy="294.1" r="3.5" fill="#e6a700"/><circle cx="501.4" cy="291.4" r="3.5" fill="#e6a700"/><circle cx="521.0" cy="291.4" r="3.5" fill="#e6a700"/><circle cx="540.6" cy="288.6" r="3.5" fill="#e6a700"/><circle cx="560.2" cy="294.1" r="3.5" fill="#e6a700"/><circle cx="579.8" cy="291.4" r="3.5" fill="#e6a700"/><circle cx="599.4" cy="291.4" r="3.5" fill="#e6a700"/><circle cx="619.0" cy="288.6" r="3.5" fill="#e6a700"/><circle cx="638.6" cy="294.1" r="3.5" fill="#e6a700"/><circle cx="658.2" cy="291.4" r="3.5" fill="#e6a700"/><circle cx="677.8" cy="296.9" r="3.5" fill="#e6a700"/><circle cx="697.4" cy="294.1" r="3.5" fill="#e6a700"/><circle cx="717.0" cy="294.1" r="3.5" fill="#e6a700"/><circle cx="736.6" cy="285.8" r="3.5" fill="#e6a700"/><circle cx="756.3" cy="283.1" r="3.5" fill="#e6a700"/><circle cx="775.9" cy="280.3" r="3.5" fill="#e6a700"/><circle cx="795.5" cy="277.6" r="3.5" fill="#e6a700"/><circle cx="815.1" cy="274.8" r="3.5" fill="#e6a700"/><circle cx="834.7" cy="272.0" r="3.5" fill="#e6a700"/><circle cx="854.3" cy="269.3" r="3.5" fill="#e6a700"/><circle cx="873.9" cy="266.5" r="3.5" fill="#e6a700"/><circle cx="893.5" cy="263.8" r="3.5" fill="#e6a700"/><circle cx="913.1" cy="263.8" r="3.5" fill="#e6a700"/><circle cx="932.7" cy="263.8" r="3.5" fill="#e6a700"/><circle cx="952.3" cy="261.0" r="3.5" fill="#e6a700"/><circle cx="971.9" cy="258.2" r="3.5" fill="#e6a700"/><circle cx="991.5" cy="255.5" r="3.5" fill="#e6a700"/><circle cx="1011.1" cy="255.5" r="3.5" fill="#e6a700"/><circle cx="1030.8" cy="252.7" r="3.5" fill="#e6a700"/><circle cx="1050.4" cy="250.0" r="3.5" fill="#e6a700"/><circle cx="1070.0" cy="247.2" r="3.5" fill="#e6a700"/><circle cx="1089.6" cy="244.4" r="3.5" fill="#e6a700"/><circle cx="1109.2" cy="241.7" r="3.5" fill="#e6a700"/><circle cx="1128.8" cy="238.9" r="3.5" fill="#e6a700"/><circle cx="1148.4" cy="238.9" r="3.5" fill="#e6a700"/><circle cx="1168.0" cy="236.2" r="3.5" fill="#e6a700"/><polyline points="70.0,92.6 89.6,84.4 109.2,76.1 128.8,76.1 148.4,67.8 168.0,67.8 187.6,65.0 207.3,65.0 226.9,62.3 246.5,70.6 266.1,65.0 285.7,65.0 305.3,65.0 324.9,67.8 344.5,62.3 364.1,70.6 383.7,65.0 403.3,65.0 422.9,65.0 442.5,62.3 462.1,59.5 481.8,70.6 501.4,67.8 521.0,67.8 540.6,62.3 560.2,62.3 579.8,62.3 599.4,59.5 619.0,59.5 638.6,62.3 658.2,59.5 677.8,59.5 697.4,59.5 717.0,67.8 736.6,65.0 756.3,65.0 775.9,65.0 795.5,65.0 815.1,65.0 834.7,65.0 854.3,65.0 873.9,65.0 893.5,65.0 913.1,65.0 932.7,65.0 952.3,65.0 971.9,65.0 991.5,65.0 1011.1,65.0 1030.8,65.0 1050.4,65.0 1070.0,65.0 1089.6,65.0 1109.2,65.0 1128.8,65.0 1148.4,65.0 1168.0,65.0" fill="none" stroke="#d94f8a" stroke-width="3" stroke-linejoin="round" stroke-linecap="round"/><circle cx="70.0" cy="92.6" r="3.5" fill="#d94f8a"/><circle cx="89.6" cy="84.4" r="3.5" fill="#d94f8a"/><circle cx="109.2" cy="76.1" r="3.5" fill="#d94f8a"/><circle cx="128.8" cy="76.1" r="3.5" fill="#d94f8a"/><circle cx="148.4" cy="67.8" r="3.5" fill="#d94f8a"/><circle cx="168.0" cy="67.8" r="3.5" fill="#d94f8a"/><circle cx="187.6" cy="65.0" r="3.5" fill="#d94f8a"/><circle cx="207.3" cy="65.0" r="3.5" fill="#d94f8a"/><circle cx="226.9" cy="62.3" r="3.5" fill="#d94f8a"/><circle cx="246.5" cy="70.6" r="3.5" fill="#d94f8a"/><circle cx="266.1" cy="65.0" r="3.5" fill="#d94f8a"/><circle cx="285.7" cy="65.0" r="3.5" fill="#d94f8a"/><circle cx="305.3" cy="65.0" r="3.5" fill="#d94f8a"/><circle cx="324.9" cy="67.8" r="3.5" fill="#d94f8a"/><circle cx="344.5" cy="62.3" r="3.5" fill="#d94f8a"/><circle cx="364.1" cy="70.6" r="3.5" fill="#d94f8a"/><circle cx="383.7" cy="65.0" r="3.5" fill="#d94f8a"/><circle cx="403.3" cy="65.0" r="3.5" fill="#d94f8a"/><circle cx="422.9" cy="65.0" r="3.5" fill="#d94f8a"/><circle cx="442.5" cy="62.3" r="3.5" fill="#d94f8a"/><circle cx="462.1" cy="59.5" r="3.5" fill="#d94f8a"/><circle cx="481.8" cy="70.6" r="3.5" fill="#d94f8a"/><circle cx="501.4" cy="67.8" r="3.5" fill="#d94f8a"/><circle cx="521.0" cy="67.8" r="3.5" fill="#d94f8a"/><circle cx="540.6" cy="62.3" r="3.5" fill="#d94f8a"/><circle cx="560.2" cy="62.3" r="3.5" fill="#d94f8a"/><circle cx="579.8" cy="62.3" r="3.5" fill="#d94f8a"/><circle cx="599.4" cy="59.5" r="3.5" fill="#d94f8a"/><circle cx="619.0" cy="59.5" r="3.5" fill="#d94f8a"/><circle cx="638.6" cy="62.3" r="3.5" fill="#d94f8a"/><circle cx="658.2" cy="59.5" r="3.5" fill="#d94f8a"/><circle cx="677.8" cy="59.5" r="3.5" fill="#d94f8a"/><circle cx="697.4" cy="59.5" r="3.5" fill="#d94f8a"/><circle cx="717.0" cy="67.8" r="3.5" fill="#d94f8a"/><circle cx="736.6" cy="65.0" r="3.5" fill="#d94f8a"/><circle cx="756.3" cy="65.0" r="3.5" fill="#d94f8a"/><circle cx="775.9" cy="65.0" r="3.5" fill="#d94f8a"/><circle cx="795.5" cy="65.0" r="3.5" fill="#d94f8a"/><circle cx="815.1" cy="65.0" r="3.5" fill="#d94f8a"/><circle cx="834.7" cy="65.0" r="3.5" fill="#d94f8a"/><circle cx="854.3" cy="65.0" r="3.5" fill="#d94f8a"/><circle cx="873.9" cy="65.0" r="3.5" fill="#d94f8a"/><circle cx="893.5" cy="65.0" r="3.5" fill="#d94f8a"/><circle cx="913.1" cy="65.0" r="3.5" fill="#d94f8a"/><circle cx="932.7" cy="65.0" r="3.5" fill="#d94f8a"/><circle cx="952.3" cy="65.0" r="3.5" fill="#d94f8a"/><circle cx="971.9" cy="65.0" r="3.5" fill="#d94f8a"/><circle cx="991.5" cy="65.0" r="3.5" fill="#d94f8a"/><circle cx="1011.1" cy="65.0" r="3.5" fill="#d94f8a"/><circle cx="1030.8" cy="65.0" r="3.5" fill="#d94f8a"/><circle cx="1050.4" cy="65.0" r="3.5" fill="#d94f8a"/><circle cx="1070.0" cy="65.0" r="3.5" fill="#d94f8a"/><circle cx="1089.6" cy="65.0" r="3.5" fill="#d94f8a"/><circle cx="1109.2" cy="65.0" r="3.5" fill="#d94f8a"/><circle cx="1128.8" cy="65.0" r="3.5" fill="#d94f8a"/><circle cx="1148.4" cy="65.0" r="3.5" fill="#d94f8a"/><circle cx="1168.0" cy="65.0" r="3.5" fill="#d94f8a"/><polyline points="70.0,233.4 89.6,225.1 109.2,219.6 128.8,219.6 148.4,205.8 168.0,233.4 187.6,205.8 207.3,214.1 226.9,205.8 246.5,203.0 266.1,200.3 285.7,200.3 305.3,197.5 324.9,208.6 344.5,200.3 364.1,200.3 383.7,197.5 403.3,203.0 422.9,200.3 442.5,194.8 462.1,175.4 481.8,203.0 501.4,200.3 521.0,203.0 540.6,197.5 560.2,203.0 579.8,197.5 599.4,203.0 619.0,197.5 638.6,200.3 658.2,200.3 677.8,181.0 697.4,181.0 717.0,200.3 736.6,186.5 756.3,183.7 775.9,183.7 795.5,181.0 815.1,181.0 834.7,181.0 854.3,181.0 873.9,181.0 893.5,181.0 913.1,181.0 932.7,181.0 952.3,181.0 971.9,181.0 991.5,181.0 1011.1,181.0 1030.8,181.0 1050.4,181.0 1070.0,181.0 1089.6,181.0 1109.2,181.0 1128.8,178.2 1148.4,178.2 1168.0,178.2" fill="none" stroke="#2589bd" stroke-width="3" stroke-linejoin="round" stroke-linecap="round"/><circle cx="70.0" cy="233.4" r="3.5" fill="#2589bd"/><circle cx="89.6" cy="225.1" r="3.5" fill="#2589bd"/><circle cx="109.2" cy="219.6" r="3.5" fill="#2589bd"/><circle cx="128.8" cy="219.6" r="3.5" fill="#2589bd"/><circle cx="148.4" cy="205.8" r="3.5" fill="#2589bd"/><circle cx="168.0" cy="233.4" r="3.5" fill="#2589bd"/><circle cx="187.6" cy="205.8" r="3.5" fill="#2589bd"/><circle cx="207.3" cy="214.1" r="3.5" fill="#2589bd"/><circle cx="226.9" cy="205.8" r="3.5" fill="#2589bd"/><circle cx="246.5" cy="203.0" r="3.5" fill="#2589bd"/><circle cx="266.1" cy="200.3" r="3.5" fill="#2589bd"/><circle cx="285.7" cy="200.3" r="3.5" fill="#2589bd"/><circle cx="305.3" cy="197.5" r="3.5" fill="#2589bd"/><circle cx="324.9" cy="208.6" r="3.5" fill="#2589bd"/><circle cx="344.5" cy="200.3" r="3.5" fill="#2589bd"/><circle cx="364.1" cy="200.3" r="3.5" fill="#2589bd"/><circle cx="383.7" cy="197.5" r="3.5" fill="#2589bd"/><circle cx="403.3" cy="203.0" r="3.5" fill="#2589bd"/><circle cx="422.9" cy="200.3" r="3.5" fill="#2589bd"/><circle cx="442.5" cy="194.8" r="3.5" fill="#2589bd"/><circle cx="462.1" cy="175.4" r="3.5" fill="#2589bd"/><circle cx="481.8" cy="203.0" r="3.5" fill="#2589bd"/><circle cx="501.4" cy="200.3" r="3.5" fill="#2589bd"/><circle cx="521.0" cy="203.0" r="3.5" fill="#2589bd"/><circle cx="540.6" cy="197.5" r="3.5" fill="#2589bd"/><circle cx="560.2" cy="203.0" r="3.5" fill="#2589bd"/><circle cx="579.8" cy="197.5" r="3.5" fill="#2589bd"/><circle cx="599.4" cy="203.0" r="3.5" fill="#2589bd"/><circle cx="619.0" cy="197.5" r="3.5" fill="#2589bd"/><circle cx="638.6" cy="200.3" r="3.5" fill="#2589bd"/><circle cx="658.2" cy="200.3" r="3.5" fill="#2589bd"/><circle cx="677.8" cy="181.0" r="3.5" fill="#2589bd"/><circle cx="697.4" cy="181.0" r="3.5" fill="#2589bd"/><circle cx="717.0" cy="200.3" r="3.5" fill="#2589bd"/><circle cx="736.6" cy="186.5" r="3.5" fill="#2589bd"/><circle cx="756.3" cy="183.7" r="3.5" fill="#2589bd"/><circle cx="775.9" cy="183.7" r="3.5" fill="#2589bd"/><circle cx="795.5" cy="181.0" r="3.5" fill="#2589bd"/><circle cx="815.1" cy="181.0" r="3.5" fill="#2589bd"/><circle cx="834.7" cy="181.0" r="3.5" fill="#2589bd"/><circle cx="854.3" cy="181.0" r="3.5" fill="#2589bd"/><circle cx="873.9" cy="181.0" r="3.5" fill="#2589bd"/><circle cx="893.5" cy="181.0" r="3.5" fill="#2589bd"/><circle cx="913.1" cy="181.0" r="3.5" fill="#2589bd"/><circle cx="932.7" cy="181.0" r="3.5" fill="#2589bd"/><circle cx="952.3" cy="181.0" r="3.5" fill="#2589bd"/><circle cx="971.9" cy="181.0" r="3.5" fill="#2589bd"/><circle cx="991.5" cy="181.0" r="3.5" fill="#2589bd"/><circle cx="1011.1" cy="181.0" r="3.5" fill="#2589bd"/><circle cx="1030.8" cy="181.0" r="3.5" fill="#2589bd"/><circle cx="1050.4" cy="181.0" r="3.5" fill="#2589bd"/><circle cx="1070.0" cy="181.0" r="3.5" fill="#2589bd"/><circle cx="1089.6" cy="181.0" r="3.5" fill="#2589bd"/><circle cx="1109.2" cy="181.0" r="3.5" fill="#2589bd"/><circle cx="1128.8" cy="178.2" r="3.5" fill="#2589bd"/><circle cx="1148.4" cy="178.2" r="3.5" fill="#2589bd"/><circle cx="1168.0" cy="178.2" r="3.5" fill="#2589bd"/><text x="70" y="358" text-anchor="middle" class="axis">base 69d858a</text><text x="226.85714285714286" y="358" text-anchor="middle" class="axis">PR #5</text><text x="383.7142857142857" y="358" text-anchor="middle" class="axis">PR #14</text><text x="540.5714285714286" y="358" text-anchor="middle" class="axis">PR #23</text><text x="697.4285714285714" y="358" text-anchor="middle" class="axis">PR #28</text><text x="854.2857142857143" y="358" text-anchor="middle" class="axis">PR #41</text><text x="1011.1428571428571" y="358" text-anchor="middle" class="axis">PR #52</text><text x="1168" y="358" text-anchor="middle" class="axis">PR #61</text><line x1="70" y1="396" x2="96" y2="396" stroke="#ff6b35" stroke-width="4"/><text x="106" y="401" class="legend">Correctness parity</text><line x1="619" y1="396" x2="645" y2="396" stroke="#7c5cff" stroke-width="4"/><text x="655" y="401" class="legend">PyTorch feature coverage</text><line x1="70" y1="424" x2="96" y2="424" stroke="#00a7a5" stroke-width="4"/><text x="106" y="429" class="legend">Performance parity</text><line x1="619" y1="424" x2="645" y2="424" stroke="#e6a700" stroke-width="4"/><text x="655" y="429" class="legend">Python API compatibility</text><line x1="70" y1="452" x2="96" y2="452" stroke="#d94f8a" stroke-width="4"/><text x="106" y="457" class="legend">Benchmark integrity</text><line x1="619" y1="452" x2="645" y2="452" stroke="#2589bd" stroke-width="4"/><text x="655" y="457" class="legend">Sustainable architecture</text>
</svg>
