<svg xmlns="http://www.w3.org/2000/svg" width="1200" height="504" viewBox="0 0 1200 504" role="img" aria-labelledby="title desc">
<title id="title">Burner evaluation progress</title><desc id="desc">Time series of evaluation scores recorded at each Burner merge.</desc>
<style>text{font-family:ui-sans-serif,system-ui,-apple-system,BlinkMacSystemFont,"Segoe UI",sans-serif}.title{font-size:22px;font-weight:700;fill:#20242a}.axis{font-size:12px;fill:#59636e}.legend{font-size:13px;fill:#2f3740}.grid{stroke:#d8dee5;stroke-width:1}.plot{fill:#fff;stroke:#b7c0ca}</style>
<rect width="100%" height="100%" fill="#f8fafc" rx="14"/><text x="70" y="32" class="title">Burner evaluation progress</text>
<rect x="70" y="54" width="1098" height="276" class="plot"/><line x1="70" y1="330" x2="1168" y2="330" class="grid"/><text x="58" y="335" text-anchor="end" class="axis">0</text><line x1="70" y1="261" x2="1168" y2="261" class="grid"/><text x="58" y="266" text-anchor="end" class="axis">25</text><line x1="70" y1="192" x2="1168" y2="192" class="grid"/><text x="58" y="197" text-anchor="end" class="axis">50</text><line x1="70" y1="123" x2="1168" y2="123" class="grid"/><text x="58" y="128" text-anchor="end" class="axis">75</text><line x1="70" y1="54" x2="1168" y2="54" class="grid"/><text x="58" y="59" text-anchor="end" class="axis">100</text><polyline points="70.0,76.1 73.9,76.1 77.9,76.1 81.8,76.1 85.7,76.1 89.7,76.1 93.6,76.1 97.5,76.1 101.5,76.1 105.4,76.1 109.4,76.1 113.3,76.1 117.2,76.1 121.2,76.1 125.1,76.1 129.0,76.1 133.0,76.1 136.9,76.1 140.8,76.1 144.8,76.1 148.7,76.1 152.6,76.1 156.6,76.1 160.5,76.1 164.5,76.1 168.4,76.1 172.3,76.1 176.3,76.1 180.2,76.1 184.1,76.1 188.1,76.1 192.0,76.1 195.9,76.1 199.9,76.1 203.8,76.1 207.7,73.3 211.7,70.6 215.6,70.6 219.5,67.8 223.5,65.0 227.4,62.3 231.4,59.5 235.3,59.5 239.2,59.5 243.2,59.5 247.1,59.5 251.0,56.8 255.0,56.8 258.9,56.8 262.8,56.8 266.8,56.8 270.7,56.8 274.6,56.8 278.6,56.8 282.5,56.8 286.5,56.8 290.4,56.8 294.3,56.8 298.3,56.8 302.2,56.8 306.1,56.8 310.1,56.8 314.0,56.8 317.9,56.8 321.9,56.8 325.8,56.8 329.7,56.8 333.7,56.8 337.6,56.8 341.5,56.8 345.5,56.8 349.4,56.8 353.4,56.8 357.3,56.8 361.2,56.5 365.2,56.2 369.1,55.9 373.0,55.7 377.0,55.7 380.9,55.4 384.8,55.1 388.8,54.8 392.7,54.6 396.6,54.3 400.6,54.3 404.5,54.3 408.5,54.3 412.4,54.3 416.3,54.3 420.3,54.3 424.2,54.3 428.1,54.3 432.1,54.3 436.0,54.3 439.9,54.3 443.9,54.3 447.8,54.3 451.7,54.3 455.7,54.3 459.6,54.3 463.5,54.0 467.5,54.0 471.4,54.0 475.4,54.0 479.3,54.0 483.2,54.0 487.2,56.8 491.1,56.8 495.0,56.8 499.0,54.0 502.9,54.0 506.8,54.0 510.8,54.0 514.7,54.0 518.6,54.0 522.6,54.0 526.5,54.0 530.5,54.0 534.4,54.0 538.3,54.0 542.3,54.0 546.2,54.0 550.1,54.0 554.1,54.0 558.0,54.0 561.9,54.0 565.9,56.8 569.8,56.8 573.7,56.8 577.7,56.8 581.6,56.8 585.5,56.8 589.5,56.8 593.4,56.8 597.4,56.8 601.3,56.8 605.2,56.8 609.2,56.8 613.1,56.8 617.0,56.8 621.0,56.8 624.9,56.8 628.8,56.8 632.8,56.8 636.7,56.8 640.6,56.8 644.6,56.8 648.5,56.8 652.5,56.8 656.4,56.8 660.3,56.8 664.3,56.8 668.2,56.8 672.1,56.8 676.1,56.8 680.0,56.8 683.9,56.8 687.9,56.8 691.8,56.8 695.7,56.2 699.7,56.2 703.6,56.2 707.5,56.2 711.5,55.9 715.4,55.9 719.4,55.9 723.3,55.7 727.2,55.4 731.2,55.4 735.1,55.1 739.0,54.8 743.0,54.6 746.9,54.3 750.8,54.3 754.8,54.0 758.7,54.0 762.6,54.0 766.6,54.0 770.5,54.0 774.5,54.0 778.4,54.0 782.3,54.0 786.3,54.0 790.2,54.0 794.1,54.0 798.1,54.0 802.0,54.0 805.9,54.0 809.9,54.0 813.8,54.0 817.7,54.0 821.7,54.0 825.6,54.0 829.5,54.0 833.5,54.0 837.4,54.0 841.4,54.0 845.3,54.0 849.2,54.0 853.2,54.0 857.1,54.0 861.0,54.0 865.0,54.0 868.9,54.0 872.8,54.0 876.8,54.0 880.7,54.0 884.6,54.0 888.6,54.0 892.5,54.0 896.5,54.0 900.4,54.0 904.3,54.0 908.3,54.0 912.2,54.0 916.1,54.0 920.1,54.0 924.0,54.0 927.9,54.0 931.9,54.0 935.8,54.0 939.7,54.0 943.7,54.0 947.6,54.0 951.5,54.0 955.5,54.0 959.4,54.0 963.4,54.0 967.3,54.0 971.2,54.0 975.2,54.0 979.1,54.0 983.0,54.0 987.0,54.0 990.9,54.0 994.8,54.0 998.8,54.0 1002.7,54.0 1006.6,54.0 1010.6,54.0 1014.5,54.0 1018.5,54.0 1022.4,54.0 1026.3,54.0 1030.3,54.0 1034.2,54.0 1038.1,54.0 1042.1,54.0 1046.0,54.0 1049.9,54.0 1053.9,54.0 1057.8,54.0 1061.7,54.0 1065.7,54.0 1069.6,54.0 1073.5,54.0 1077.5,54.0 1081.4,54.0 1085.4,54.0 1089.3,54.0 1093.2,54.0 1097.2,54.0 1101.1,54.0 1105.0,54.0 1109.0,54.0 1112.9,54.0 1116.8,54.0 1120.8,54.0 1124.7,54.0 1128.6,54.0 1132.6,54.0 1136.5,54.0 1140.5,54.0 1144.4,54.0 1148.3,54.0 1152.3,54.0 1156.2,54.0 1160.1,54.0 1164.1,54.0 1168.0,54.0" fill="none" stroke="#ff6b35" stroke-width="3" stroke-linejoin="round" stroke-linecap="round"/><polyline points="70.0,280.0 73.9,277.0 77.9,270.7 81.8,270.7 85.7,264.3 89.7,264.3 93.6,253.8 97.5,253.8 101.5,248.3 105.4,248.3 109.4,245.3 113.3,245.3 117.2,242.0 121.2,242.0 125.1,236.7 129.0,236.7 133.0,236.7 136.9,236.7 140.8,233.7 144.8,233.7 148.7,228.4 152.6,228.4 156.6,228.4 160.5,228.4 164.5,228.4 168.4,228.4 172.3,228.4 176.3,228.4 180.2,228.4 184.1,228.4 188.1,228.4 192.0,228.4 195.9,228.4 199.9,228.4 203.8,187.0 207.7,185.4 211.7,184.8 215.6,180.1 219.5,179.9 223.5,179.3 227.4,179.3 231.4,179.3 235.3,178.2 239.2,178.2 243.2,178.2 247.1,177.6 251.0,176.8 255.0,176.3 258.9,176.0 262.8,175.7 266.8,175.4 270.7,172.7 274.6,172.4 278.6,172.1 282.5,171.9 286.5,171.9 290.4,171.6 294.3,171.3 298.3,171.0 302.2,171.0 306.1,171.0 310.1,170.7 314.0,170.5 317.9,170.2 321.9,169.9 325.8,169.6 329.7,169.4 333.7,169.1 337.6,169.1 341.5,169.1 345.5,168.8 349.4,168.5 353.4,168.3 357.3,168.0 361.2,167.7 365.2,167.4 369.1,167.2 373.0,166.9 377.0,166.9 380.9,166.1 384.8,165.2 388.8,165.0 392.7,164.7 396.6,164.4 400.6,164.1 404.5,163.8 408.5,163.6 412.4,163.3 416.3,163.3 420.3,163.0 424.2,162.7 428.1,162.5 432.1,162.5 436.0,162.2 439.9,161.9 443.9,161.6 447.8,161.4 451.7,161.1 455.7,160.8 459.6,160.5 463.5,159.7 467.5,159.4 471.4,159.2 475.4,158.9 479.3,158.6 483.2,158.6 487.2,158.3 491.1,158.1 495.0,158.1 499.0,158.1 502.9,157.8 506.8,157.5 510.8,157.2 514.7,156.9 518.6,156.7 522.6,156.7 526.5,156.4 530.5,156.1 534.4,156.1 538.3,155.8 542.3,155.6 546.2,155.6 550.1,155.3 554.1,155.0 558.0,154.7 561.9,154.7 565.9,153.4 569.8,152.8 573.7,152.5 577.7,152.5 581.6,152.5 585.5,152.0 589.5,151.4 593.4,151.4 597.4,151.2 601.3,151.2 605.2,150.6 609.2,150.3 613.1,150.0 617.0,149.5 621.0,148.9 624.9,148.9 628.8,148.4 632.8,148.1 636.7,147.6 640.6,147.0 644.6,146.5 648.5,146.2 652.5,146.2 656.4,145.9 660.3,145.6 664.3,145.4 668.2,145.4 672.1,145.4 676.1,145.1 680.0,144.8 683.9,144.5 687.9,144.3 691.8,144.3 695.7,144.0 699.7,143.7 703.6,143.4 707.5,143.4 711.5,143.1 715.4,142.9 719.4,142.3 723.3,142.0 727.2,141.8 731.2,141.2 735.1,140.9 739.0,140.4 743.0,140.1 746.9,139.8 750.8,139.8 754.8,139.3 758.7,139.3 762.6,138.7 766.6,138.5 770.5,138.5 774.5,138.2 778.4,137.9 782.3,137.6 786.3,137.1 790.2,136.8 794.1,136.5 798.1,136.2 802.0,136.0 805.9,136.0 809.9,135.7 813.8,135.4 817.7,135.1 821.7,134.9 825.6,134.6 829.5,134.3 833.5,134.0 837.4,133.8 841.4,133.5 845.3,133.2 849.2,132.9 853.2,132.7 857.1,132.7 861.0,132.4 865.0,132.1 868.9,131.8 872.8,131.3 876.8,131.0 880.7,131.0 884.6,130.7 888.6,130.5 892.5,130.2 896.5,130.2 900.4,130.2 904.3,129.9 908.3,129.6 912.2,129.3 916.1,129.1 920.1,128.8 924.0,128.5 927.9,128.2 931.9,128.2 935.8,128.0 939.7,128.0 943.7,127.7 947.6,127.7 951.5,127.4 955.5,127.4 959.4,127.1 963.4,126.9 967.3,126.6 971.2,126.0 975.2,125.8 979.1,125.5 983.0,125.5 987.0,124.9 990.9,124.7 994.8,124.7 998.8,124.4 1002.7,124.4 1006.6,123.8 1010.6,123.6 1014.5,123.3 1018.5,123.3 1022.4,123.0 1026.3,122.7 1030.3,122.2 1034.2,121.9 1038.1,121.3 1042.1,121.3 1046.0,121.1 1049.9,120.5 1053.9,120.5 1057.8,120.0 1061.7,119.7 1065.7,119.1 1069.6,118.9 1073.5,118.3 1077.5,117.8 1081.4,117.5 1085.4,117.2 1089.3,116.9 1093.2,116.7 1097.2,116.4 1101.1,116.1 1105.0,115.5 1109.0,115.0 1112.9,114.7 1116.8,114.4 1120.8,113.9 1124.7,113.6 1128.6,113.6 1132.6,113.3 1136.5,113.1 1140.5,112.8 1144.4,112.5 1148.3,112.2 1152.3,112.0 1156.2,111.7 1160.1,111.7 1164.1,111.4 1168.0,110.9" fill="none" stroke="#7c5cff" stroke-width="3" stroke-linejoin="round" stroke-linecap="round"/><polyline points="70.0,147.0 73.9,140.1 77.9,119.4 81.8,120.2 85.7,119.1 89.7,118.9 93.6,117.2 97.5,117.5 101.5,116.9 105.4,117.8 109.4,117.2 113.3,117.8 117.2,116.9 121.2,116.9 125.1,116.9 129.0,117.8 133.0,117.2 136.9,116.9 140.8,113.3 144.8,114.2 148.7,111.1 152.6,111.4 156.6,111.1 160.5,111.1 164.5,110.9 168.4,111.4 172.3,110.9 176.3,111.7 180.2,111.1 184.1,111.1 188.1,111.1 192.0,110.6 195.9,110.3 199.9,110.6 203.8,109.8 207.7,109.8 211.7,109.8 215.6,109.8 219.5,109.8 223.5,109.8 227.4,109.8 231.4,109.8 235.3,109.8 239.2,109.8 243.2,109.8 247.1,109.8 251.0,109.8 255.0,109.8 258.9,109.8 262.8,109.8 266.8,109.8 270.7,109.8 274.6,109.8 278.6,109.8 282.5,110.6 286.5,110.6 290.4,110.6 294.3,110.6 298.3,110.6 302.2,110.6 306.1,110.6 310.1,110.6 314.0,110.6 317.9,110.6 321.9,110.6 325.8,110.6 329.7,110.6 333.7,110.6 337.6,110.6 341.5,110.6 345.5,110.6 349.4,110.6 353.4,110.6 357.3,110.6 361.2,110.6 365.2,110.6 369.1,110.6 373.0,110.6 377.0,110.6 380.9,110.6 384.8,110.6 388.8,110.6 392.7,110.6 396.6,110.6 400.6,110.6 404.5,110.6 408.5,110.6 412.4,110.6 416.3,110.6 420.3,110.6 424.2,110.6 428.1,110.6 432.1,110.6 436.0,110.6 439.9,110.6 443.9,110.6 447.8,110.6 451.7,110.6 455.7,110.6 459.6,110.6 463.5,110.6 467.5,110.6 471.4,110.6 475.4,110.6 479.3,110.6 483.2,110.6 487.2,110.6 491.1,110.6 495.0,110.6 499.0,110.6 502.9,110.6 506.8,110.6 510.8,110.6 514.7,110.6 518.6,110.6 522.6,110.6 526.5,110.6 530.5,110.6 534.4,110.6 538.3,110.6 542.3,110.6 546.2,110.6 550.1,110.6 554.1,110.6 558.0,110.6 561.9,110.6 565.9,110.6 569.8,110.6 573.7,110.6 577.7,110.6 581.6,110.6 585.5,110.6 589.5,110.6 593.4,110.6 597.4,110.6 601.3,110.6 605.2,110.6 609.2,110.6 613.1,110.6 617.0,110.6 621.0,110.6 624.9,110.6 628.8,110.6 632.8,110.6 636.7,110.6 640.6,110.6 644.6,110.6 648.5,110.6 652.5,110.6 656.4,110.6 660.3,110.6 664.3,110.6 668.2,110.6 672.1,110.6 676.1,110.6 680.0,110.6 683.9,110.6 687.9,110.6 691.8,110.6 695.7,110.6 699.7,110.6 703.6,110.6 707.5,110.6 711.5,110.6 715.4,110.6 719.4,110.6 723.3,110.6 727.2,110.6 731.2,110.6 735.1,110.6 739.0,110.6 743.0,110.6 746.9,110.6 750.8,110.6 754.8,110.6 758.7,110.6 762.6,110.6 766.6,110.6 770.5,110.6 774.5,110.6 778.4,110.6 782.3,110.6 786.3,110.6 790.2,110.6 794.1,110.6 798.1,110.6 802.0,110.6 805.9,110.6 809.9,110.6 813.8,110.6 817.7,110.6 821.7,110.6 825.6,110.6 829.5,110.6 833.5,110.6 837.4,110.6 841.4,110.6 845.3,110.6 849.2,110.6 853.2,110.6 857.1,110.6 861.0,110.6 865.0,110.6 868.9,110.6 872.8,110.6 876.8,110.6 880.7,110.6 884.6,110.6 888.6,110.6 892.5,110.6 896.5,110.6 900.4,110.6 904.3,110.6 908.3,110.6 912.2,110.6 916.1,110.6 920.1,110.6 924.0,110.6 927.9,110.6 931.9,110.6 935.8,110.6 939.7,110.6 943.7,110.6 947.6,110.6 951.5,110.6 955.5,110.6 959.4,110.6 963.4,110.6 967.3,110.6 971.2,110.6 975.2,110.6 979.1,110.6 983.0,110.6 987.0,110.6 990.9,110.6 994.8,110.6 998.8,110.6 1002.7,110.6 1006.6,110.6 1010.6,110.6 1014.5,110.6 1018.5,110.6 1022.4,110.6 1026.3,110.6 1030.3,110.6 1034.2,110.6 1038.1,110.6 1042.1,110.6 1046.0,110.6 1049.9,110.6 1053.9,110.6 1057.8,110.6 1061.7,110.6 1065.7,110.6 1069.6,110.6 1073.5,110.6 1077.5,110.6 1081.4,110.6 1085.4,110.6 1089.3,110.6 1093.2,110.6 1097.2,110.6 1101.1,110.6 1105.0,110.6 1109.0,110.6 1112.9,110.6 1116.8,110.6 1120.8,110.6 1124.7,110.6 1128.6,110.6 1132.6,110.6 1136.5,110.6 1140.5,110.6 1144.4,110.6 1148.3,110.6 1152.3,110.6 1156.2,110.6 1160.1,110.6 1164.1,110.6 1168.0,110.6" fill="none" stroke="#00a7a5" stroke-width="3" stroke-linejoin="round" stroke-linecap="round"/><polyline points="70.0,310.7 73.9,307.9 77.9,305.2 81.8,305.2 85.7,296.9 89.7,302.4 93.6,296.9 97.5,296.9 101.5,288.6 105.4,291.4 109.4,288.6 113.3,294.1 117.2,291.4 121.2,294.1 125.1,288.6 129.0,291.4 133.0,288.6 136.9,294.1 140.8,291.4 144.8,299.6 148.7,294.1 152.6,294.1 156.6,291.4 160.5,291.4 164.5,288.6 168.4,294.1 172.3,291.4 176.3,291.4 180.2,288.6 184.1,294.1 188.1,291.4 192.0,296.9 195.9,294.1 199.9,294.1 203.8,285.8 207.7,283.1 211.7,280.3 215.6,277.6 219.5,274.8 223.5,272.0 227.4,269.3 231.4,266.5 235.3,263.8 239.2,263.8 243.2,263.8 247.1,261.0 251.0,258.2 255.0,255.5 258.9,255.5 262.8,252.7 266.8,250.0 270.7,247.2 274.6,244.4 278.6,241.7 282.5,238.9 286.5,238.9 290.4,236.2 294.3,233.4 298.3,230.6 302.2,230.6 306.1,230.6 310.1,227.9 314.0,227.9 317.9,227.6 321.9,227.3 325.8,227.1 329.7,226.8 333.7,226.5 337.6,226.5 341.5,226.5 345.5,226.2 349.4,225.9 353.4,225.7 357.3,225.4 361.2,225.1 365.2,224.8 369.1,224.6 373.0,224.3 377.0,224.3 380.9,224.0 384.8,223.7 388.8,223.5 392.7,223.2 396.6,222.9 400.6,222.6 404.5,222.4 408.5,222.1 412.4,221.8 416.3,221.8 420.3,221.5 424.2,221.3 428.1,221.0 432.1,221.0 436.0,220.7 439.9,220.4 443.9,220.2 447.8,219.9 451.7,219.6 455.7,219.3 459.6,219.0 463.5,218.5 467.5,218.2 471.4,217.9 475.4,217.7 479.3,217.4 483.2,217.4 487.2,217.1 491.1,216.8 495.0,216.8 499.0,216.8 502.9,216.3 506.8,216.0 510.8,215.7 514.7,215.5 518.6,215.2 522.6,215.2 526.5,214.9 530.5,214.6 534.4,214.6 538.3,213.8 542.3,213.5 546.2,213.5 550.1,213.3 554.1,213.0 558.0,212.7 561.9,212.7 565.9,212.4 569.8,211.3 573.7,211.0 577.7,211.0 581.6,211.0 585.5,209.9 589.5,209.4 593.4,209.1 597.4,208.8 601.3,208.8 605.2,208.6 609.2,208.3 613.1,208.0 617.0,206.9 621.0,206.4 624.9,206.4 628.8,205.8 632.8,205.5 636.7,205.2 640.6,204.4 644.6,204.1 648.5,203.9 652.5,203.9 656.4,203.6 660.3,203.3 664.3,203.0 668.2,203.0 672.1,203.0 676.1,202.8 680.0,202.5 683.9,202.2 687.9,201.9 691.8,201.9 695.7,201.7 699.7,200.8 703.6,200.3 707.5,200.3 711.5,200.0 715.4,199.7 719.4,199.2 723.3,198.9 727.2,198.6 731.2,198.1 735.1,197.8 739.0,197.2 743.0,197.0 746.9,196.7 750.8,196.7 754.8,196.1 758.7,196.1 762.6,193.9 766.6,193.7 770.5,193.7 774.5,193.4 778.4,193.1 782.3,192.6 786.3,192.0 790.2,191.7 794.1,191.4 798.1,191.2 802.0,190.9 805.9,190.9 809.9,190.6 813.8,190.1 817.7,189.5 821.7,188.1 825.6,186.2 829.5,185.4 833.5,185.1 837.4,184.8 841.4,184.5 845.3,183.2 849.2,182.9 853.2,181.8 857.1,181.8 861.0,181.0 865.0,180.7 868.9,179.9 872.8,179.0 876.8,178.5 880.7,178.5 884.6,177.9 888.6,177.6 892.5,177.1 896.5,177.1 900.4,177.1 904.3,176.5 908.3,176.3 912.2,175.7 916.1,175.4 920.1,174.9 924.0,174.3 927.9,174.1 931.9,174.1 935.8,173.5 939.7,173.5 943.7,173.2 947.6,173.2 951.5,173.0 955.5,173.0 959.4,172.7 963.4,172.4 967.3,172.1 971.2,171.6 975.2,171.3 979.1,171.0 983.0,171.0 987.0,170.2 990.9,169.9 994.8,169.9 998.8,169.6 1002.7,169.6 1006.6,169.1 1010.6,168.8 1014.5,168.5 1018.5,168.5 1022.4,168.3 1026.3,168.0 1030.3,167.4 1034.2,167.2 1038.1,166.6 1042.1,166.6 1046.0,166.3 1049.9,165.8 1053.9,165.8 1057.8,165.2 1061.7,165.0 1065.7,164.4 1069.6,164.1 1073.5,163.6 1077.5,163.0 1081.4,162.7 1085.4,162.5 1089.3,162.2 1093.2,161.9 1097.2,161.6 1101.1,161.4 1105.0,160.8 1109.0,160.3 1112.9,160.0 1116.8,159.7 1120.8,159.2 1124.7,158.9 1128.6,158.9 1132.6,158.6 1136.5,158.3 1140.5,158.1 1144.4,157.8 1148.3,157.5 1152.3,157.2 1156.2,156.9 1160.1,156.9 1164.1,156.7 1168.0,156.1" fill="none" stroke="#e6a700" stroke-width="3" stroke-linejoin="round" stroke-linecap="round"/><polyline points="70.0,92.6 73.9,84.4 77.9,76.1 81.8,76.1 85.7,67.8 89.7,67.8 93.6,65.0 97.5,65.0 101.5,62.3 105.4,70.6 109.4,65.0 113.3,65.0 117.2,65.0 121.2,67.8 125.1,62.3 129.0,70.6 133.0,65.0 136.9,65.0 140.8,65.0 144.8,62.3 148.7,59.5 152.6,70.6 156.6,67.8 160.5,67.8 164.5,62.3 168.4,62.3 172.3,62.3 176.3,59.5 180.2,59.5 184.1,62.3 188.1,59.5 192.0,59.5 195.9,59.5 199.9,67.8 203.8,65.0 207.7,65.0 211.7,65.0 215.6,65.0 219.5,65.0 223.5,65.0 227.4,65.0 231.4,65.0 235.3,65.0 239.2,65.0 243.2,65.0 247.1,65.0 251.0,65.0 255.0,65.0 258.9,65.0 262.8,65.0 266.8,65.0 270.7,65.0 274.6,65.0 278.6,65.0 282.5,65.0 286.5,65.0 290.4,65.0 294.3,65.0 298.3,65.0 302.2,65.0 306.1,65.0 310.1,65.0 314.0,65.0 317.9,65.0 321.9,65.0 325.8,65.0 329.7,65.0 333.7,65.0 337.6,62.3 341.5,62.3 345.5,62.3 349.4,62.3 353.4,62.3 357.3,62.3 361.2,62.3 365.2,62.3 369.1,62.3 373.0,62.3 377.0,62.3 380.9,62.3 384.8,62.3 388.8,62.3 392.7,62.3 396.6,62.3 400.6,62.3 404.5,62.3 408.5,62.3 412.4,62.3 416.3,62.3 420.3,62.3 424.2,62.3 428.1,62.3 432.1,62.3 436.0,62.3 439.9,62.3 443.9,62.3 447.8,62.3 451.7,62.3 455.7,62.3 459.6,62.3 463.5,62.3 467.5,62.3 471.4,62.3 475.4,62.3 479.3,62.3 483.2,62.3 487.2,62.3 491.1,62.3 495.0,62.3 499.0,59.5 502.9,59.5 506.8,59.5 510.8,59.5 514.7,59.5 518.6,59.5 522.6,59.5 526.5,59.5 530.5,59.5 534.4,59.5 538.3,59.5 542.3,59.5 546.2,59.5 550.1,59.5 554.1,59.5 558.0,59.5 561.9,59.5 565.9,59.5 569.8,59.5 573.7,59.5 577.7,59.5 581.6,59.5 585.5,59.5 589.5,59.5 593.4,59.5 597.4,59.5 601.3,59.5 605.2,59.5 609.2,59.5 613.1,59.5 617.0,59.5 621.0,59.5 624.9,59.5 628.8,59.5 632.8,59.5 636.7,59.5 640.6,59.5 644.6,59.5 648.5,59.5 652.5,59.5 656.4,59.5 660.3,59.5 664.3,59.5 668.2,59.5 672.1,59.5 676.1,59.5 680.0,59.5 683.9,59.5 687.9,59.5 691.8,59.5 695.7,59.5 699.7,59.5 703.6,59.5 707.5,59.5 711.5,59.5 715.4,59.5 719.4,59.5 723.3,59.5 727.2,59.5 731.2,59.5 735.1,59.5 739.0,59.5 743.0,59.5 746.9,59.5 750.8,59.5 754.8,59.5 758.7,59.5 762.6,59.5 766.6,59.5 770.5,59.5 774.5,59.5 778.4,59.5 782.3,59.5 786.3,59.5 790.2,59.5 794.1,59.5 798.1,59.5 802.0,59.5 805.9,59.5 809.9,59.5 813.8,59.5 817.7,59.5 821.7,59.5 825.6,59.5 829.5,59.5 833.5,59.5 837.4,59.5 841.4,59.5 845.3,59.5 849.2,59.5 853.2,59.5 857.1,59.5 861.0,59.5 865.0,59.5 868.9,59.5 872.8,59.5 876.8,59.5 880.7,59.5 884.6,59.5 888.6,59.5 892.5,59.5 896.5,59.5 900.4,59.5 904.3,59.5 908.3,59.5 912.2,59.5 916.1,59.5 920.1,59.5 924.0,59.5 927.9,59.5 931.9,59.5 935.8,59.5 939.7,59.5 943.7,59.5 947.6,59.5 951.5,59.5 955.5,59.5 959.4,59.5 963.4,59.5 967.3,59.5 971.2,59.5 975.2,59.5 979.1,59.5 983.0,59.5 987.0,59.5 990.9,59.5 994.8,59.5 998.8,59.5 1002.7,59.5 1006.6,59.5 1010.6,59.5 1014.5,59.5 1018.5,59.5 1022.4,59.5 1026.3,59.5 1030.3,59.5 1034.2,59.5 1038.1,59.5 1042.1,59.5 1046.0,59.5 1049.9,59.5 1053.9,59.5 1057.8,59.5 1061.7,59.5 1065.7,59.5 1069.6,59.5 1073.5,59.5 1077.5,59.5 1081.4,59.5 1085.4,59.5 1089.3,59.5 1093.2,59.5 1097.2,59.5 1101.1,59.5 1105.0,59.5 1109.0,59.5 1112.9,59.5 1116.8,59.5 1120.8,59.5 1124.7,59.5 1128.6,59.5 1132.6,59.5 1136.5,59.5 1140.5,59.5 1144.4,59.5 1148.3,59.5 1152.3,59.5 1156.2,59.5 1160.1,59.5 1164.1,59.5 1168.0,59.5" fill="none" stroke="#d94f8a" stroke-width="3" stroke-linejoin="round" stroke-linecap="round"/><polyline points="70.0,233.4 73.9,225.1 77.9,219.6 81.8,219.6 85.7,205.8 89.7,233.4 93.6,205.8 97.5,214.1 101.5,205.8 105.4,203.0 109.4,200.3 113.3,200.3 117.2,197.5 121.2,208.6 125.1,200.3 129.0,200.3 133.0,197.5 136.9,203.0 140.8,200.3 144.8,194.8 148.7,175.4 152.6,203.0 156.6,200.3 160.5,203.0 164.5,197.5 168.4,203.0 172.3,197.5 176.3,203.0 180.2,197.5 184.1,200.3 188.1,200.3 192.0,181.0 195.9,181.0 199.9,200.3 203.8,186.5 207.7,183.7 211.7,183.7 215.6,181.0 219.5,181.0 223.5,181.0 227.4,181.0 231.4,181.0 235.3,181.0 239.2,181.0 243.2,181.0 247.1,181.0 251.0,181.0 255.0,181.0 258.9,181.0 262.8,181.0 266.8,181.0 270.7,181.0 274.6,181.0 278.6,181.0 282.5,178.2 286.5,178.2 290.4,178.2 294.3,178.2 298.3,178.2 302.2,175.4 306.1,175.4 310.1,175.4 314.0,175.4 317.9,175.4 321.9,175.4 325.8,175.4 329.7,172.7 333.7,172.7 337.6,169.9 341.5,169.9 345.5,169.9 349.4,169.9 353.4,169.9 357.3,169.9 361.2,169.9 365.2,169.9 369.1,169.9 373.0,169.9 377.0,167.2 380.9,167.2 384.8,167.2 388.8,167.2 392.7,167.2 396.6,167.2 400.6,167.2 404.5,167.2 408.5,167.2 412.4,167.2 416.3,164.4 420.3,164.4 424.2,175.4 428.1,175.4 432.1,172.7 436.0,172.7 439.9,172.7 443.9,172.7 447.8,172.7 451.7,172.7 455.7,172.7 459.6,172.7 463.5,172.7 467.5,172.7 471.4,175.4 475.4,175.4 479.3,175.4 483.2,172.7 487.2,172.7 491.1,172.7 495.0,169.9 499.0,167.2 502.9,167.2 506.8,167.2 510.8,167.2 514.7,167.2 518.6,167.2 522.6,164.4 526.5,164.4 530.5,164.4 534.4,161.6 538.3,161.6 542.3,164.4 546.2,161.6 550.1,161.6 554.1,161.6 558.0,164.4 561.9,161.6 565.9,161.6 569.8,161.6 573.7,161.6 577.7,161.6 581.6,158.9 585.5,158.9 589.5,158.9 593.4,158.9 597.4,158.9 601.3,156.1 605.2,153.4 609.2,153.4 613.1,153.4 617.0,153.4 621.0,153.4 624.9,150.6 628.8,150.6 632.8,150.6 636.7,150.6 640.6,150.6 644.6,150.6 648.5,150.6 652.5,147.8 656.4,147.8 660.3,147.8 664.3,147.8 668.2,146.5 672.1,145.1 676.1,145.1 680.0,145.1 683.9,145.1 687.9,145.1 691.8,143.7 695.7,143.7 699.7,142.3 703.6,142.3 707.5,140.9 711.5,140.9 715.4,140.9 719.4,140.9 723.3,140.9 727.2,140.9 731.2,140.9 735.1,140.9 739.0,140.9 743.0,140.9 746.9,140.9 750.8,140.7 754.8,138.7 758.7,137.9 762.6,137.9 766.6,137.9 770.5,136.8 774.5,136.8 778.4,136.8 782.3,136.8 786.3,136.8 790.2,136.8 794.1,136.8 798.1,136.8 802.0,136.8 805.9,136.8 809.9,136.8 813.8,136.8 817.7,136.8 821.7,136.8 825.6,136.8 829.5,136.8 833.5,136.8 837.4,136.8 841.4,136.8 845.3,136.8 849.2,136.8 853.2,136.8 857.1,134.0 861.0,134.0 865.0,134.0 868.9,134.0 872.8,131.3 876.8,131.3 880.7,131.3 884.6,128.5 888.6,125.8 892.5,123.0 896.5,120.2 900.4,120.2 904.3,120.2 908.3,120.2 912.2,120.2 916.1,120.2 920.1,120.2 924.0,120.2 927.9,120.2 931.9,117.5 935.8,117.5 939.7,114.7 943.7,112.0 947.6,109.2 951.5,109.2 955.5,106.4 959.4,106.4 963.4,106.4 967.3,106.4 971.2,106.4 975.2,106.4 979.1,106.4 983.0,103.7 987.0,103.7 990.9,100.9 994.8,100.9 998.8,100.9 1002.7,100.9 1006.6,100.9 1010.6,100.9 1014.5,98.2 1018.5,95.4 1022.4,92.6 1026.3,89.9 1030.3,89.9 1034.2,89.9 1038.1,87.1 1042.1,84.4 1046.0,81.6 1049.9,81.6 1053.9,81.6 1057.8,81.6 1061.7,81.6 1065.7,81.6 1069.6,81.6 1073.5,81.6 1077.5,81.6 1081.4,81.6 1085.4,81.6 1089.3,81.6 1093.2,81.6 1097.2,81.6 1101.1,81.6 1105.0,81.6 1109.0,81.6 1112.9,81.6 1116.8,81.6 1120.8,81.6 1124.7,81.6 1128.6,80.2 1132.6,80.2 1136.5,80.2 1140.5,80.2 1144.4,80.2 1148.3,79.9 1152.3,79.9 1156.2,79.9 1160.1,79.7 1164.1,79.7 1168.0,79.7" fill="none" stroke="#2589bd" stroke-width="3" stroke-linejoin="round" stroke-linecap="round"/><text x="70" y="358" text-anchor="middle" class="axis">base 69d858a</text><text x="227.41935483870967" y="358" text-anchor="middle" class="axis">PR #41</text><text x="384.83870967741933" y="358" text-anchor="middle" class="axis">PR #87</text><text x="542.258064516129" y="358" text-anchor="middle" class="axis">PR #130</text><text x="695.741935483871" y="358" text-anchor="middle" class="axis">PR #172</text><text x="853.1612903225806" y="358" text-anchor="middle" class="axis">PR #216</text><text x="1010.5806451612902" y="358" text-anchor="middle" class="axis">PR #342</text><text x="1168" y="358" text-anchor="middle" class="axis">PR #519</text><line x1="70" y1="396" x2="96" y2="396" stroke="#ff6b35" stroke-width="4"/><text x="106" y="401" class="legend">Correctness parity</text><line x1="619" y1="396" x2="645" y2="396" stroke="#7c5cff" stroke-width="4"/><text x="655" y="401" class="legend">PyTorch feature coverage</text><line x1="70" y1="424" x2="96" y2="424" stroke="#00a7a5" stroke-width="4"/><text x="106" y="429" class="legend">Performance parity</text><line x1="619" y1="424" x2="645" y2="424" stroke="#e6a700" stroke-width="4"/><text x="655" y="429" class="legend">Python API compatibility</text><line x1="70" y1="452" x2="96" y2="452" stroke="#d94f8a" stroke-width="4"/><text x="106" y="457" class="legend">Benchmark integrity</text><line x1="619" y1="452" x2="645" y2="452" stroke="#2589bd" stroke-width="4"/><text x="655" y="457" class="legend">Sustainable architecture</text>
</svg>
