<svg xmlns="http://www.w3.org/2000/svg" width="1200" height="504" viewBox="0 0 1200 504" role="img" aria-labelledby="title desc">
<title id="title">Burner evaluation progress</title><desc id="desc">Time series of evaluation scores recorded at each Burner merge.</desc>
<style>text{font-family:ui-sans-serif,system-ui,-apple-system,BlinkMacSystemFont,"Segoe UI",sans-serif}.title{font-size:22px;font-weight:700;fill:#20242a}.axis{font-size:12px;fill:#59636e}.legend{font-size:13px;fill:#2f3740}.grid{stroke:#d8dee5;stroke-width:1}.plot{fill:#fff;stroke:#b7c0ca}</style>
<rect width="100%" height="100%" fill="#f8fafc" rx="14"/><text x="70" y="32" class="title">Burner evaluation progress</text>
<rect x="70" y="54" width="1098" height="276" class="plot"/><line x1="70" y1="330" x2="1168" y2="330" class="grid"/><text x="58" y="335" text-anchor="end" class="axis">0</text><line x1="70" y1="261" x2="1168" y2="261" class="grid"/><text x="58" y="266" text-anchor="end" class="axis">25</text><line x1="70" y1="192" x2="1168" y2="192" class="grid"/><text x="58" y="197" text-anchor="end" class="axis">50</text><line x1="70" y1="123" x2="1168" y2="123" class="grid"/><text x="58" y="128" text-anchor="end" class="axis">75</text><line x1="70" y1="54" x2="1168" y2="54" class="grid"/><text x="58" y="59" text-anchor="end" class="axis">100</text><polyline points="70.0,76.1 73.3,76.1 76.5,76.1 79.8,76.1 83.0,76.1 86.3,76.1 89.5,76.1 92.8,76.1 96.1,76.1 99.3,76.1 102.6,76.1 105.8,76.1 109.1,76.1 112.4,76.1 115.6,76.1 118.9,76.1 122.1,76.1 125.4,76.1 128.6,76.1 131.9,76.1 135.2,76.1 138.4,76.1 141.7,76.1 144.9,76.1 148.2,76.1 151.5,76.1 154.7,76.1 158.0,76.1 161.2,76.1 164.5,76.1 167.7,76.1 171.0,76.1 174.3,76.1 177.5,76.1 180.8,76.1 184.0,73.3 187.3,70.6 190.6,70.6 193.8,67.8 197.1,65.0 200.3,62.3 203.6,59.5 206.8,59.5 210.1,59.5 213.4,59.5 216.6,59.5 219.9,56.8 223.1,56.8 226.4,56.8 229.6,56.8 232.9,56.8 236.2,56.8 239.4,56.8 242.7,56.8 245.9,56.8 249.2,56.8 252.5,56.8 255.7,56.8 259.0,56.8 262.2,56.8 265.5,56.8 268.7,56.8 272.0,56.8 275.3,56.8 278.5,56.8 281.8,56.8 285.0,56.8 288.3,56.8 291.6,56.8 294.8,56.8 298.1,56.8 301.3,56.8 304.6,56.8 307.8,56.8 311.1,56.5 314.4,56.2 317.6,55.9 320.9,55.7 324.1,55.7 327.4,55.4 330.7,55.1 333.9,54.8 337.2,54.6 340.4,54.3 343.7,54.3 346.9,54.3 350.2,54.3 353.5,54.3 356.7,54.3 360.0,54.3 363.2,54.3 366.5,54.3 369.8,54.3 373.0,54.3 376.3,54.3 379.5,54.3 382.8,54.3 386.0,54.3 389.3,54.3 392.6,54.3 395.8,54.0 399.1,54.0 402.3,54.0 405.6,54.0 408.8,54.0 412.1,54.0 415.4,56.8 418.6,56.8 421.9,56.8 425.1,54.0 428.4,54.0 431.7,54.0 434.9,54.0 438.2,54.0 441.4,54.0 444.7,54.0 447.9,54.0 451.2,54.0 454.5,54.0 457.7,54.0 461.0,54.0 464.2,54.0 467.5,54.0 470.8,54.0 474.0,54.0 477.3,54.0 480.5,56.8 483.8,56.8 487.0,56.8 490.3,56.8 493.6,56.8 496.8,56.8 500.1,56.8 503.3,56.8 506.6,56.8 509.9,56.8 513.1,56.8 516.4,56.8 519.6,56.8 522.9,56.8 526.1,56.8 529.4,56.8 532.7,56.8 535.9,56.8 539.2,56.8 542.4,56.8 545.7,56.8 548.9,56.8 552.2,56.8 555.5,56.8 558.7,56.8 562.0,56.8 565.2,56.8 568.5,56.8 571.8,56.8 575.0,56.8 578.3,56.8 581.5,56.8 584.8,56.8 588.0,56.2 591.3,56.2 594.6,56.2 597.8,56.2 601.1,55.9 604.3,55.9 607.6,55.9 610.9,55.7 614.1,55.4 617.4,55.4 620.6,55.1 623.9,54.8 627.1,54.6 630.4,54.3 633.7,54.3 636.9,54.0 640.2,54.0 643.4,54.0 646.7,54.0 650.0,54.0 653.2,54.0 656.5,54.0 659.7,54.0 663.0,54.0 666.2,54.0 669.5,54.0 672.8,54.0 676.0,54.0 679.3,54.0 682.5,54.0 685.8,54.0 689.1,54.0 692.3,54.0 695.6,54.0 698.8,54.0 702.1,54.0 705.3,54.0 708.6,54.0 711.9,54.0 715.1,54.0 718.4,54.0 721.6,54.0 724.9,54.0 728.1,54.0 731.4,54.0 734.7,54.0 737.9,54.0 741.2,54.0 744.4,54.0 747.7,54.0 751.0,54.0 754.2,54.0 757.5,54.0 760.7,54.0 764.0,54.0 767.2,54.0 770.5,54.0 773.8,54.0 777.0,54.0 780.3,54.0 783.5,54.0 786.8,54.0 790.1,54.0 793.3,54.0 796.6,54.0 799.8,54.0 803.1,54.0 806.3,54.0 809.6,54.0 812.9,54.0 816.1,54.0 819.4,54.0 822.6,54.0 825.9,54.0 829.2,54.0 832.4,54.0 835.7,54.0 838.9,54.0 842.2,54.0 845.4,54.0 848.7,54.0 852.0,54.0 855.2,54.0 858.5,54.0 861.7,54.0 865.0,54.0 868.2,54.0 871.5,54.0 874.8,54.0 878.0,54.0 881.3,54.0 884.5,54.0 887.8,54.0 891.1,54.0 894.3,54.0 897.6,54.0 900.8,54.0 904.1,54.0 907.3,54.0 910.6,54.0 913.9,54.0 917.1,54.0 920.4,54.0 923.6,54.0 926.9,54.0 930.2,54.0 933.4,54.0 936.7,54.0 939.9,54.0 943.2,54.0 946.4,54.0 949.7,54.0 953.0,54.0 956.2,54.0 959.5,54.0 962.7,54.0 966.0,54.0 969.3,54.0 972.5,54.0 975.8,54.0 979.0,54.0 982.3,54.0 985.5,54.0 988.8,54.0 992.1,54.0 995.3,54.0 998.6,54.0 1001.8,54.0 1005.1,54.0 1008.4,54.0 1011.6,54.0 1014.9,54.0 1018.1,54.0 1021.4,54.0 1024.6,54.0 1027.9,54.0 1031.2,54.0 1034.4,54.0 1037.7,54.0 1040.9,54.0 1044.2,54.0 1047.4,54.0 1050.7,54.0 1054.0,54.0 1057.2,54.0 1060.5,54.0 1063.7,54.0 1067.0,54.0 1070.3,54.0 1073.5,54.0 1076.8,54.0 1080.0,54.0 1083.3,54.0 1086.5,54.0 1089.8,54.0 1093.1,54.0 1096.3,54.0 1099.6,54.0 1102.8,54.0 1106.1,54.0 1109.4,54.0 1112.6,54.0 1115.9,54.0 1119.1,54.0 1122.4,54.0 1125.6,54.0 1128.9,54.0 1132.2,54.0 1135.4,54.0 1138.7,54.0 1141.9,54.0 1145.2,54.0 1148.5,54.0 1151.7,54.0 1155.0,54.0 1158.2,54.0 1161.5,54.0 1164.7,54.0 1168.0,54.0" fill="none" stroke="#ff6b35" stroke-width="3" stroke-linejoin="round" stroke-linecap="round"/><polyline points="70.0,280.0 73.3,277.0 76.5,270.7 79.8,270.7 83.0,264.3 86.3,264.3 89.5,253.8 92.8,253.8 96.1,248.3 99.3,248.3 102.6,245.3 105.8,245.3 109.1,242.0 112.4,242.0 115.6,236.7 118.9,236.7 122.1,236.7 125.4,236.7 128.6,233.7 131.9,233.7 135.2,228.4 138.4,228.4 141.7,228.4 144.9,228.4 148.2,228.4 151.5,228.4 154.7,228.4 158.0,228.4 161.2,228.4 164.5,228.4 167.7,228.4 171.0,228.4 174.3,228.4 177.5,228.4 180.8,187.0 184.0,185.4 187.3,184.8 190.6,180.1 193.8,179.9 197.1,179.3 200.3,179.3 203.6,179.3 206.8,178.2 210.1,178.2 213.4,178.2 216.6,177.6 219.9,176.8 223.1,176.3 226.4,176.0 229.6,175.7 232.9,175.4 236.2,172.7 239.4,172.4 242.7,172.1 245.9,171.9 249.2,171.9 252.5,171.6 255.7,171.3 259.0,171.0 262.2,171.0 265.5,171.0 268.7,170.7 272.0,170.5 275.3,170.2 278.5,169.9 281.8,169.6 285.0,169.4 288.3,169.1 291.6,169.1 294.8,169.1 298.1,168.8 301.3,168.5 304.6,168.3 307.8,168.0 311.1,167.7 314.4,167.4 317.6,167.2 320.9,166.9 324.1,166.9 327.4,166.1 330.7,165.2 333.9,165.0 337.2,164.7 340.4,164.4 343.7,164.1 346.9,163.8 350.2,163.6 353.5,163.3 356.7,163.3 360.0,163.0 363.2,162.7 366.5,162.5 369.8,162.5 373.0,162.2 376.3,161.9 379.5,161.6 382.8,161.4 386.0,161.1 389.3,160.8 392.6,160.5 395.8,159.7 399.1,159.4 402.3,159.2 405.6,158.9 408.8,158.6 412.1,158.6 415.4,158.3 418.6,158.1 421.9,158.1 425.1,158.1 428.4,157.8 431.7,157.5 434.9,157.2 438.2,156.9 441.4,156.7 444.7,156.7 447.9,156.4 451.2,156.1 454.5,156.1 457.7,155.8 461.0,155.6 464.2,155.6 467.5,155.3 470.8,155.0 474.0,154.7 477.3,154.7 480.5,153.4 483.8,152.8 487.0,152.5 490.3,152.5 493.6,152.5 496.8,152.0 500.1,151.4 503.3,151.4 506.6,151.2 509.9,151.2 513.1,150.6 516.4,150.3 519.6,150.0 522.9,149.5 526.1,148.9 529.4,148.9 532.7,148.4 535.9,148.1 539.2,147.6 542.4,147.0 545.7,146.5 548.9,146.2 552.2,146.2 555.5,145.9 558.7,145.6 562.0,145.4 565.2,145.4 568.5,145.4 571.8,145.1 575.0,144.8 578.3,144.5 581.5,144.3 584.8,144.3 588.0,144.0 591.3,143.7 594.6,143.4 597.8,143.4 601.1,143.1 604.3,142.9 607.6,142.3 610.9,142.0 614.1,141.8 617.4,141.2 620.6,140.9 623.9,140.4 627.1,140.1 630.4,139.8 633.7,139.8 636.9,139.3 640.2,139.3 643.4,138.7 646.7,138.5 650.0,138.5 653.2,138.2 656.5,137.9 659.7,137.6 663.0,137.1 666.2,136.8 669.5,136.5 672.8,136.2 676.0,136.0 679.3,136.0 682.5,135.7 685.8,135.4 689.1,135.1 692.3,134.9 695.6,134.6 698.8,134.3 702.1,134.0 705.3,133.8 708.6,133.5 711.9,133.2 715.1,132.9 718.4,132.7 721.6,132.7 724.9,132.4 728.1,132.1 731.4,131.8 734.7,131.3 737.9,131.0 741.2,131.0 744.4,130.7 747.7,130.5 751.0,130.2 754.2,130.2 757.5,130.2 760.7,129.9 764.0,129.6 767.2,129.3 770.5,129.1 773.8,128.8 777.0,128.5 780.3,128.2 783.5,128.2 786.8,128.0 790.1,128.0 793.3,127.7 796.6,127.7 799.8,127.4 803.1,127.4 806.3,127.1 809.6,126.9 812.9,126.6 816.1,126.0 819.4,125.8 822.6,125.5 825.9,125.5 829.2,124.9 832.4,124.7 835.7,124.7 838.9,124.4 842.2,124.4 845.4,123.8 848.7,123.6 852.0,123.3 855.2,123.3 858.5,123.0 861.7,122.7 865.0,122.2 868.2,121.9 871.5,121.3 874.8,121.3 878.0,121.1 881.3,120.5 884.5,120.5 887.8,120.0 891.1,119.7 894.3,119.1 897.6,118.9 900.8,118.3 904.1,117.8 907.3,117.5 910.6,117.2 913.9,116.9 917.1,116.7 920.4,116.4 923.6,116.1 926.9,115.5 930.2,115.0 933.4,114.7 936.7,114.4 939.9,113.9 943.2,113.6 946.4,113.6 949.7,113.3 953.0,113.1 956.2,112.8 959.5,112.5 962.7,112.2 966.0,112.0 969.3,111.7 972.5,111.7 975.8,111.4 979.0,110.9 982.3,110.3 985.5,109.8 988.8,109.2 992.1,108.9 995.3,108.6 998.6,108.4 1001.8,108.1 1005.1,107.8 1008.4,107.5 1011.6,107.3 1014.9,107.3 1018.1,107.0 1021.4,106.7 1024.6,106.4 1027.9,106.2 1031.2,105.9 1034.4,105.3 1037.7,105.1 1040.9,104.8 1044.2,104.5 1047.4,104.2 1050.7,104.0 1054.0,103.7 1057.2,103.4 1060.5,103.1 1063.7,102.9 1067.0,102.9 1070.3,102.0 1073.5,101.2 1076.8,100.6 1080.0,100.4 1083.3,100.1 1086.5,99.3 1089.8,99.0 1093.1,99.0 1096.3,98.4 1099.6,98.2 1102.8,97.9 1106.1,97.6 1109.4,97.3 1112.6,97.1 1115.9,96.8 1119.1,96.2 1122.4,96.0 1125.6,95.7 1128.9,95.4 1132.2,95.1 1135.4,94.8 1138.7,94.6 1141.9,94.0 1145.2,93.7 1148.5,93.2 1151.7,92.9 1155.0,92.6 1158.2,92.4 1161.5,92.1 1164.7,91.8 1168.0,91.5" fill="none" stroke="#7c5cff" stroke-width="3" stroke-linejoin="round" stroke-linecap="round"/><polyline points="70.0,147.0 73.3,140.1 76.5,119.4 79.8,120.2 83.0,119.1 86.3,118.9 89.5,117.2 92.8,117.5 96.1,116.9 99.3,117.8 102.6,117.2 105.8,117.8 109.1,116.9 112.4,116.9 115.6,116.9 118.9,117.8 122.1,117.2 125.4,116.9 128.6,113.3 131.9,114.2 135.2,111.1 138.4,111.4 141.7,111.1 144.9,111.1 148.2,110.9 151.5,111.4 154.7,110.9 158.0,111.7 161.2,111.1 164.5,111.1 167.7,111.1 171.0,110.6 174.3,110.3 177.5,110.6 180.8,109.8 184.0,109.8 187.3,109.8 190.6,109.8 193.8,109.8 197.1,109.8 200.3,109.8 203.6,109.8 206.8,109.8 210.1,109.8 213.4,109.8 216.6,109.8 219.9,109.8 223.1,109.8 226.4,109.8 229.6,109.8 232.9,109.8 236.2,109.8 239.4,109.8 242.7,109.8 245.9,110.6 249.2,110.6 252.5,110.6 255.7,110.6 259.0,110.6 262.2,110.6 265.5,110.6 268.7,110.6 272.0,110.6 275.3,110.6 278.5,110.6 281.8,110.6 285.0,110.6 288.3,110.6 291.6,110.6 294.8,110.6 298.1,110.6 301.3,110.6 304.6,110.6 307.8,110.6 311.1,110.6 314.4,110.6 317.6,110.6 320.9,110.6 324.1,110.6 327.4,110.6 330.7,110.6 333.9,110.6 337.2,110.6 340.4,110.6 343.7,110.6 346.9,110.6 350.2,110.6 353.5,110.6 356.7,110.6 360.0,110.6 363.2,110.6 366.5,110.6 369.8,110.6 373.0,110.6 376.3,110.6 379.5,110.6 382.8,110.6 386.0,110.6 389.3,110.6 392.6,110.6 395.8,110.6 399.1,110.6 402.3,110.6 405.6,110.6 408.8,110.6 412.1,110.6 415.4,110.6 418.6,110.6 421.9,110.6 425.1,110.6 428.4,110.6 431.7,110.6 434.9,110.6 438.2,110.6 441.4,110.6 444.7,110.6 447.9,110.6 451.2,110.6 454.5,110.6 457.7,110.6 461.0,110.6 464.2,110.6 467.5,110.6 470.8,110.6 474.0,110.6 477.3,110.6 480.5,110.6 483.8,110.6 487.0,110.6 490.3,110.6 493.6,110.6 496.8,110.6 500.1,110.6 503.3,110.6 506.6,110.6 509.9,110.6 513.1,110.6 516.4,110.6 519.6,110.6 522.9,110.6 526.1,110.6 529.4,110.6 532.7,110.6 535.9,110.6 539.2,110.6 542.4,110.6 545.7,110.6 548.9,110.6 552.2,110.6 555.5,110.6 558.7,110.6 562.0,110.6 565.2,110.6 568.5,110.6 571.8,110.6 575.0,110.6 578.3,110.6 581.5,110.6 584.8,110.6 588.0,110.6 591.3,110.6 594.6,110.6 597.8,110.6 601.1,110.6 604.3,110.6 607.6,110.6 610.9,110.6 614.1,110.6 617.4,110.6 620.6,110.6 623.9,110.6 627.1,110.6 630.4,110.6 633.7,110.6 636.9,110.6 640.2,110.6 643.4,110.6 646.7,110.6 650.0,110.6 653.2,110.6 656.5,110.6 659.7,110.6 663.0,110.6 666.2,110.6 669.5,110.6 672.8,110.6 676.0,110.6 679.3,110.6 682.5,110.6 685.8,110.6 689.1,110.6 692.3,110.6 695.6,110.6 698.8,110.6 702.1,110.6 705.3,110.6 708.6,110.6 711.9,110.6 715.1,110.6 718.4,110.6 721.6,110.6 724.9,110.6 728.1,110.6 731.4,110.6 734.7,110.6 737.9,110.6 741.2,110.6 744.4,110.6 747.7,110.6 751.0,110.6 754.2,110.6 757.5,110.6 760.7,110.6 764.0,110.6 767.2,110.6 770.5,110.6 773.8,110.6 777.0,110.6 780.3,110.6 783.5,110.6 786.8,110.6 790.1,110.6 793.3,110.6 796.6,110.6 799.8,110.6 803.1,110.6 806.3,110.6 809.6,110.6 812.9,110.6 816.1,110.6 819.4,110.6 822.6,110.6 825.9,110.6 829.2,110.6 832.4,110.6 835.7,110.6 838.9,110.6 842.2,110.6 845.4,110.6 848.7,110.6 852.0,110.6 855.2,110.6 858.5,110.6 861.7,110.6 865.0,110.6 868.2,110.6 871.5,110.6 874.8,110.6 878.0,110.6 881.3,110.6 884.5,110.6 887.8,110.6 891.1,110.6 894.3,110.6 897.6,110.6 900.8,110.6 904.1,110.6 907.3,110.6 910.6,110.6 913.9,110.6 917.1,110.6 920.4,110.6 923.6,110.6 926.9,110.6 930.2,110.6 933.4,110.6 936.7,110.6 939.9,110.6 943.2,110.6 946.4,110.6 949.7,110.6 953.0,110.6 956.2,110.6 959.5,110.6 962.7,110.6 966.0,110.6 969.3,110.6 972.5,110.6 975.8,110.6 979.0,110.6 982.3,110.6 985.5,110.6 988.8,110.6 992.1,110.6 995.3,110.6 998.6,110.6 1001.8,110.6 1005.1,110.6 1008.4,110.6 1011.6,110.6 1014.9,110.6 1018.1,110.6 1021.4,110.6 1024.6,110.6 1027.9,110.6 1031.2,110.6 1034.4,110.6 1037.7,110.6 1040.9,110.6 1044.2,110.6 1047.4,110.6 1050.7,110.6 1054.0,110.6 1057.2,110.6 1060.5,110.6 1063.7,110.6 1067.0,110.6 1070.3,110.6 1073.5,110.6 1076.8,110.6 1080.0,110.6 1083.3,110.6 1086.5,110.6 1089.8,110.6 1093.1,110.6 1096.3,110.6 1099.6,110.6 1102.8,110.6 1106.1,110.6 1109.4,110.6 1112.6,110.6 1115.9,110.6 1119.1,110.6 1122.4,110.6 1125.6,110.6 1128.9,110.6 1132.2,110.6 1135.4,110.6 1138.7,110.6 1141.9,110.6 1145.2,110.6 1148.5,110.6 1151.7,110.6 1155.0,110.6 1158.2,110.6 1161.5,110.6 1164.7,110.6 1168.0,110.6" fill="none" stroke="#00a7a5" stroke-width="3" stroke-linejoin="round" stroke-linecap="round"/><polyline points="70.0,310.7 73.3,307.9 76.5,305.2 79.8,305.2 83.0,296.9 86.3,302.4 89.5,296.9 92.8,296.9 96.1,288.6 99.3,291.4 102.6,288.6 105.8,294.1 109.1,291.4 112.4,294.1 115.6,288.6 118.9,291.4 122.1,288.6 125.4,294.1 128.6,291.4 131.9,299.6 135.2,294.1 138.4,294.1 141.7,291.4 144.9,291.4 148.2,288.6 151.5,294.1 154.7,291.4 158.0,291.4 161.2,288.6 164.5,294.1 167.7,291.4 171.0,296.9 174.3,294.1 177.5,294.1 180.8,285.8 184.0,283.1 187.3,280.3 190.6,277.6 193.8,274.8 197.1,272.0 200.3,269.3 203.6,266.5 206.8,263.8 210.1,263.8 213.4,263.8 216.6,261.0 219.9,258.2 223.1,255.5 226.4,255.5 229.6,252.7 232.9,250.0 236.2,247.2 239.4,244.4 242.7,241.7 245.9,238.9 249.2,238.9 252.5,236.2 255.7,233.4 259.0,230.6 262.2,230.6 265.5,230.6 268.7,227.9 272.0,227.9 275.3,227.6 278.5,227.3 281.8,227.1 285.0,226.8 288.3,226.5 291.6,226.5 294.8,226.5 298.1,226.2 301.3,225.9 304.6,225.7 307.8,225.4 311.1,225.1 314.4,224.8 317.6,224.6 320.9,224.3 324.1,224.3 327.4,224.0 330.7,223.7 333.9,223.5 337.2,223.2 340.4,222.9 343.7,222.6 346.9,222.4 350.2,222.1 353.5,221.8 356.7,221.8 360.0,221.5 363.2,221.3 366.5,221.0 369.8,221.0 373.0,220.7 376.3,220.4 379.5,220.2 382.8,219.9 386.0,219.6 389.3,219.3 392.6,219.0 395.8,218.5 399.1,218.2 402.3,217.9 405.6,217.7 408.8,217.4 412.1,217.4 415.4,217.1 418.6,216.8 421.9,216.8 425.1,216.8 428.4,216.3 431.7,216.0 434.9,215.7 438.2,215.5 441.4,215.2 444.7,215.2 447.9,214.9 451.2,214.6 454.5,214.6 457.7,213.8 461.0,213.5 464.2,213.5 467.5,213.3 470.8,213.0 474.0,212.7 477.3,212.7 480.5,212.4 483.8,211.3 487.0,211.0 490.3,211.0 493.6,211.0 496.8,209.9 500.1,209.4 503.3,209.1 506.6,208.8 509.9,208.8 513.1,208.6 516.4,208.3 519.6,208.0 522.9,206.9 526.1,206.4 529.4,206.4 532.7,205.8 535.9,205.5 539.2,205.2 542.4,204.4 545.7,204.1 548.9,203.9 552.2,203.9 555.5,203.6 558.7,203.3 562.0,203.0 565.2,203.0 568.5,203.0 571.8,202.8 575.0,202.5 578.3,202.2 581.5,201.9 584.8,201.9 588.0,201.7 591.3,200.8 594.6,200.3 597.8,200.3 601.1,200.0 604.3,199.7 607.6,199.2 610.9,198.9 614.1,198.6 617.4,198.1 620.6,197.8 623.9,197.2 627.1,197.0 630.4,196.7 633.7,196.7 636.9,196.1 640.2,196.1 643.4,193.9 646.7,193.7 650.0,193.7 653.2,193.4 656.5,193.1 659.7,192.6 663.0,192.0 666.2,191.7 669.5,191.4 672.8,191.2 676.0,190.9 679.3,190.9 682.5,190.6 685.8,190.1 689.1,189.5 692.3,188.1 695.6,186.2 698.8,185.4 702.1,185.1 705.3,184.8 708.6,184.5 711.9,183.2 715.1,182.9 718.4,181.8 721.6,181.8 724.9,181.0 728.1,180.7 731.4,179.9 734.7,179.0 737.9,178.5 741.2,178.5 744.4,177.9 747.7,177.6 751.0,177.1 754.2,177.1 757.5,177.1 760.7,176.5 764.0,176.3 767.2,175.7 770.5,175.4 773.8,174.9 777.0,174.3 780.3,174.1 783.5,174.1 786.8,173.5 790.1,173.5 793.3,173.2 796.6,173.2 799.8,173.0 803.1,173.0 806.3,172.7 809.6,172.4 812.9,172.1 816.1,171.6 819.4,171.3 822.6,171.0 825.9,171.0 829.2,170.2 832.4,169.9 835.7,169.9 838.9,169.6 842.2,169.6 845.4,169.1 848.7,168.8 852.0,168.5 855.2,168.5 858.5,168.3 861.7,168.0 865.0,167.4 868.2,167.2 871.5,166.6 874.8,166.6 878.0,166.3 881.3,165.8 884.5,165.8 887.8,165.2 891.1,165.0 894.3,164.4 897.6,164.1 900.8,163.6 904.1,163.0 907.3,162.7 910.6,162.5 913.9,162.2 917.1,161.9 920.4,161.6 923.6,161.4 926.9,160.8 930.2,160.3 933.4,160.0 936.7,159.7 939.9,159.2 943.2,158.9 946.4,158.9 949.7,158.6 953.0,158.3 956.2,158.1 959.5,157.8 962.7,157.5 966.0,157.2 969.3,156.9 972.5,156.9 975.8,156.7 979.0,156.1 982.3,155.6 985.5,155.0 988.8,154.5 992.1,154.2 995.3,153.9 998.6,153.6 1001.8,153.4 1005.1,153.1 1008.4,152.8 1011.6,152.5 1014.9,152.5 1018.1,152.3 1021.4,152.0 1024.6,151.7 1027.9,151.4 1031.2,151.2 1034.4,150.6 1037.7,150.3 1040.9,150.0 1044.2,149.8 1047.4,149.5 1050.7,149.2 1054.0,148.9 1057.2,148.7 1060.5,148.4 1063.7,148.1 1067.0,148.1 1070.3,147.8 1073.5,147.6 1076.8,147.3 1080.0,147.0 1083.3,146.7 1086.5,146.5 1089.8,146.2 1093.1,146.2 1096.3,145.9 1099.6,145.6 1102.8,145.4 1106.1,145.1 1109.4,144.8 1112.6,144.5 1115.9,144.3 1119.1,143.7 1122.4,143.4 1125.6,143.1 1128.9,142.9 1132.2,142.6 1135.4,142.3 1138.7,142.0 1141.9,141.5 1145.2,141.2 1148.5,140.7 1151.7,140.4 1155.0,140.1 1158.2,139.8 1161.5,139.6 1164.7,139.3 1168.0,139.0" fill="none" stroke="#e6a700" stroke-width="3" stroke-linejoin="round" stroke-linecap="round"/><polyline points="70.0,92.6 73.3,84.4 76.5,76.1 79.8,76.1 83.0,67.8 86.3,67.8 89.5,65.0 92.8,65.0 96.1,62.3 99.3,70.6 102.6,65.0 105.8,65.0 109.1,65.0 112.4,67.8 115.6,62.3 118.9,70.6 122.1,65.0 125.4,65.0 128.6,65.0 131.9,62.3 135.2,59.5 138.4,70.6 141.7,67.8 144.9,67.8 148.2,62.3 151.5,62.3 154.7,62.3 158.0,59.5 161.2,59.5 164.5,62.3 167.7,59.5 171.0,59.5 174.3,59.5 177.5,67.8 180.8,65.0 184.0,65.0 187.3,65.0 190.6,65.0 193.8,65.0 197.1,65.0 200.3,65.0 203.6,65.0 206.8,65.0 210.1,65.0 213.4,65.0 216.6,65.0 219.9,65.0 223.1,65.0 226.4,65.0 229.6,65.0 232.9,65.0 236.2,65.0 239.4,65.0 242.7,65.0 245.9,65.0 249.2,65.0 252.5,65.0 255.7,65.0 259.0,65.0 262.2,65.0 265.5,65.0 268.7,65.0 272.0,65.0 275.3,65.0 278.5,65.0 281.8,65.0 285.0,65.0 288.3,65.0 291.6,62.3 294.8,62.3 298.1,62.3 301.3,62.3 304.6,62.3 307.8,62.3 311.1,62.3 314.4,62.3 317.6,62.3 320.9,62.3 324.1,62.3 327.4,62.3 330.7,62.3 333.9,62.3 337.2,62.3 340.4,62.3 343.7,62.3 346.9,62.3 350.2,62.3 353.5,62.3 356.7,62.3 360.0,62.3 363.2,62.3 366.5,62.3 369.8,62.3 373.0,62.3 376.3,62.3 379.5,62.3 382.8,62.3 386.0,62.3 389.3,62.3 392.6,62.3 395.8,62.3 399.1,62.3 402.3,62.3 405.6,62.3 408.8,62.3 412.1,62.3 415.4,62.3 418.6,62.3 421.9,62.3 425.1,59.5 428.4,59.5 431.7,59.5 434.9,59.5 438.2,59.5 441.4,59.5 444.7,59.5 447.9,59.5 451.2,59.5 454.5,59.5 457.7,59.5 461.0,59.5 464.2,59.5 467.5,59.5 470.8,59.5 474.0,59.5 477.3,59.5 480.5,59.5 483.8,59.5 487.0,59.5 490.3,59.5 493.6,59.5 496.8,59.5 500.1,59.5 503.3,59.5 506.6,59.5 509.9,59.5 513.1,59.5 516.4,59.5 519.6,59.5 522.9,59.5 526.1,59.5 529.4,59.5 532.7,59.5 535.9,59.5 539.2,59.5 542.4,59.5 545.7,59.5 548.9,59.5 552.2,59.5 555.5,59.5 558.7,59.5 562.0,59.5 565.2,59.5 568.5,59.5 571.8,59.5 575.0,59.5 578.3,59.5 581.5,59.5 584.8,59.5 588.0,59.5 591.3,59.5 594.6,59.5 597.8,59.5 601.1,59.5 604.3,59.5 607.6,59.5 610.9,59.5 614.1,59.5 617.4,59.5 620.6,59.5 623.9,59.5 627.1,59.5 630.4,59.5 633.7,59.5 636.9,59.5 640.2,59.5 643.4,59.5 646.7,59.5 650.0,59.5 653.2,59.5 656.5,59.5 659.7,59.5 663.0,59.5 666.2,59.5 669.5,59.5 672.8,59.5 676.0,59.5 679.3,59.5 682.5,59.5 685.8,59.5 689.1,59.5 692.3,59.5 695.6,59.5 698.8,59.5 702.1,59.5 705.3,59.5 708.6,59.5 711.9,59.5 715.1,59.5 718.4,59.5 721.6,59.5 724.9,59.5 728.1,59.5 731.4,59.5 734.7,59.5 737.9,59.5 741.2,59.5 744.4,59.5 747.7,59.5 751.0,59.5 754.2,59.5 757.5,59.5 760.7,59.5 764.0,59.5 767.2,59.5 770.5,59.5 773.8,59.5 777.0,59.5 780.3,59.5 783.5,59.5 786.8,59.5 790.1,59.5 793.3,59.5 796.6,59.5 799.8,59.5 803.1,59.5 806.3,59.5 809.6,59.5 812.9,59.5 816.1,59.5 819.4,59.5 822.6,59.5 825.9,59.5 829.2,59.5 832.4,59.5 835.7,59.5 838.9,59.5 842.2,59.5 845.4,59.5 848.7,59.5 852.0,59.5 855.2,59.5 858.5,59.5 861.7,59.5 865.0,59.5 868.2,59.5 871.5,59.5 874.8,59.5 878.0,59.5 881.3,59.5 884.5,59.5 887.8,59.5 891.1,59.5 894.3,59.5 897.6,59.5 900.8,59.5 904.1,59.5 907.3,59.5 910.6,59.5 913.9,59.5 917.1,59.5 920.4,59.5 923.6,59.5 926.9,59.5 930.2,59.5 933.4,59.5 936.7,59.5 939.9,59.5 943.2,59.5 946.4,59.5 949.7,59.5 953.0,59.5 956.2,59.5 959.5,59.5 962.7,59.5 966.0,59.5 969.3,59.5 972.5,59.5 975.8,59.5 979.0,59.5 982.3,59.5 985.5,59.5 988.8,59.5 992.1,59.5 995.3,59.5 998.6,59.5 1001.8,59.5 1005.1,59.5 1008.4,59.5 1011.6,59.5 1014.9,59.5 1018.1,59.5 1021.4,59.5 1024.6,59.5 1027.9,59.5 1031.2,59.5 1034.4,56.8 1037.7,56.8 1040.9,56.8 1044.2,56.8 1047.4,56.8 1050.7,56.8 1054.0,56.8 1057.2,56.8 1060.5,56.8 1063.7,56.8 1067.0,56.8 1070.3,56.8 1073.5,56.8 1076.8,56.8 1080.0,56.8 1083.3,56.8 1086.5,56.8 1089.8,56.8 1093.1,56.8 1096.3,56.8 1099.6,56.8 1102.8,56.8 1106.1,56.8 1109.4,56.8 1112.6,56.8 1115.9,56.8 1119.1,56.8 1122.4,56.8 1125.6,56.8 1128.9,56.8 1132.2,56.8 1135.4,56.8 1138.7,56.8 1141.9,56.8 1145.2,56.8 1148.5,56.8 1151.7,56.8 1155.0,56.8 1158.2,56.8 1161.5,56.8 1164.7,56.8 1168.0,56.8" fill="none" stroke="#d94f8a" stroke-width="3" stroke-linejoin="round" stroke-linecap="round"/><polyline points="70.0,233.4 73.3,225.1 76.5,219.6 79.8,219.6 83.0,205.8 86.3,233.4 89.5,205.8 92.8,214.1 96.1,205.8 99.3,203.0 102.6,200.3 105.8,200.3 109.1,197.5 112.4,208.6 115.6,200.3 118.9,200.3 122.1,197.5 125.4,203.0 128.6,200.3 131.9,194.8 135.2,175.4 138.4,203.0 141.7,200.3 144.9,203.0 148.2,197.5 151.5,203.0 154.7,197.5 158.0,203.0 161.2,197.5 164.5,200.3 167.7,200.3 171.0,181.0 174.3,181.0 177.5,200.3 180.8,186.5 184.0,183.7 187.3,183.7 190.6,181.0 193.8,181.0 197.1,181.0 200.3,181.0 203.6,181.0 206.8,181.0 210.1,181.0 213.4,181.0 216.6,181.0 219.9,181.0 223.1,181.0 226.4,181.0 229.6,181.0 232.9,181.0 236.2,181.0 239.4,181.0 242.7,181.0 245.9,178.2 249.2,178.2 252.5,178.2 255.7,178.2 259.0,178.2 262.2,175.4 265.5,175.4 268.7,175.4 272.0,175.4 275.3,175.4 278.5,175.4 281.8,175.4 285.0,172.7 288.3,172.7 291.6,169.9 294.8,169.9 298.1,169.9 301.3,169.9 304.6,169.9 307.8,169.9 311.1,169.9 314.4,169.9 317.6,169.9 320.9,169.9 324.1,167.2 327.4,167.2 330.7,167.2 333.9,167.2 337.2,167.2 340.4,167.2 343.7,167.2 346.9,167.2 350.2,167.2 353.5,167.2 356.7,164.4 360.0,164.4 363.2,175.4 366.5,175.4 369.8,172.7 373.0,172.7 376.3,172.7 379.5,172.7 382.8,172.7 386.0,172.7 389.3,172.7 392.6,172.7 395.8,172.7 399.1,172.7 402.3,175.4 405.6,175.4 408.8,175.4 412.1,172.7 415.4,172.7 418.6,172.7 421.9,169.9 425.1,167.2 428.4,167.2 431.7,167.2 434.9,167.2 438.2,167.2 441.4,167.2 444.7,164.4 447.9,164.4 451.2,164.4 454.5,161.6 457.7,161.6 461.0,164.4 464.2,161.6 467.5,161.6 470.8,161.6 474.0,164.4 477.3,161.6 480.5,161.6 483.8,161.6 487.0,161.6 490.3,161.6 493.6,158.9 496.8,158.9 500.1,158.9 503.3,158.9 506.6,158.9 509.9,156.1 513.1,153.4 516.4,153.4 519.6,153.4 522.9,153.4 526.1,153.4 529.4,150.6 532.7,150.6 535.9,150.6 539.2,150.6 542.4,150.6 545.7,150.6 548.9,150.6 552.2,147.8 555.5,147.8 558.7,147.8 562.0,147.8 565.2,146.5 568.5,145.1 571.8,145.1 575.0,145.1 578.3,145.1 581.5,145.1 584.8,143.7 588.0,143.7 591.3,142.3 594.6,142.3 597.8,140.9 601.1,140.9 604.3,140.9 607.6,140.9 610.9,140.9 614.1,140.9 617.4,140.9 620.6,140.9 623.9,140.9 627.1,140.9 630.4,140.9 633.7,140.7 636.9,138.7 640.2,137.9 643.4,137.9 646.7,137.9 650.0,136.8 653.2,136.8 656.5,136.8 659.7,136.8 663.0,136.8 666.2,136.8 669.5,136.8 672.8,136.8 676.0,136.8 679.3,136.8 682.5,136.8 685.8,136.8 689.1,136.8 692.3,136.8 695.6,136.8 698.8,136.8 702.1,136.8 705.3,136.8 708.6,136.8 711.9,136.8 715.1,136.8 718.4,136.8 721.6,134.0 724.9,134.0 728.1,134.0 731.4,134.0 734.7,131.3 737.9,131.3 741.2,131.3 744.4,128.5 747.7,125.8 751.0,123.0 754.2,120.2 757.5,120.2 760.7,120.2 764.0,120.2 767.2,120.2 770.5,120.2 773.8,120.2 777.0,120.2 780.3,120.2 783.5,117.5 786.8,117.5 790.1,114.7 793.3,112.0 796.6,109.2 799.8,109.2 803.1,106.4 806.3,106.4 809.6,106.4 812.9,106.4 816.1,106.4 819.4,106.4 822.6,106.4 825.9,103.7 829.2,103.7 832.4,100.9 835.7,100.9 838.9,100.9 842.2,100.9 845.4,100.9 848.7,100.9 852.0,98.2 855.2,95.4 858.5,92.6 861.7,89.9 865.0,89.9 868.2,89.9 871.5,87.1 874.8,84.4 878.0,81.6 881.3,81.6 884.5,81.6 887.8,81.6 891.1,81.6 894.3,81.6 897.6,81.6 900.8,81.6 904.1,81.6 907.3,81.6 910.6,81.6 913.9,81.6 917.1,81.6 920.4,81.6 923.6,81.6 926.9,81.6 930.2,81.6 933.4,81.6 936.7,81.6 939.9,81.6 943.2,81.6 946.4,80.2 949.7,80.2 953.0,80.2 956.2,80.2 959.5,80.2 962.7,79.9 966.0,79.9 969.3,79.9 972.5,79.7 975.8,79.7 979.0,79.7 982.3,79.7 985.5,79.7 988.8,79.7 992.1,79.7 995.3,79.7 998.6,79.7 1001.8,79.7 1005.1,79.7 1008.4,79.7 1011.6,79.7 1014.9,78.6 1018.1,78.3 1021.4,78.0 1024.6,77.7 1027.9,77.5 1031.2,77.2 1034.4,76.9 1037.7,76.6 1040.9,76.4 1044.2,76.1 1047.4,75.8 1050.7,75.5 1054.0,75.3 1057.2,75.0 1060.5,74.7 1063.7,74.7 1067.0,74.7 1070.3,74.7 1073.5,74.7 1076.8,74.7 1080.0,74.7 1083.3,74.7 1086.5,74.7 1089.8,74.1 1093.1,73.9 1096.3,73.6 1099.6,73.0 1102.8,72.8 1106.1,72.5 1109.4,72.2 1112.6,71.9 1115.9,71.7 1119.1,71.4 1122.4,71.1 1125.6,70.8 1128.9,70.6 1132.2,70.6 1135.4,70.6 1138.7,70.6 1141.9,70.6 1145.2,70.6 1148.5,70.6 1151.7,67.8 1155.0,65.0 1158.2,65.0 1161.5,65.0 1164.7,65.0 1168.0,65.0" fill="none" stroke="#2589bd" stroke-width="3" stroke-linejoin="round" stroke-linecap="round"/><text x="70" y="358" text-anchor="middle" class="axis">base 69d858a</text><text x="226.39169139465875" y="358" text-anchor="middle" class="axis">PR #52</text><text x="382.7833827893175" y="358" text-anchor="middle" class="axis">PR #105</text><text x="539.1750741839762" y="358" text-anchor="middle" class="axis">PR #157</text><text x="698.8249258160238" y="358" text-anchor="middle" class="axis">PR #209</text><text x="855.2166172106826" y="358" text-anchor="middle" class="axis">PR #352</text><text x="1011.6083086053412" y="358" text-anchor="middle" class="axis">PR #562</text><text x="1168" y="358" text-anchor="middle" class="axis">PR #749</text><line x1="70" y1="396" x2="96" y2="396" stroke="#ff6b35" stroke-width="4"/><text x="106" y="401" class="legend">Correctness parity</text><line x1="619" y1="396" x2="645" y2="396" stroke="#7c5cff" stroke-width="4"/><text x="655" y="401" class="legend">PyTorch feature coverage</text><line x1="70" y1="424" x2="96" y2="424" stroke="#00a7a5" stroke-width="4"/><text x="106" y="429" class="legend">Performance parity</text><line x1="619" y1="424" x2="645" y2="424" stroke="#e6a700" stroke-width="4"/><text x="655" y="429" class="legend">Python API compatibility</text><line x1="70" y1="452" x2="96" y2="452" stroke="#d94f8a" stroke-width="4"/><text x="106" y="457" class="legend">Benchmark integrity</text><line x1="619" y1="452" x2="645" y2="452" stroke="#2589bd" stroke-width="4"/><text x="655" y="457" class="legend">Sustainable architecture</text>
</svg>
