<svg xmlns="http://www.w3.org/2000/svg" width="1200" height="560" viewBox="0 0 1200 560" role="img" aria-labelledby="title desc">
<title id="title">Burner evaluation progress</title><desc id="desc">Time series of evaluation scores recorded at each Burner merge.</desc>
<style>text{font-family:ui-sans-serif,system-ui,-apple-system,BlinkMacSystemFont,"Segoe UI",sans-serif}.title{font-size:22px;font-weight:700;fill:#20242a}.axis{font-size:12px;fill:#59636e}.legend{font-size:13px;fill:#2f3740}.grid{stroke:#d8dee5;stroke-width:1}.plot{fill:#fff;stroke:#b7c0ca}</style>
<rect width="100%" height="100%" fill="#f8fafc" rx="14"/><text x="70" y="32" class="title">Burner evaluation progress</text>
<rect x="70" y="54" width="1098" height="276" class="plot"/><line x1="70" y1="330" x2="1168" y2="330" class="grid"/><text x="58" y="335" text-anchor="end" class="axis">0</text><line x1="70" y1="261" x2="1168" y2="261" class="grid"/><text x="58" y="266" text-anchor="end" class="axis">25</text><line x1="70" y1="192" x2="1168" y2="192" class="grid"/><text x="58" y="197" text-anchor="end" class="axis">50</text><line x1="70" y1="123" x2="1168" y2="123" class="grid"/><text x="58" y="128" text-anchor="end" class="axis">75</text><line x1="70" y1="54" x2="1168" y2="54" class="grid"/><text x="58" y="59" text-anchor="end" class="axis">100</text><polyline points="70.0,76.1 72.3,76.1 74.5,76.1 76.8,76.1 79.0,76.1 81.3,76.1 83.6,76.1 85.8,76.1 88.1,76.1 90.3,76.1 92.6,76.1 94.9,76.1 97.1,76.1 99.4,76.1 101.6,76.1 103.9,76.1 106.1,76.1 108.4,76.1 110.7,76.1 112.9,76.1 115.2,76.1 117.4,76.1 119.7,76.1 122.0,76.1 124.2,76.1 126.5,76.1 128.7,76.1 131.0,76.1 133.3,76.1 135.5,76.1 137.8,76.1 140.0,76.1 142.3,76.1 144.6,76.1 146.8,76.1 149.1,73.3 151.3,70.6 153.6,70.6 155.9,67.8 158.1,65.0 160.4,62.3 162.6,59.5 164.9,59.5 167.1,59.5 169.4,59.5 171.7,59.5 173.9,56.8 176.2,56.8 178.4,56.8 180.7,56.8 183.0,56.8 185.2,56.8 187.5,56.8 189.7,56.8 192.0,56.8 194.3,56.8 196.5,56.8 198.8,56.8 201.0,56.8 203.3,56.8 205.6,56.8 207.8,56.8 210.1,56.8 212.3,56.8 214.6,56.8 216.9,56.8 219.1,56.8 221.4,56.8 223.6,56.8 225.9,56.8 228.1,56.8 230.4,56.8 232.7,56.8 234.9,56.8 237.2,56.5 239.4,56.2 241.7,55.9 244.0,55.7 246.2,55.7 248.5,55.4 250.7,55.1 253.0,54.8 255.3,54.6 257.5,54.3 259.8,54.3 262.0,54.3 264.3,54.3 266.6,54.3 268.8,54.3 271.1,54.3 273.3,54.3 275.6,54.3 277.9,54.3 280.1,54.3 282.4,54.3 284.6,54.3 286.9,54.3 289.1,54.3 291.4,54.3 293.7,54.3 295.9,54.0 298.2,54.0 300.4,54.0 302.7,54.0 305.0,54.0 307.2,54.0 309.5,56.8 311.7,56.8 314.0,56.8 316.3,54.0 318.5,54.0 320.8,54.0 323.0,54.0 325.3,54.0 327.6,54.0 329.8,54.0 332.1,54.0 334.3,54.0 336.6,54.0 338.9,54.0 341.1,54.0 343.4,54.0 345.6,54.0 347.9,54.0 350.1,54.0 352.4,54.0 354.7,56.8 356.9,56.8 359.2,56.8 361.4,56.8 363.7,56.8 366.0,56.8 368.2,56.8 370.5,56.8 372.7,56.8 375.0,56.8 377.3,56.8 379.5,56.8 381.8,56.8 384.0,56.8 386.3,56.8 388.6,56.8 390.8,56.8 393.1,56.8 395.3,56.8 397.6,56.8 399.9,56.8 402.1,56.8 404.4,56.8 406.6,56.8 408.9,56.8 411.1,56.8 413.4,56.8 415.7,56.8 417.9,56.8 420.2,56.8 422.4,56.8 424.7,56.8 427.0,56.8 429.2,56.2 431.5,56.2 433.7,56.2 436.0,56.2 438.3,55.9 440.5,55.9 442.8,55.9 445.0,55.7 447.3,55.4 449.6,55.4 451.8,55.1 454.1,54.8 456.3,54.6 458.6,54.3 460.9,54.3 463.1,54.0 465.4,54.0 467.6,54.0 469.9,54.0 472.1,54.0 474.4,54.0 476.7,54.0 478.9,54.0 481.2,54.0 483.4,54.0 485.7,54.0 488.0,54.0 490.2,54.0 492.5,54.0 494.7,54.0 497.0,54.0 499.3,54.0 501.5,54.0 503.8,54.0 506.0,54.0 508.3,54.0 510.6,54.0 512.8,54.0 515.1,54.0 517.3,54.0 519.6,54.0 521.9,54.0 524.1,54.0 526.4,54.0 528.6,54.0 530.9,54.0 533.1,54.0 535.4,54.0 537.7,54.0 539.9,54.0 542.2,54.0 544.4,54.0 546.7,54.0 549.0,54.0 551.2,54.0 553.5,54.0 555.7,54.0 558.0,54.0 560.3,54.0 562.5,54.0 564.8,54.0 567.0,54.0 569.3,54.0 571.6,54.0 573.8,54.0 576.1,54.0 578.3,54.0 580.6,54.0 582.9,54.0 585.1,54.0 587.4,54.0 589.6,54.0 591.9,54.0 594.1,54.0 596.4,54.0 598.7,54.0 600.9,54.0 603.2,54.0 605.4,54.0 607.7,54.0 610.0,54.0 612.2,54.0 614.5,54.0 616.7,54.0 619.0,54.0 621.3,54.0 623.5,54.0 625.8,54.0 628.0,54.0 630.3,54.0 632.6,54.0 634.8,54.0 637.1,54.0 639.3,54.0 641.6,54.0 643.9,54.0 646.1,54.0 648.4,54.0 650.6,54.0 652.9,54.0 655.1,54.0 657.4,54.0 659.7,54.0 661.9,54.0 664.2,54.0 666.4,54.0 668.7,54.0 671.0,54.0 673.2,54.0 675.5,54.0 677.7,54.0 680.0,54.0 682.3,54.0 684.5,54.0 686.8,54.0 689.0,54.0 691.3,54.0 693.6,54.0 695.8,54.0 698.1,54.0 700.3,54.0 702.6,54.0 704.9,54.0 707.1,54.0 709.4,54.0 711.6,54.0 713.9,54.0 716.1,54.0 718.4,54.0 720.7,54.0 722.9,54.0 725.2,54.0 727.4,54.0 729.7,54.0 732.0,54.0 734.2,54.0 736.5,54.0 738.7,54.0 741.0,54.0 743.3,54.0 745.5,54.0 747.8,54.0 750.0,54.0 752.3,54.0 754.6,54.0 756.8,54.0 759.1,54.0 761.3,54.0 763.6,54.0 765.9,54.0 768.1,54.0 770.4,54.0 772.6,54.0 774.9,54.0 777.1,54.0 779.4,54.0 781.7,54.0 783.9,54.0 786.2,54.0 788.4,54.0 790.7,54.0 793.0,54.0 795.2,54.0 797.5,54.0 799.7,54.0 802.0,54.0 804.3,54.0 806.5,54.0 808.8,54.0 811.0,54.0 813.3,54.0 815.6,54.0 817.8,54.0 820.1,54.0 822.3,54.0 824.6,54.0 826.9,54.0 829.1,54.0 831.4,54.0 833.6,54.0 835.9,54.0 838.1,54.0 840.4,54.0 842.7,54.0 844.9,54.0 847.2,54.0 849.4,54.0 851.7,54.0 854.0,54.0 856.2,54.0 858.5,54.0 860.7,54.0 863.0,54.0 865.3,54.0 867.5,54.0 869.8,54.0 872.0,54.0 874.3,54.0 876.6,54.0 878.8,54.0 881.1,54.0 883.3,54.0 885.6,54.0 887.9,54.0 890.1,54.0 892.4,54.0 894.6,54.0 896.9,54.0 899.1,54.0 901.4,54.0 903.7,54.0 905.9,54.0 908.2,54.0 910.4,54.0 912.7,54.0 915.0,54.0 917.2,54.0 919.5,54.0 921.7,54.0 924.0,54.0 926.3,54.0 928.5,54.0 930.8,54.0 933.0,54.0 935.3,54.0 937.6,54.0 939.8,54.0 942.1,54.0 944.3,54.0 946.6,54.0 948.9,54.0 951.1,54.0 953.4,54.0 955.6,54.0 957.9,54.0 960.1,54.0 962.4,54.0 964.7,54.0 966.9,54.0 969.2,54.0 971.4,54.0 973.7,54.0 976.0,54.0 978.2,54.0 980.5,54.0 982.7,54.0 985.0,54.0 987.3,54.0 989.5,54.0 991.8,54.0 994.0,54.0 996.3,54.0 998.6,54.0 1000.8,54.0 1003.1,54.0 1005.3,54.0 1007.6,54.0 1009.9,54.0 1012.1,54.0 1014.4,54.0 1016.6,54.0 1018.9,54.0 1021.1,54.0 1023.4,54.0 1025.7,54.0 1027.9,54.0 1030.2,54.0 1032.4,54.0 1034.7,54.0 1037.0,54.0 1039.2,54.0 1041.5,54.0 1043.7,54.0 1046.0,54.0 1048.3,54.0 1050.5,54.0 1052.8,54.0 1055.0,54.0 1057.3,54.0 1059.6,54.0 1061.8,54.0 1064.1,54.0 1066.3,54.0 1068.6,54.0 1070.9,54.0 1073.1,54.0 1075.4,54.0 1077.6,54.0 1079.9,54.0 1082.1,54.0 1084.4,54.0 1086.7,54.0 1088.9,54.0 1091.2,54.0 1093.4,54.0 1095.7,54.0 1098.0,54.0 1100.2,54.0 1102.5,54.0 1104.7,54.0 1107.0,54.0 1109.3,54.0 1111.5,54.0 1113.8,54.0 1116.0,54.0 1118.3,54.0 1120.6,54.0 1122.8,54.0 1125.1,54.0 1127.3,54.0 1129.6,54.0 1131.9,54.0 1134.1,54.0 1136.4,54.0 1138.6,54.0 1140.9,54.0 1143.1,54.0 1145.4,54.0 1147.7,54.0 1149.9,54.0 1152.2,54.0 1154.4,54.0 1156.7,54.0 1159.0,54.0 1161.2,54.0 1163.5,54.0 1165.7,54.0 1168.0,54.0" fill="none" stroke="#ff6b35" stroke-width="3" stroke-linejoin="round" stroke-linecap="round"/><polyline points="70.0,280.0 72.3,277.0 74.5,270.7 76.8,270.7 79.0,264.3 81.3,264.3 83.6,253.8 85.8,253.8 88.1,248.3 90.3,248.3 92.6,245.3 94.9,245.3 97.1,242.0 99.4,242.0 101.6,236.7 103.9,236.7 106.1,236.7 108.4,236.7 110.7,233.7 112.9,233.7 115.2,228.4 117.4,228.4 119.7,228.4 122.0,228.4 124.2,228.4 126.5,228.4 128.7,228.4 131.0,228.4 133.3,228.4 135.5,228.4 137.8,228.4 140.0,228.4 142.3,228.4 144.6,228.4 146.8,187.0 149.1,185.4 151.3,184.8 153.6,180.1 155.9,179.9 158.1,179.3 160.4,179.3 162.6,179.3 164.9,178.2 167.1,178.2 169.4,178.2 171.7,177.6 173.9,176.8 176.2,176.3 178.4,176.0 180.7,175.7 183.0,175.4 185.2,172.7 187.5,172.4 189.7,172.1 192.0,171.9 194.3,171.9 196.5,171.6 198.8,171.3 201.0,171.0 203.3,171.0 205.6,171.0 207.8,170.7 210.1,170.5 212.3,170.2 214.6,169.9 216.9,169.6 219.1,169.4 221.4,169.1 223.6,169.1 225.9,169.1 228.1,168.8 230.4,168.5 232.7,168.3 234.9,168.0 237.2,167.7 239.4,167.4 241.7,167.2 244.0,166.9 246.2,166.9 248.5,166.1 250.7,165.2 253.0,165.0 255.3,164.7 257.5,164.4 259.8,164.1 262.0,163.8 264.3,163.6 266.6,163.3 268.8,163.3 271.1,163.0 273.3,162.7 275.6,162.5 277.9,162.5 280.1,162.2 282.4,161.9 284.6,161.6 286.9,161.4 289.1,161.1 291.4,160.8 293.7,160.5 295.9,159.7 298.2,159.4 300.4,159.2 302.7,158.9 305.0,158.6 307.2,158.6 309.5,158.3 311.7,158.1 314.0,158.1 316.3,158.1 318.5,157.8 320.8,157.5 323.0,157.2 325.3,156.9 327.6,156.7 329.8,156.7 332.1,156.4 334.3,156.1 336.6,156.1 338.9,155.8 341.1,155.6 343.4,155.6 345.6,155.3 347.9,155.0 350.1,154.7 352.4,154.7 354.7,153.4 356.9,152.8 359.2,152.5 361.4,152.5 363.7,152.5 366.0,152.0 368.2,151.4 370.5,151.4 372.7,151.2 375.0,151.2 377.3,150.6 379.5,150.3 381.8,150.0 384.0,149.5 386.3,148.9 388.6,148.9 390.8,148.4 393.1,148.1 395.3,147.6 397.6,147.0 399.9,146.5 402.1,146.2 404.4,146.2 406.6,145.9 408.9,145.6 411.1,145.4 413.4,145.4 415.7,145.4 417.9,145.1 420.2,144.8 422.4,144.5 424.7,144.3 427.0,144.3 429.2,144.0 431.5,143.7 433.7,143.4 436.0,143.4 438.3,143.1 440.5,142.9 442.8,142.3 445.0,142.0 447.3,141.8 449.6,141.2 451.8,140.9 454.1,140.4 456.3,140.1 458.6,139.8 460.9,139.8 463.1,139.3 465.4,139.3 467.6,138.7 469.9,138.5 472.1,138.5 474.4,138.2 476.7,137.9 478.9,137.6 481.2,137.1 483.4,136.8 485.7,136.5 488.0,136.2 490.2,136.0 492.5,136.0 494.7,135.7 497.0,135.4 499.3,135.1 501.5,134.9 503.8,134.6 506.0,134.3 508.3,134.0 510.6,133.8 512.8,133.5 515.1,133.2 517.3,132.9 519.6,132.7 521.9,132.7 524.1,132.4 526.4,132.1 528.6,131.8 530.9,131.3 533.1,131.0 535.4,131.0 537.7,130.7 539.9,130.5 542.2,130.2 544.4,130.2 546.7,130.2 549.0,129.9 551.2,129.6 553.5,129.3 555.7,129.1 558.0,128.8 560.3,128.5 562.5,128.2 564.8,128.2 567.0,128.0 569.3,128.0 571.6,127.7 573.8,127.7 576.1,127.4 578.3,127.4 580.6,127.1 582.9,126.9 585.1,126.6 587.4,126.0 589.6,125.8 591.9,125.5 594.1,125.5 596.4,124.9 598.7,124.7 600.9,124.7 603.2,124.4 605.4,124.4 607.7,123.8 610.0,123.6 612.2,123.3 614.5,123.3 616.7,123.0 619.0,122.7 621.3,122.2 623.5,121.9 625.8,121.3 628.0,121.3 630.3,121.1 632.6,120.5 634.8,120.5 637.1,120.0 639.3,119.7 641.6,119.1 643.9,118.9 646.1,118.3 648.4,117.8 650.6,117.5 652.9,117.2 655.1,116.9 657.4,116.7 659.7,116.4 661.9,116.1 664.2,115.5 666.4,115.0 668.7,114.7 671.0,114.4 673.2,113.9 675.5,113.6 677.7,113.6 680.0,113.3 682.3,113.1 684.5,112.8 686.8,112.5 689.0,112.2 691.3,112.0 693.6,111.7 695.8,111.7 698.1,111.4 700.3,110.9 702.6,110.3 704.9,109.8 707.1,109.2 709.4,108.9 711.6,108.6 713.9,108.4 716.1,108.1 718.4,107.8 720.7,107.5 722.9,107.3 725.2,107.3 727.4,107.0 729.7,106.7 732.0,106.4 734.2,106.2 736.5,105.9 738.7,105.3 741.0,105.1 743.3,104.8 745.5,104.5 747.8,104.2 750.0,104.0 752.3,103.7 754.6,103.4 756.8,103.1 759.1,102.9 761.3,102.9 763.6,102.0 765.9,101.2 768.1,100.6 770.4,100.4 772.6,100.1 774.9,99.3 777.1,99.0 779.4,99.0 781.7,98.4 783.9,98.2 786.2,97.9 788.4,97.6 790.7,97.3 793.0,97.1 795.2,96.8 797.5,96.2 799.7,96.0 802.0,95.7 804.3,95.4 806.5,95.1 808.8,94.8 811.0,94.6 813.3,94.0 815.6,93.7 817.8,93.2 820.1,92.9 822.3,92.6 824.6,92.4 826.9,92.1 829.1,91.8 831.4,91.5 833.6,91.3 835.9,91.0 838.1,90.7 840.4,90.2 842.7,89.9 844.9,89.6 847.2,89.3 849.4,89.1 851.7,88.8 854.0,88.5 856.2,87.9 858.5,87.7 860.7,87.4 863.0,87.1 865.3,86.8 867.5,86.6 869.8,86.3 872.0,86.0 874.3,85.7 876.6,85.5 878.8,85.2 881.1,84.9 883.3,84.6 885.6,84.4 887.9,84.1 890.1,83.8 892.4,83.5 894.6,82.7 896.9,82.4 899.1,82.2 901.4,81.9 903.7,81.6 905.9,81.3 908.2,81.0 910.4,80.8 912.7,80.2 915.0,79.9 917.2,79.4 919.5,78.8 921.7,78.6 924.0,78.3 926.3,78.0 928.5,77.7 930.8,77.5 933.0,77.2 935.3,76.9 937.6,76.6 939.8,76.4 942.1,76.1 944.3,75.8 946.6,75.5 948.9,75.3 951.1,75.0 953.4,74.7 955.6,74.4 957.9,74.1 960.1,73.9 962.4,73.6 964.7,73.3 966.9,73.3 969.2,73.0 971.4,72.8 973.7,72.5 976.0,72.2 978.2,71.9 980.5,71.7 982.7,71.4 985.0,71.1 987.3,70.8 989.5,70.6 991.8,70.3 994.0,70.0 996.3,69.5 998.6,69.2 1000.8,68.9 1003.1,68.6 1005.3,68.4 1007.6,68.1 1009.9,67.8 1012.1,67.5 1014.4,67.2 1016.6,67.0 1018.9,66.7 1021.1,66.4 1023.4,66.1 1025.7,65.9 1027.9,65.3 1030.2,65.0 1032.4,64.5 1034.7,64.2 1037.0,63.9 1039.2,63.4 1041.5,62.8 1043.7,62.6 1046.0,62.3 1048.3,62.0 1050.5,61.7 1052.8,61.5 1055.0,61.2 1057.3,60.9 1059.6,60.6 1061.8,60.3 1064.1,60.1 1066.3,59.8 1068.6,59.5 1070.9,59.2 1073.1,59.0 1075.4,58.7 1077.6,58.4 1079.9,58.1 1082.1,57.9 1084.4,57.6 1086.7,57.3 1088.9,57.0 1091.2,56.8 1093.4,56.5 1095.7,56.2 1098.0,55.9 1100.2,55.7 1102.5,54.8 1104.7,54.6 1107.0,54.3 1109.3,54.0 1111.5,54.0 1113.8,54.0 1116.0,54.0 1118.3,54.0 1120.6,54.0 1122.8,54.0 1125.1,54.0 1127.3,54.0 1129.6,54.0 1131.9,54.0 1134.1,54.0 1136.4,54.0 1138.6,54.0 1140.9,54.0 1143.1,54.0 1145.4,54.0 1147.7,54.0 1149.9,54.0 1152.2,54.0 1154.4,54.0 1156.7,54.0 1159.0,54.0 1161.2,54.0 1163.5,54.0 1165.7,54.0 1168.0,54.0" fill="none" stroke="#7c5cff" stroke-width="3" stroke-linejoin="round" stroke-linecap="round"/><polyline points="70.0,147.0 72.3,140.1 74.5,119.4 76.8,120.2 79.0,119.1 81.3,118.9 83.6,117.2 85.8,117.5 88.1,116.9 90.3,117.8 92.6,117.2 94.9,117.8 97.1,116.9 99.4,116.9 101.6,116.9 103.9,117.8 106.1,117.2 108.4,116.9 110.7,113.3 112.9,114.2 115.2,111.1 117.4,111.4 119.7,111.1 122.0,111.1 124.2,110.9 126.5,111.4 128.7,110.9 131.0,111.7 133.3,111.1 135.5,111.1 137.8,111.1 140.0,110.6 142.3,110.3 144.6,110.6 146.8,109.8 149.1,109.8 151.3,109.8 153.6,109.8 155.9,109.8 158.1,109.8 160.4,109.8 162.6,109.8 164.9,109.8 167.1,109.8 169.4,109.8 171.7,109.8 173.9,109.8 176.2,109.8 178.4,109.8 180.7,109.8 183.0,109.8 185.2,109.8 187.5,109.8 189.7,109.8 192.0,110.6 194.3,110.6 196.5,110.6 198.8,110.6 201.0,110.6 203.3,110.6 205.6,110.6 207.8,110.6 210.1,110.6 212.3,110.6 214.6,110.6 216.9,110.6 219.1,110.6 221.4,110.6 223.6,110.6 225.9,110.6 228.1,110.6 230.4,110.6 232.7,110.6 234.9,110.6 237.2,110.6 239.4,110.6 241.7,110.6 244.0,110.6 246.2,110.6 248.5,110.6 250.7,110.6 253.0,110.6 255.3,110.6 257.5,110.6 259.8,110.6 262.0,110.6 264.3,110.6 266.6,110.6 268.8,110.6 271.1,110.6 273.3,110.6 275.6,110.6 277.9,110.6 280.1,110.6 282.4,110.6 284.6,110.6 286.9,110.6 289.1,110.6 291.4,110.6 293.7,110.6 295.9,110.6 298.2,110.6 300.4,110.6 302.7,110.6 305.0,110.6 307.2,110.6 309.5,110.6 311.7,110.6 314.0,110.6 316.3,110.6 318.5,110.6 320.8,110.6 323.0,110.6 325.3,110.6 327.6,110.6 329.8,110.6 332.1,110.6 334.3,110.6 336.6,110.6 338.9,110.6 341.1,110.6 343.4,110.6 345.6,110.6 347.9,110.6 350.1,110.6 352.4,110.6 354.7,110.6 356.9,110.6 359.2,110.6 361.4,110.6 363.7,110.6 366.0,110.6 368.2,110.6 370.5,110.6 372.7,110.6 375.0,110.6 377.3,110.6 379.5,110.6 381.8,110.6 384.0,110.6 386.3,110.6 388.6,110.6 390.8,110.6 393.1,110.6 395.3,110.6 397.6,110.6 399.9,110.6 402.1,110.6 404.4,110.6 406.6,110.6 408.9,110.6 411.1,110.6 413.4,110.6 415.7,110.6 417.9,110.6 420.2,110.6 422.4,110.6 424.7,110.6 427.0,110.6 429.2,110.6 431.5,110.6 433.7,110.6 436.0,110.6 438.3,110.6 440.5,110.6 442.8,110.6 445.0,110.6 447.3,110.6 449.6,110.6 451.8,110.6 454.1,110.6 456.3,110.6 458.6,110.6 460.9,110.6 463.1,110.6 465.4,110.6 467.6,110.6 469.9,110.6 472.1,110.6 474.4,110.6 476.7,110.6 478.9,110.6 481.2,110.6 483.4,110.6 485.7,110.6 488.0,110.6 490.2,110.6 492.5,110.6 494.7,110.6 497.0,110.6 499.3,110.6 501.5,110.6 503.8,110.6 506.0,110.6 508.3,110.6 510.6,110.6 512.8,110.6 515.1,110.6 517.3,110.6 519.6,110.6 521.9,110.6 524.1,110.6 526.4,110.6 528.6,110.6 530.9,110.6 533.1,110.6 535.4,110.6 537.7,110.6 539.9,110.6 542.2,110.6 544.4,110.6 546.7,110.6 549.0,110.6 551.2,110.6 553.5,110.6 555.7,110.6 558.0,110.6 560.3,110.6 562.5,110.6 564.8,110.6 567.0,110.6 569.3,110.6 571.6,110.6 573.8,110.6 576.1,110.6 578.3,110.6 580.6,110.6 582.9,110.6 585.1,110.6 587.4,110.6 589.6,110.6 591.9,110.6 594.1,110.6 596.4,110.6 598.7,110.6 600.9,110.6 603.2,110.6 605.4,110.6 607.7,110.6 610.0,110.6 612.2,110.6 614.5,110.6 616.7,110.6 619.0,110.6 621.3,110.6 623.5,110.6 625.8,110.6 628.0,110.6 630.3,110.6 632.6,110.6 634.8,110.6 637.1,110.6 639.3,110.6 641.6,110.6 643.9,110.6 646.1,110.6 648.4,110.6 650.6,110.6 652.9,110.6 655.1,110.6 657.4,110.6 659.7,110.6 661.9,110.6 664.2,110.6 666.4,110.6 668.7,110.6 671.0,110.6 673.2,110.6 675.5,110.6 677.7,110.6 680.0,110.6 682.3,110.6 684.5,110.6 686.8,110.6 689.0,110.6 691.3,110.6 693.6,110.6 695.8,110.6 698.1,110.6 700.3,110.6 702.6,110.6 704.9,110.6 707.1,110.6 709.4,110.6 711.6,110.6 713.9,110.6 716.1,110.6 718.4,110.6 720.7,110.6 722.9,110.6 725.2,110.6 727.4,110.6 729.7,110.6 732.0,110.6 734.2,110.6 736.5,110.6 738.7,110.6 741.0,110.6 743.3,110.6 745.5,110.6 747.8,110.6 750.0,110.6 752.3,110.6 754.6,110.6 756.8,110.6 759.1,110.6 761.3,110.6 763.6,110.6 765.9,110.6 768.1,110.6 770.4,110.6 772.6,110.6 774.9,110.6 777.1,110.6 779.4,110.6 781.7,110.6 783.9,110.6 786.2,110.6 788.4,110.6 790.7,110.6 793.0,110.6 795.2,110.6 797.5,110.6 799.7,110.6 802.0,110.6 804.3,110.6 806.5,110.6 808.8,110.6 811.0,110.6 813.3,110.6 815.6,110.6 817.8,110.6 820.1,110.6 822.3,110.6 824.6,110.6 826.9,110.6 829.1,110.6 831.4,110.6 833.6,110.6 835.9,110.6 838.1,110.6 840.4,110.6 842.7,110.6 844.9,110.6 847.2,110.6 849.4,110.6 851.7,110.6 854.0,110.6 856.2,110.6 858.5,110.6 860.7,110.6 863.0,110.6 865.3,110.6 867.5,110.6 869.8,110.6 872.0,110.6 874.3,110.6 876.6,110.6 878.8,110.6 881.1,110.6 883.3,110.6 885.6,110.6 887.9,110.6 890.1,110.6 892.4,110.6 894.6,110.6 896.9,110.6 899.1,110.6 901.4,110.6 903.7,110.6 905.9,110.6 908.2,110.6 910.4,110.6 912.7,110.6 915.0,110.6 917.2,110.6 919.5,110.6 921.7,110.6 924.0,110.6 926.3,110.6 928.5,110.6 930.8,110.6 933.0,110.6 935.3,110.6 937.6,110.6 939.8,110.6 942.1,110.6 944.3,110.6 946.6,110.6 948.9,110.6 951.1,110.6 953.4,110.6 955.6,110.6 957.9,110.6 960.1,110.6 962.4,110.6 964.7,110.6 966.9,110.6 969.2,110.6 971.4,110.6 973.7,110.6 976.0,110.6 978.2,110.6 980.5,110.6 982.7,110.6 985.0,110.6 987.3,110.6 989.5,110.6 991.8,110.6 994.0,110.6 996.3,110.6 998.6,110.6 1000.8,110.6 1003.1,110.6 1005.3,110.6 1007.6,110.6 1009.9,110.6 1012.1,110.6 1014.4,110.6 1016.6,110.6 1018.9,110.6 1021.1,110.6 1023.4,110.6 1025.7,110.6 1027.9,110.6 1030.2,110.6 1032.4,110.6 1034.7,110.6 1037.0,110.6 1039.2,110.6 1041.5,110.6 1043.7,110.6 1046.0,110.6 1048.3,110.6 1050.5,110.6 1052.8,110.6 1055.0,110.6 1057.3,110.6 1059.6,110.6 1061.8,110.6 1064.1,110.6 1066.3,110.6 1068.6,110.6 1070.9,110.6 1073.1,110.6 1075.4,110.6 1077.6,110.6 1079.9,110.6 1082.1,110.6 1084.4,110.6 1086.7,110.6 1088.9,110.6 1091.2,110.6 1093.4,110.6 1095.7,110.6 1098.0,110.6 1100.2,110.6 1102.5,110.6 1104.7,110.6 1107.0,110.6 1109.3,110.6 1111.5,110.6 1113.8,110.6 1116.0,110.6 1118.3,110.6 1120.6,110.6 1122.8,110.6 1125.1,110.6 1127.3,110.6 1129.6,110.6 1131.9,110.6 1134.1,110.6 1136.4,110.6 1138.6,110.6 1140.9,110.6 1143.1,110.6 1145.4,110.6 1147.7,110.6 1149.9,110.6 1152.2,110.6 1154.4,110.6 1156.7,110.6 1159.0,110.6 1161.2,110.6 1163.5,110.6 1165.7,110.6 1168.0,110.6" fill="none" stroke="#00a7a5" stroke-width="3" stroke-linejoin="round" stroke-linecap="round"/><polyline points="70.0,310.7 72.3,307.9 74.5,305.2 76.8,305.2 79.0,296.9 81.3,302.4 83.6,296.9 85.8,296.9 88.1,288.6 90.3,291.4 92.6,288.6 94.9,294.1 97.1,291.4 99.4,294.1 101.6,288.6 103.9,291.4 106.1,288.6 108.4,294.1 110.7,291.4 112.9,299.6 115.2,294.1 117.4,294.1 119.7,291.4 122.0,291.4 124.2,288.6 126.5,294.1 128.7,291.4 131.0,291.4 133.3,288.6 135.5,294.1 137.8,291.4 140.0,296.9 142.3,294.1 144.6,294.1 146.8,285.8 149.1,283.1 151.3,280.3 153.6,277.6 155.9,274.8 158.1,272.0 160.4,269.3 162.6,266.5 164.9,263.8 167.1,263.8 169.4,263.8 171.7,261.0 173.9,258.2 176.2,255.5 178.4,255.5 180.7,252.7 183.0,250.0 185.2,247.2 187.5,244.4 189.7,241.7 192.0,238.9 194.3,238.9 196.5,236.2 198.8,233.4 201.0,230.6 203.3,230.6 205.6,230.6 207.8,227.9 210.1,227.9 212.3,227.6 214.6,227.3 216.9,227.1 219.1,226.8 221.4,226.5 223.6,226.5 225.9,226.5 228.1,226.2 230.4,225.9 232.7,225.7 234.9,225.4 237.2,225.1 239.4,224.8 241.7,224.6 244.0,224.3 246.2,224.3 248.5,224.0 250.7,223.7 253.0,223.5 255.3,223.2 257.5,222.9 259.8,222.6 262.0,222.4 264.3,222.1 266.6,221.8 268.8,221.8 271.1,221.5 273.3,221.3 275.6,221.0 277.9,221.0 280.1,220.7 282.4,220.4 284.6,220.2 286.9,219.9 289.1,219.6 291.4,219.3 293.7,219.0 295.9,218.5 298.2,218.2 300.4,217.9 302.7,217.7 305.0,217.4 307.2,217.4 309.5,217.1 311.7,216.8 314.0,216.8 316.3,216.8 318.5,216.3 320.8,216.0 323.0,215.7 325.3,215.5 327.6,215.2 329.8,215.2 332.1,214.9 334.3,214.6 336.6,214.6 338.9,213.8 341.1,213.5 343.4,213.5 345.6,213.3 347.9,213.0 350.1,212.7 352.4,212.7 354.7,212.4 356.9,211.3 359.2,211.0 361.4,211.0 363.7,211.0 366.0,209.9 368.2,209.4 370.5,209.1 372.7,208.8 375.0,208.8 377.3,208.6 379.5,208.3 381.8,208.0 384.0,206.9 386.3,206.4 388.6,206.4 390.8,205.8 393.1,205.5 395.3,205.2 397.6,204.4 399.9,204.1 402.1,203.9 404.4,203.9 406.6,203.6 408.9,203.3 411.1,203.0 413.4,203.0 415.7,203.0 417.9,202.8 420.2,202.5 422.4,202.2 424.7,201.9 427.0,201.9 429.2,201.7 431.5,200.8 433.7,200.3 436.0,200.3 438.3,200.0 440.5,199.7 442.8,199.2 445.0,198.9 447.3,198.6 449.6,198.1 451.8,197.8 454.1,197.2 456.3,197.0 458.6,196.7 460.9,196.7 463.1,196.1 465.4,196.1 467.6,193.9 469.9,193.7 472.1,193.7 474.4,193.4 476.7,193.1 478.9,192.6 481.2,192.0 483.4,191.7 485.7,191.4 488.0,191.2 490.2,190.9 492.5,190.9 494.7,190.6 497.0,190.1 499.3,189.5 501.5,188.1 503.8,186.2 506.0,185.4 508.3,185.1 510.6,184.8 512.8,184.5 515.1,183.2 517.3,182.9 519.6,181.8 521.9,181.8 524.1,181.0 526.4,180.7 528.6,179.9 530.9,179.0 533.1,178.5 535.4,178.5 537.7,177.9 539.9,177.6 542.2,177.1 544.4,177.1 546.7,177.1 549.0,176.5 551.2,176.3 553.5,175.7 555.7,175.4 558.0,174.9 560.3,174.3 562.5,174.1 564.8,174.1 567.0,173.5 569.3,173.5 571.6,173.2 573.8,173.2 576.1,173.0 578.3,173.0 580.6,172.7 582.9,172.4 585.1,172.1 587.4,171.6 589.6,171.3 591.9,171.0 594.1,171.0 596.4,170.2 598.7,169.9 600.9,169.9 603.2,169.6 605.4,169.6 607.7,169.1 610.0,168.8 612.2,168.5 614.5,168.5 616.7,168.3 619.0,168.0 621.3,167.4 623.5,167.2 625.8,166.6 628.0,166.6 630.3,166.3 632.6,165.8 634.8,165.8 637.1,165.2 639.3,165.0 641.6,164.4 643.9,164.1 646.1,163.6 648.4,163.0 650.6,162.7 652.9,162.5 655.1,162.2 657.4,161.9 659.7,161.6 661.9,161.4 664.2,160.8 666.4,160.3 668.7,160.0 671.0,159.7 673.2,159.2 675.5,158.9 677.7,158.9 680.0,158.6 682.3,158.3 684.5,158.1 686.8,157.8 689.0,157.5 691.3,157.2 693.6,156.9 695.8,156.9 698.1,156.7 700.3,156.1 702.6,155.6 704.9,155.0 707.1,154.5 709.4,154.2 711.6,153.9 713.9,153.6 716.1,153.4 718.4,153.1 720.7,152.8 722.9,152.5 725.2,152.5 727.4,152.3 729.7,152.0 732.0,151.7 734.2,151.4 736.5,151.2 738.7,150.6 741.0,150.3 743.3,150.0 745.5,149.8 747.8,149.5 750.0,149.2 752.3,148.9 754.6,148.7 756.8,148.4 759.1,148.1 761.3,148.1 763.6,147.8 765.9,147.6 768.1,147.3 770.4,147.0 772.6,146.7 774.9,146.5 777.1,146.2 779.4,146.2 781.7,145.9 783.9,145.6 786.2,145.4 788.4,145.1 790.7,144.8 793.0,144.5 795.2,144.3 797.5,143.7 799.7,143.4 802.0,143.1 804.3,142.9 806.5,142.6 808.8,142.3 811.0,142.0 813.3,141.5 815.6,141.2 817.8,140.7 820.1,140.4 822.3,140.1 824.6,139.8 826.9,139.6 829.1,139.3 831.4,139.0 833.6,138.7 835.9,138.5 838.1,138.2 840.4,137.6 842.7,137.4 844.9,137.1 847.2,136.8 849.4,136.5 851.7,136.2 854.0,136.0 856.2,135.4 858.5,135.1 860.7,134.9 863.0,134.6 865.3,134.3 867.5,134.0 869.8,133.8 872.0,133.5 874.3,133.2 876.6,132.9 878.8,132.7 881.1,132.4 883.3,132.1 885.6,131.8 887.9,131.6 890.1,131.3 892.4,131.0 894.6,130.2 896.9,129.9 899.1,129.6 901.4,129.3 903.7,129.1 905.9,128.8 908.2,128.5 910.4,128.2 912.7,128.0 915.0,127.7 917.2,127.1 919.5,126.9 921.7,126.6 924.0,126.3 926.3,126.0 928.5,125.8 930.8,125.5 933.0,125.2 935.3,124.9 937.6,124.7 939.8,124.4 942.1,124.1 944.3,123.8 946.6,123.6 948.9,123.3 951.1,123.0 953.4,122.7 955.6,122.4 957.9,122.2 960.1,121.9 962.4,121.6 964.7,121.3 966.9,121.3 969.2,121.1 971.4,120.8 973.7,120.5 976.0,120.2 978.2,120.0 980.5,119.7 982.7,119.4 985.0,119.1 987.3,118.9 989.5,118.6 991.8,118.3 994.0,118.0 996.3,117.5 998.6,117.2 1000.8,116.9 1003.1,116.7 1005.3,116.1 1007.6,115.8 1009.9,115.5 1012.1,115.3 1014.4,115.0 1016.6,114.7 1018.9,114.4 1021.1,114.2 1023.4,113.9 1025.7,113.6 1027.9,113.1 1030.2,112.8 1032.4,112.2 1034.7,112.0 1037.0,111.7 1039.2,111.1 1041.5,110.6 1043.7,110.3 1046.0,110.0 1048.3,109.8 1050.5,109.5 1052.8,109.2 1055.0,108.9 1057.3,108.6 1059.6,108.4 1061.8,108.1 1064.1,107.8 1066.3,107.5 1068.6,107.3 1070.9,107.0 1073.1,106.7 1075.4,106.4 1077.6,106.2 1079.9,105.9 1082.1,105.6 1084.4,105.3 1086.7,105.1 1088.9,104.8 1091.2,104.5 1093.4,104.2 1095.7,104.0 1098.0,103.7 1100.2,103.4 1102.5,102.6 1104.7,102.3 1107.0,102.0 1109.3,101.7 1111.5,101.7 1113.8,101.5 1116.0,101.5 1118.3,101.2 1120.6,101.2 1122.8,100.9 1125.1,100.9 1127.3,100.6 1129.6,100.6 1131.9,100.4 1134.1,100.4 1136.4,100.4 1138.6,100.4 1140.9,100.4 1143.1,100.4 1145.4,99.8 1147.7,98.7 1149.9,98.2 1152.2,97.3 1154.4,96.8 1156.7,96.2 1159.0,95.7 1161.2,95.4 1163.5,94.8 1165.7,94.8 1168.0,94.6" fill="none" stroke="#e6a700" stroke-width="3" stroke-linejoin="round" stroke-linecap="round"/><polyline points="70.0,92.6 72.3,84.4 74.5,76.1 76.8,76.1 79.0,67.8 81.3,67.8 83.6,65.0 85.8,65.0 88.1,62.3 90.3,70.6 92.6,65.0 94.9,65.0 97.1,65.0 99.4,67.8 101.6,62.3 103.9,70.6 106.1,65.0 108.4,65.0 110.7,65.0 112.9,62.3 115.2,59.5 117.4,70.6 119.7,67.8 122.0,67.8 124.2,62.3 126.5,62.3 128.7,62.3 131.0,59.5 133.3,59.5 135.5,62.3 137.8,59.5 140.0,59.5 142.3,59.5 144.6,67.8 146.8,65.0 149.1,65.0 151.3,65.0 153.6,65.0 155.9,65.0 158.1,65.0 160.4,65.0 162.6,65.0 164.9,65.0 167.1,65.0 169.4,65.0 171.7,65.0 173.9,65.0 176.2,65.0 178.4,65.0 180.7,65.0 183.0,65.0 185.2,65.0 187.5,65.0 189.7,65.0 192.0,65.0 194.3,65.0 196.5,65.0 198.8,65.0 201.0,65.0 203.3,65.0 205.6,65.0 207.8,65.0 210.1,65.0 212.3,65.0 214.6,65.0 216.9,65.0 219.1,65.0 221.4,65.0 223.6,62.3 225.9,62.3 228.1,62.3 230.4,62.3 232.7,62.3 234.9,62.3 237.2,62.3 239.4,62.3 241.7,62.3 244.0,62.3 246.2,62.3 248.5,62.3 250.7,62.3 253.0,62.3 255.3,62.3 257.5,62.3 259.8,62.3 262.0,62.3 264.3,62.3 266.6,62.3 268.8,62.3 271.1,62.3 273.3,62.3 275.6,62.3 277.9,62.3 280.1,62.3 282.4,62.3 284.6,62.3 286.9,62.3 289.1,62.3 291.4,62.3 293.7,62.3 295.9,62.3 298.2,62.3 300.4,62.3 302.7,62.3 305.0,62.3 307.2,62.3 309.5,62.3 311.7,62.3 314.0,62.3 316.3,59.5 318.5,59.5 320.8,59.5 323.0,59.5 325.3,59.5 327.6,59.5 329.8,59.5 332.1,59.5 334.3,59.5 336.6,59.5 338.9,59.5 341.1,59.5 343.4,59.5 345.6,59.5 347.9,59.5 350.1,59.5 352.4,59.5 354.7,59.5 356.9,59.5 359.2,59.5 361.4,59.5 363.7,59.5 366.0,59.5 368.2,59.5 370.5,59.5 372.7,59.5 375.0,59.5 377.3,59.5 379.5,59.5 381.8,59.5 384.0,59.5 386.3,59.5 388.6,59.5 390.8,59.5 393.1,59.5 395.3,59.5 397.6,59.5 399.9,59.5 402.1,59.5 404.4,59.5 406.6,59.5 408.9,59.5 411.1,59.5 413.4,59.5 415.7,59.5 417.9,59.5 420.2,59.5 422.4,59.5 424.7,59.5 427.0,59.5 429.2,59.5 431.5,59.5 433.7,59.5 436.0,59.5 438.3,59.5 440.5,59.5 442.8,59.5 445.0,59.5 447.3,59.5 449.6,59.5 451.8,59.5 454.1,59.5 456.3,59.5 458.6,59.5 460.9,59.5 463.1,59.5 465.4,59.5 467.6,59.5 469.9,59.5 472.1,59.5 474.4,59.5 476.7,59.5 478.9,59.5 481.2,59.5 483.4,59.5 485.7,59.5 488.0,59.5 490.2,59.5 492.5,59.5 494.7,59.5 497.0,59.5 499.3,59.5 501.5,59.5 503.8,59.5 506.0,59.5 508.3,59.5 510.6,59.5 512.8,59.5 515.1,59.5 517.3,59.5 519.6,59.5 521.9,59.5 524.1,59.5 526.4,59.5 528.6,59.5 530.9,59.5 533.1,59.5 535.4,59.5 537.7,59.5 539.9,59.5 542.2,59.5 544.4,59.5 546.7,59.5 549.0,59.5 551.2,59.5 553.5,59.5 555.7,59.5 558.0,59.5 560.3,59.5 562.5,59.5 564.8,59.5 567.0,59.5 569.3,59.5 571.6,59.5 573.8,59.5 576.1,59.5 578.3,59.5 580.6,59.5 582.9,59.5 585.1,59.5 587.4,59.5 589.6,59.5 591.9,59.5 594.1,59.5 596.4,59.5 598.7,59.5 600.9,59.5 603.2,59.5 605.4,59.5 607.7,59.5 610.0,59.5 612.2,59.5 614.5,59.5 616.7,59.5 619.0,59.5 621.3,59.5 623.5,59.5 625.8,59.5 628.0,59.5 630.3,59.5 632.6,59.5 634.8,59.5 637.1,59.5 639.3,59.5 641.6,59.5 643.9,59.5 646.1,59.5 648.4,59.5 650.6,59.5 652.9,59.5 655.1,59.5 657.4,59.5 659.7,59.5 661.9,59.5 664.2,59.5 666.4,59.5 668.7,59.5 671.0,59.5 673.2,59.5 675.5,59.5 677.7,59.5 680.0,59.5 682.3,59.5 684.5,59.5 686.8,59.5 689.0,59.5 691.3,59.5 693.6,59.5 695.8,59.5 698.1,59.5 700.3,59.5 702.6,59.5 704.9,59.5 707.1,59.5 709.4,59.5 711.6,59.5 713.9,59.5 716.1,59.5 718.4,59.5 720.7,59.5 722.9,59.5 725.2,59.5 727.4,59.5 729.7,59.5 732.0,59.5 734.2,59.5 736.5,59.5 738.7,56.8 741.0,56.8 743.3,56.8 745.5,56.8 747.8,56.8 750.0,56.8 752.3,56.8 754.6,56.8 756.8,56.8 759.1,56.8 761.3,56.8 763.6,56.8 765.9,56.8 768.1,56.8 770.4,56.8 772.6,56.8 774.9,56.8 777.1,56.8 779.4,56.8 781.7,56.8 783.9,56.8 786.2,56.8 788.4,56.8 790.7,56.8 793.0,56.8 795.2,56.8 797.5,56.8 799.7,56.8 802.0,56.8 804.3,56.8 806.5,56.8 808.8,56.8 811.0,56.8 813.3,56.8 815.6,56.8 817.8,56.8 820.1,56.8 822.3,56.8 824.6,56.8 826.9,56.8 829.1,56.8 831.4,56.8 833.6,56.8 835.9,56.8 838.1,56.8 840.4,56.8 842.7,56.8 844.9,56.8 847.2,56.8 849.4,56.8 851.7,56.8 854.0,56.8 856.2,56.8 858.5,56.8 860.7,56.8 863.0,56.8 865.3,56.8 867.5,56.8 869.8,56.8 872.0,56.8 874.3,56.8 876.6,56.8 878.8,56.8 881.1,56.8 883.3,56.8 885.6,56.8 887.9,56.8 890.1,56.8 892.4,56.8 894.6,56.8 896.9,56.8 899.1,56.8 901.4,56.8 903.7,56.8 905.9,56.8 908.2,56.8 910.4,56.8 912.7,56.8 915.0,56.8 917.2,56.8 919.5,56.8 921.7,56.8 924.0,56.8 926.3,56.8 928.5,56.8 930.8,56.8 933.0,56.8 935.3,56.8 937.6,56.8 939.8,56.8 942.1,56.8 944.3,56.8 946.6,56.8 948.9,56.8 951.1,56.8 953.4,56.8 955.6,56.8 957.9,56.8 960.1,56.8 962.4,56.8 964.7,56.8 966.9,56.8 969.2,56.8 971.4,56.8 973.7,56.8 976.0,56.8 978.2,56.8 980.5,56.8 982.7,56.8 985.0,56.8 987.3,56.8 989.5,56.8 991.8,56.8 994.0,56.8 996.3,56.8 998.6,56.8 1000.8,56.8 1003.1,56.8 1005.3,56.8 1007.6,56.8 1009.9,56.8 1012.1,56.8 1014.4,56.8 1016.6,56.8 1018.9,56.8 1021.1,56.8 1023.4,56.8 1025.7,56.8 1027.9,56.8 1030.2,56.8 1032.4,56.8 1034.7,56.8 1037.0,56.8 1039.2,56.8 1041.5,56.8 1043.7,56.8 1046.0,56.8 1048.3,56.8 1050.5,56.8 1052.8,56.8 1055.0,56.8 1057.3,56.8 1059.6,56.8 1061.8,56.8 1064.1,56.8 1066.3,56.8 1068.6,56.8 1070.9,56.8 1073.1,56.8 1075.4,56.8 1077.6,56.8 1079.9,56.8 1082.1,56.8 1084.4,56.8 1086.7,56.8 1088.9,56.8 1091.2,56.8 1093.4,56.8 1095.7,56.8 1098.0,56.8 1100.2,56.8 1102.5,56.8 1104.7,56.8 1107.0,56.8 1109.3,56.8 1111.5,56.8 1113.8,56.8 1116.0,56.8 1118.3,56.8 1120.6,56.8 1122.8,56.8 1125.1,56.8 1127.3,56.8 1129.6,56.8 1131.9,56.8 1134.1,56.8 1136.4,56.8 1138.6,56.8 1140.9,56.8 1143.1,56.8 1145.4,56.8 1147.7,56.8 1149.9,56.8 1152.2,56.8 1154.4,56.8 1156.7,56.8 1159.0,56.8 1161.2,56.8 1163.5,56.8 1165.7,56.8 1168.0,56.8" fill="none" stroke="#d94f8a" stroke-width="3" stroke-linejoin="round" stroke-linecap="round"/><polyline points="70.0,233.4 72.3,225.1 74.5,219.6 76.8,219.6 79.0,205.8 81.3,233.4 83.6,205.8 85.8,214.1 88.1,205.8 90.3,203.0 92.6,200.3 94.9,200.3 97.1,197.5 99.4,208.6 101.6,200.3 103.9,200.3 106.1,197.5 108.4,203.0 110.7,200.3 112.9,194.8 115.2,175.4 117.4,203.0 119.7,200.3 122.0,203.0 124.2,197.5 126.5,203.0 128.7,197.5 131.0,203.0 133.3,197.5 135.5,200.3 137.8,200.3 140.0,181.0 142.3,181.0 144.6,200.3 146.8,186.5 149.1,183.7 151.3,183.7 153.6,181.0 155.9,181.0 158.1,181.0 160.4,181.0 162.6,181.0 164.9,181.0 167.1,181.0 169.4,181.0 171.7,181.0 173.9,181.0 176.2,181.0 178.4,181.0 180.7,181.0 183.0,181.0 185.2,181.0 187.5,181.0 189.7,181.0 192.0,178.2 194.3,178.2 196.5,178.2 198.8,178.2 201.0,178.2 203.3,175.4 205.6,175.4 207.8,175.4 210.1,175.4 212.3,175.4 214.6,175.4 216.9,175.4 219.1,172.7 221.4,172.7 223.6,169.9 225.9,169.9 228.1,169.9 230.4,169.9 232.7,169.9 234.9,169.9 237.2,169.9 239.4,169.9 241.7,169.9 244.0,169.9 246.2,167.2 248.5,167.2 250.7,167.2 253.0,167.2 255.3,167.2 257.5,167.2 259.8,167.2 262.0,167.2 264.3,167.2 266.6,167.2 268.8,164.4 271.1,164.4 273.3,175.4 275.6,175.4 277.9,172.7 280.1,172.7 282.4,172.7 284.6,172.7 286.9,172.7 289.1,172.7 291.4,172.7 293.7,172.7 295.9,172.7 298.2,172.7 300.4,175.4 302.7,175.4 305.0,175.4 307.2,172.7 309.5,172.7 311.7,172.7 314.0,169.9 316.3,167.2 318.5,167.2 320.8,167.2 323.0,167.2 325.3,167.2 327.6,167.2 329.8,164.4 332.1,164.4 334.3,164.4 336.6,161.6 338.9,161.6 341.1,164.4 343.4,161.6 345.6,161.6 347.9,161.6 350.1,164.4 352.4,161.6 354.7,161.6 356.9,161.6 359.2,161.6 361.4,161.6 363.7,158.9 366.0,158.9 368.2,158.9 370.5,158.9 372.7,158.9 375.0,156.1 377.3,153.4 379.5,153.4 381.8,153.4 384.0,153.4 386.3,153.4 388.6,150.6 390.8,150.6 393.1,150.6 395.3,150.6 397.6,150.6 399.9,150.6 402.1,150.6 404.4,147.8 406.6,147.8 408.9,147.8 411.1,147.8 413.4,146.5 415.7,145.1 417.9,145.1 420.2,145.1 422.4,145.1 424.7,145.1 427.0,143.7 429.2,143.7 431.5,142.3 433.7,142.3 436.0,140.9 438.3,140.9 440.5,140.9 442.8,140.9 445.0,140.9 447.3,140.9 449.6,140.9 451.8,140.9 454.1,140.9 456.3,140.9 458.6,140.9 460.9,140.7 463.1,138.7 465.4,137.9 467.6,137.9 469.9,137.9 472.1,136.8 474.4,136.8 476.7,136.8 478.9,136.8 481.2,136.8 483.4,136.8 485.7,136.8 488.0,136.8 490.2,136.8 492.5,136.8 494.7,136.8 497.0,136.8 499.3,136.8 501.5,136.8 503.8,136.8 506.0,136.8 508.3,136.8 510.6,136.8 512.8,136.8 515.1,136.8 517.3,136.8 519.6,136.8 521.9,134.0 524.1,134.0 526.4,134.0 528.6,134.0 530.9,131.3 533.1,131.3 535.4,131.3 537.7,128.5 539.9,125.8 542.2,123.0 544.4,120.2 546.7,120.2 549.0,120.2 551.2,120.2 553.5,120.2 555.7,120.2 558.0,120.2 560.3,120.2 562.5,120.2 564.8,117.5 567.0,117.5 569.3,114.7 571.6,112.0 573.8,109.2 576.1,109.2 578.3,106.4 580.6,106.4 582.9,106.4 585.1,106.4 587.4,106.4 589.6,106.4 591.9,106.4 594.1,103.7 596.4,103.7 598.7,100.9 600.9,100.9 603.2,100.9 605.4,100.9 607.7,100.9 610.0,100.9 612.2,98.2 614.5,95.4 616.7,92.6 619.0,89.9 621.3,89.9 623.5,89.9 625.8,87.1 628.0,84.4 630.3,81.6 632.6,81.6 634.8,81.6 637.1,81.6 639.3,81.6 641.6,81.6 643.9,81.6 646.1,81.6 648.4,81.6 650.6,81.6 652.9,81.6 655.1,81.6 657.4,81.6 659.7,81.6 661.9,81.6 664.2,81.6 666.4,81.6 668.7,81.6 671.0,81.6 673.2,81.6 675.5,81.6 677.7,80.2 680.0,80.2 682.3,80.2 684.5,80.2 686.8,80.2 689.0,79.9 691.3,79.9 693.6,79.9 695.8,79.7 698.1,79.7 700.3,79.7 702.6,79.7 704.9,79.7 707.1,79.7 709.4,79.7 711.6,79.7 713.9,79.7 716.1,79.7 718.4,79.7 720.7,79.7 722.9,79.7 725.2,78.6 727.4,78.3 729.7,78.0 732.0,77.7 734.2,77.5 736.5,77.2 738.7,76.9 741.0,76.6 743.3,76.4 745.5,76.1 747.8,75.8 750.0,75.5 752.3,75.3 754.6,75.0 756.8,74.7 759.1,74.7 761.3,74.7 763.6,74.7 765.9,74.7 768.1,74.7 770.4,74.7 772.6,74.7 774.9,74.7 777.1,74.1 779.4,73.9 781.7,73.6 783.9,73.0 786.2,72.8 788.4,72.5 790.7,72.2 793.0,71.9 795.2,71.7 797.5,71.4 799.7,71.1 802.0,70.8 804.3,70.6 806.5,70.6 808.8,70.6 811.0,70.6 813.3,70.6 815.6,70.6 817.8,70.6 820.1,67.8 822.3,65.0 824.6,65.0 826.9,65.0 829.1,65.0 831.4,65.0 833.6,65.0 835.9,65.0 838.1,65.0 840.4,65.0 842.7,65.0 844.9,65.0 847.2,65.0 849.4,65.0 851.7,65.0 854.0,65.0 856.2,65.0 858.5,65.0 860.7,64.5 863.0,64.5 865.3,64.5 867.5,63.4 869.8,63.4 872.0,63.4 874.3,63.4 876.6,63.4 878.8,63.4 881.1,63.4 883.3,63.4 885.6,63.4 887.9,63.4 890.1,63.4 892.4,63.4 894.6,63.4 896.9,63.4 899.1,63.4 901.4,63.4 903.7,63.4 905.9,63.4 908.2,63.4 910.4,63.4 912.7,63.4 915.0,63.4 917.2,63.4 919.5,63.4 921.7,63.4 924.0,63.4 926.3,63.4 928.5,63.4 930.8,63.4 933.0,63.4 935.3,63.4 937.6,63.4 939.8,63.4 942.1,63.4 944.3,62.8 946.6,62.8 948.9,62.8 951.1,62.8 953.4,62.6 955.6,62.6 957.9,62.6 960.1,62.6 962.4,62.6 964.7,62.6 966.9,62.3 969.2,62.3 971.4,62.3 973.7,62.3 976.0,62.3 978.2,62.3 980.5,62.3 982.7,62.3 985.0,62.3 987.3,62.3 989.5,62.3 991.8,62.3 994.0,62.3 996.3,62.3 998.6,62.3 1000.8,62.3 1003.1,62.3 1005.3,62.3 1007.6,62.3 1009.9,62.3 1012.1,62.3 1014.4,62.3 1016.6,62.3 1018.9,59.5 1021.1,59.5 1023.4,59.5 1025.7,59.5 1027.9,59.5 1030.2,59.5 1032.4,59.5 1034.7,59.5 1037.0,59.5 1039.2,59.5 1041.5,59.5 1043.7,59.5 1046.0,59.5 1048.3,59.5 1050.5,59.5 1052.8,59.5 1055.0,59.5 1057.3,59.5 1059.6,59.5 1061.8,59.5 1064.1,59.5 1066.3,59.5 1068.6,59.5 1070.9,59.5 1073.1,59.5 1075.4,59.5 1077.6,59.5 1079.9,59.5 1082.1,59.5 1084.4,59.5 1086.7,59.5 1088.9,59.5 1091.2,59.5 1093.4,59.5 1095.7,59.5 1098.0,59.5 1100.2,59.5 1102.5,59.5 1104.7,59.5 1107.0,59.5 1109.3,59.5 1111.5,59.5 1113.8,59.5 1116.0,59.5 1118.3,59.5 1120.6,59.5 1122.8,59.5 1125.1,56.8 1127.3,56.8 1129.6,54.0 1131.9,54.0 1134.1,54.0 1136.4,54.0 1138.6,54.0 1140.9,54.0 1143.1,54.0 1145.4,54.0 1147.7,54.0 1149.9,54.0 1152.2,54.0 1154.4,54.0 1156.7,54.0 1159.0,54.0 1161.2,54.0 1163.5,54.0 1165.7,54.0 1168.0,54.0" fill="none" stroke="#2589bd" stroke-width="3" stroke-linejoin="round" stroke-linecap="round"/><polyline points="1134.1,330.0 1136.4,330.0 1138.6,330.0 1140.9,330.0 1143.1,330.0 1145.4,330.0 1147.7,330.0 1149.9,330.0 1152.2,330.0 1154.4,330.0 1156.7,330.0 1159.0,330.0 1161.2,330.0 1163.5,330.0 1165.7,330.0 1168.0,330.0" fill="none" stroke="#5b8c36" stroke-width="3" stroke-linejoin="round" stroke-linecap="round"/><polyline points="1134.1,330.0 1136.4,330.0 1138.6,330.0 1140.9,330.0 1143.1,330.0 1145.4,330.0 1147.7,330.0 1149.9,330.0 1152.2,330.0 1154.4,330.0 1156.7,330.0 1159.0,330.0 1161.2,330.0 1163.5,330.0 1165.7,330.0 1168.0,330.0" fill="none" stroke="#9c6644" stroke-width="3" stroke-linejoin="round" stroke-linecap="round"/><polyline points="1134.1,169.9 1136.4,117.5 1138.6,112.0 1140.9,103.7 1143.1,103.7 1145.4,103.7 1147.7,103.7 1149.9,103.7 1152.2,103.7 1154.4,103.7 1156.7,103.7 1159.0,103.7 1161.2,103.7 1163.5,103.7 1165.7,100.9 1168.0,100.9" fill="none" stroke="#6c757d" stroke-width="3" stroke-linejoin="round" stroke-linecap="round"/><text x="70" y="358" text-anchor="middle" class="axis">base 69d858a</text><text x="225.88888888888889" y="358" text-anchor="middle" class="axis">PR #74</text><text x="384.037037037037" y="358" text-anchor="middle" class="axis">PR #152</text><text x="539.9259259259259" y="358" text-anchor="middle" class="axis">PR #239</text><text x="698.074074074074" y="358" text-anchor="middle" class="axis">PR #514</text><text x="853.962962962963" y="358" text-anchor="middle" class="axis">PR #784</text><text x="1012.1111111111112" y="358" text-anchor="middle" class="axis">PR #1056</text><text x="1168" y="358" text-anchor="middle" class="axis">PR #1307</text><line x1="70" y1="396" x2="96" y2="396" stroke="#ff6b35" stroke-width="4"/><text x="106" y="401" class="legend">Correctness parity</text><line x1="619" y1="396" x2="645" y2="396" stroke="#7c5cff" stroke-width="4"/><text x="655" y="401" class="legend">PyTorch feature coverage</text><line x1="70" y1="424" x2="96" y2="424" stroke="#00a7a5" stroke-width="4"/><text x="106" y="429" class="legend">Performance parity</text><line x1="619" y1="424" x2="645" y2="424" stroke="#e6a700" stroke-width="4"/><text x="655" y="429" class="legend">Python API compatibility</text><line x1="70" y1="452" x2="96" y2="452" stroke="#d94f8a" stroke-width="4"/><text x="106" y="457" class="legend">Benchmark integrity</text><line x1="619" y1="452" x2="645" y2="452" stroke="#2589bd" stroke-width="4"/><text x="655" y="457" class="legend">Sustainable architecture</text><line x1="70" y1="480" x2="96" y2="480" stroke="#5b8c36" stroke-width="4"/><text x="106" y="485" class="legend">torch.compile program coverage parity</text><line x1="619" y1="480" x2="645" y2="480" stroke="#9c6644" stroke-width="4"/><text x="655" y="485" class="legend">torch.compile CUDA performance parity</text><line x1="70" y1="508" x2="96" y2="508" stroke="#6c757d" stroke-width="4"/><text x="106" y="513" class="legend">Repository polish</text>
</svg>
