<svg xmlns="http://www.w3.org/2000/svg" width="1200" height="560" viewBox="0 0 1200 560" role="img" aria-labelledby="title desc">
<title id="title">Burner evaluation progress</title><desc id="desc">Time series of evaluation scores recorded at each Burner merge.</desc>
<style>text{font-family:ui-sans-serif,system-ui,-apple-system,BlinkMacSystemFont,"Segoe UI",sans-serif}.title{font-size:22px;font-weight:700;fill:#20242a}.axis{font-size:12px;fill:#59636e}.legend{font-size:13px;fill:#2f3740}.grid{stroke:#d8dee5;stroke-width:1}.plot{fill:#fff;stroke:#b7c0ca}</style>
<rect width="100%" height="100%" fill="#f8fafc" rx="14"/><text x="70" y="32" class="title">Burner evaluation progress</text>
<rect x="70" y="54" width="1098" height="276" class="plot"/><line x1="70" y1="330" x2="1168" y2="330" class="grid"/><text x="58" y="335" text-anchor="end" class="axis">0</text><line x1="70" y1="261" x2="1168" y2="261" class="grid"/><text x="58" y="266" text-anchor="end" class="axis">25</text><line x1="70" y1="192" x2="1168" y2="192" class="grid"/><text x="58" y="197" text-anchor="end" class="axis">50</text><line x1="70" y1="123" x2="1168" y2="123" class="grid"/><text x="58" y="128" text-anchor="end" class="axis">75</text><line x1="70" y1="54" x2="1168" y2="54" class="grid"/><text x="58" y="59" text-anchor="end" class="axis">100</text><polyline points="70.0,76.1 72.3,76.1 74.6,76.1 76.9,76.1 79.2,76.1 81.5,76.1 83.8,76.1 86.1,76.1 88.4,76.1 90.7,76.1 93.0,76.1 95.3,76.1 97.6,76.1 99.9,76.1 102.2,76.1 104.5,76.1 106.8,76.1 109.1,76.1 111.3,76.1 113.6,76.1 115.9,76.1 118.2,76.1 120.5,76.1 122.8,76.1 125.1,76.1 127.4,76.1 129.7,76.1 132.0,76.1 134.3,76.1 136.6,76.1 138.9,76.1 141.2,76.1 143.5,76.1 145.8,76.1 148.1,76.1 150.4,73.3 152.7,70.6 155.0,70.6 157.3,67.8 159.6,65.0 161.9,62.3 164.2,59.5 166.5,59.5 168.8,59.5 171.1,59.5 173.4,59.5 175.7,56.8 178.0,56.8 180.3,56.8 182.6,56.8 184.9,56.8 187.2,56.8 189.4,56.8 191.7,56.8 194.0,56.8 196.3,56.8 198.6,56.8 200.9,56.8 203.2,56.8 205.5,56.8 207.8,56.8 210.1,56.8 212.4,56.8 214.7,56.8 217.0,56.8 219.3,56.8 221.6,56.8 223.9,56.8 226.2,56.8 228.5,56.8 230.8,56.8 233.1,56.8 235.4,56.8 237.7,56.8 240.0,56.5 242.3,56.2 244.6,55.9 246.9,55.7 249.2,55.7 251.5,55.4 253.8,55.1 256.1,54.8 258.4,54.6 260.7,54.3 263.0,54.3 265.3,54.3 267.5,54.3 269.8,54.3 272.1,54.3 274.4,54.3 276.7,54.3 279.0,54.3 281.3,54.3 283.6,54.3 285.9,54.3 288.2,54.3 290.5,54.3 292.8,54.3 295.1,54.3 297.4,54.3 299.7,54.0 302.0,54.0 304.3,54.0 306.6,54.0 308.9,54.0 311.2,54.0 313.5,56.8 315.8,56.8 318.1,56.8 320.4,54.0 322.7,54.0 325.0,54.0 327.3,54.0 329.6,54.0 331.9,54.0 334.2,54.0 336.5,54.0 338.8,54.0 341.1,54.0 343.4,54.0 345.6,54.0 347.9,54.0 350.2,54.0 352.5,54.0 354.8,54.0 357.1,54.0 359.4,56.8 361.7,56.8 364.0,56.8 366.3,56.8 368.6,56.8 370.9,56.8 373.2,56.8 375.5,56.8 377.8,56.8 380.1,56.8 382.4,56.8 384.7,56.8 387.0,56.8 389.3,56.8 391.6,56.8 393.9,56.8 396.2,56.8 398.5,56.8 400.8,56.8 403.1,56.8 405.4,56.8 407.7,56.8 410.0,56.8 412.3,56.8 414.6,56.8 416.9,56.8 419.2,56.8 421.5,56.8 423.7,56.8 426.0,56.8 428.3,56.8 430.6,56.8 432.9,56.8 435.2,56.2 437.5,56.2 439.8,56.2 442.1,56.2 444.4,55.9 446.7,55.9 449.0,55.9 451.3,55.7 453.6,55.4 455.9,55.4 458.2,55.1 460.5,54.8 462.8,54.6 465.1,54.3 467.4,54.3 469.7,54.0 472.0,54.0 474.3,54.0 476.6,54.0 478.9,54.0 481.2,54.0 483.5,54.0 485.8,54.0 488.1,54.0 490.4,54.0 492.7,54.0 495.0,54.0 497.3,54.0 499.6,54.0 501.8,54.0 504.1,54.0 506.4,54.0 508.7,54.0 511.0,54.0 513.3,54.0 515.6,54.0 517.9,54.0 520.2,54.0 522.5,54.0 524.8,54.0 527.1,54.0 529.4,54.0 531.7,54.0 534.0,54.0 536.3,54.0 538.6,54.0 540.9,54.0 543.2,54.0 545.5,54.0 547.8,54.0 550.1,54.0 552.4,54.0 554.7,54.0 557.0,54.0 559.3,54.0 561.6,54.0 563.9,54.0 566.2,54.0 568.5,54.0 570.8,54.0 573.1,54.0 575.4,54.0 577.7,54.0 579.9,54.0 582.2,54.0 584.5,54.0 586.8,54.0 589.1,54.0 591.4,54.0 593.7,54.0 596.0,54.0 598.3,54.0 600.6,54.0 602.9,54.0 605.2,54.0 607.5,54.0 609.8,54.0 612.1,54.0 614.4,54.0 616.7,54.0 619.0,54.0 621.3,54.0 623.6,54.0 625.9,54.0 628.2,54.0 630.5,54.0 632.8,54.0 635.1,54.0 637.4,54.0 639.7,54.0 642.0,54.0 644.3,54.0 646.6,54.0 648.9,54.0 651.2,54.0 653.5,54.0 655.8,54.0 658.1,54.0 660.3,54.0 662.6,54.0 664.9,54.0 667.2,54.0 669.5,54.0 671.8,54.0 674.1,54.0 676.4,54.0 678.7,54.0 681.0,54.0 683.3,54.0 685.6,54.0 687.9,54.0 690.2,54.0 692.5,54.0 694.8,54.0 697.1,54.0 699.4,54.0 701.7,54.0 704.0,54.0 706.3,54.0 708.6,54.0 710.9,54.0 713.2,54.0 715.5,54.0 717.8,54.0 720.1,54.0 722.4,54.0 724.7,54.0 727.0,54.0 729.3,54.0 731.6,54.0 733.9,54.0 736.2,54.0 738.4,54.0 740.7,54.0 743.0,54.0 745.3,54.0 747.6,54.0 749.9,54.0 752.2,54.0 754.5,54.0 756.8,54.0 759.1,54.0 761.4,54.0 763.7,54.0 766.0,54.0 768.3,54.0 770.6,54.0 772.9,54.0 775.2,54.0 777.5,54.0 779.8,54.0 782.1,54.0 784.4,54.0 786.7,54.0 789.0,54.0 791.3,54.0 793.6,54.0 795.9,54.0 798.2,54.0 800.5,54.0 802.8,54.0 805.1,54.0 807.4,54.0 809.7,54.0 812.0,54.0 814.3,54.0 816.5,54.0 818.8,54.0 821.1,54.0 823.4,54.0 825.7,54.0 828.0,54.0 830.3,54.0 832.6,54.0 834.9,54.0 837.2,54.0 839.5,54.0 841.8,54.0 844.1,54.0 846.4,54.0 848.7,54.0 851.0,54.0 853.3,54.0 855.6,54.0 857.9,54.0 860.2,54.0 862.5,54.0 864.8,54.0 867.1,54.0 869.4,54.0 871.7,54.0 874.0,54.0 876.3,54.0 878.6,54.0 880.9,54.0 883.2,54.0 885.5,54.0 887.8,54.0 890.1,54.0 892.4,54.0 894.6,54.0 896.9,54.0 899.2,54.0 901.5,54.0 903.8,54.0 906.1,54.0 908.4,54.0 910.7,54.0 913.0,54.0 915.3,54.0 917.6,54.0 919.9,54.0 922.2,54.0 924.5,54.0 926.8,54.0 929.1,54.0 931.4,54.0 933.7,54.0 936.0,54.0 938.3,54.0 940.6,54.0 942.9,54.0 945.2,54.0 947.5,54.0 949.8,54.0 952.1,54.0 954.4,54.0 956.7,54.0 959.0,54.0 961.3,54.0 963.6,54.0 965.9,54.0 968.2,54.0 970.5,54.0 972.7,54.0 975.0,54.0 977.3,54.0 979.6,54.0 981.9,54.0 984.2,54.0 986.5,54.0 988.8,54.0 991.1,54.0 993.4,54.0 995.7,54.0 998.0,54.0 1000.3,54.0 1002.6,54.0 1004.9,54.0 1007.2,54.0 1009.5,54.0 1011.8,54.0 1014.1,54.0 1016.4,54.0 1018.7,54.0 1021.0,54.0 1023.3,54.0 1025.6,54.0 1027.9,54.0 1030.2,54.0 1032.5,54.0 1034.8,54.0 1037.1,54.0 1039.4,54.0 1041.7,54.0 1044.0,54.0 1046.3,54.0 1048.6,54.0 1050.8,54.0 1053.1,54.0 1055.4,54.0 1057.7,54.0 1060.0,54.0 1062.3,54.0 1064.6,54.0 1066.9,54.0 1069.2,54.0 1071.5,54.0 1073.8,54.0 1076.1,54.0 1078.4,54.0 1080.7,54.0 1083.0,54.0 1085.3,54.0 1087.6,54.0 1089.9,54.0 1092.2,54.0 1094.5,54.0 1096.8,54.0 1099.1,54.0 1101.4,54.0 1103.7,54.0 1106.0,54.0 1108.3,54.0 1110.6,54.0 1112.9,54.0 1115.2,54.0 1117.5,54.0 1119.8,54.0 1122.1,54.0 1124.4,54.0 1126.7,54.0 1128.9,54.0 1131.2,54.0 1133.5,54.0 1135.8,54.0 1138.1,54.0 1140.4,54.0 1142.7,54.0 1145.0,54.0 1147.3,54.0 1149.6,54.0 1151.9,54.0 1154.2,54.0 1156.5,54.0 1158.8,54.0 1161.1,54.0 1163.4,54.0 1165.7,54.0 1168.0,54.0" fill="none" stroke="#ff6b35" stroke-width="3" stroke-linejoin="round" stroke-linecap="round"/><polyline points="70.0,280.0 72.3,277.0 74.6,270.7 76.9,270.7 79.2,264.3 81.5,264.3 83.8,253.8 86.1,253.8 88.4,248.3 90.7,248.3 93.0,245.3 95.3,245.3 97.6,242.0 99.9,242.0 102.2,236.7 104.5,236.7 106.8,236.7 109.1,236.7 111.3,233.7 113.6,233.7 115.9,228.4 118.2,228.4 120.5,228.4 122.8,228.4 125.1,228.4 127.4,228.4 129.7,228.4 132.0,228.4 134.3,228.4 136.6,228.4 138.9,228.4 141.2,228.4 143.5,228.4 145.8,228.4 148.1,187.0 150.4,185.4 152.7,184.8 155.0,180.1 157.3,179.9 159.6,179.3 161.9,179.3 164.2,179.3 166.5,178.2 168.8,178.2 171.1,178.2 173.4,177.6 175.7,176.8 178.0,176.3 180.3,176.0 182.6,175.7 184.9,175.4 187.2,172.7 189.4,172.4 191.7,172.1 194.0,171.9 196.3,171.9 198.6,171.6 200.9,171.3 203.2,171.0 205.5,171.0 207.8,171.0 210.1,170.7 212.4,170.5 214.7,170.2 217.0,169.9 219.3,169.6 221.6,169.4 223.9,169.1 226.2,169.1 228.5,169.1 230.8,168.8 233.1,168.5 235.4,168.3 237.7,168.0 240.0,167.7 242.3,167.4 244.6,167.2 246.9,166.9 249.2,166.9 251.5,166.1 253.8,165.2 256.1,165.0 258.4,164.7 260.7,164.4 263.0,164.1 265.3,163.8 267.5,163.6 269.8,163.3 272.1,163.3 274.4,163.0 276.7,162.7 279.0,162.5 281.3,162.5 283.6,162.2 285.9,161.9 288.2,161.6 290.5,161.4 292.8,161.1 295.1,160.8 297.4,160.5 299.7,159.7 302.0,159.4 304.3,159.2 306.6,158.9 308.9,158.6 311.2,158.6 313.5,158.3 315.8,158.1 318.1,158.1 320.4,158.1 322.7,157.8 325.0,157.5 327.3,157.2 329.6,156.9 331.9,156.7 334.2,156.7 336.5,156.4 338.8,156.1 341.1,156.1 343.4,155.8 345.6,155.6 347.9,155.6 350.2,155.3 352.5,155.0 354.8,154.7 357.1,154.7 359.4,153.4 361.7,152.8 364.0,152.5 366.3,152.5 368.6,152.5 370.9,152.0 373.2,151.4 375.5,151.4 377.8,151.2 380.1,151.2 382.4,150.6 384.7,150.3 387.0,150.0 389.3,149.5 391.6,148.9 393.9,148.9 396.2,148.4 398.5,148.1 400.8,147.6 403.1,147.0 405.4,146.5 407.7,146.2 410.0,146.2 412.3,145.9 414.6,145.6 416.9,145.4 419.2,145.4 421.5,145.4 423.7,145.1 426.0,144.8 428.3,144.5 430.6,144.3 432.9,144.3 435.2,144.0 437.5,143.7 439.8,143.4 442.1,143.4 444.4,143.1 446.7,142.9 449.0,142.3 451.3,142.0 453.6,141.8 455.9,141.2 458.2,140.9 460.5,140.4 462.8,140.1 465.1,139.8 467.4,139.8 469.7,139.3 472.0,139.3 474.3,138.7 476.6,138.5 478.9,138.5 481.2,138.2 483.5,137.9 485.8,137.6 488.1,137.1 490.4,136.8 492.7,136.5 495.0,136.2 497.3,136.0 499.6,136.0 501.8,135.7 504.1,135.4 506.4,135.1 508.7,134.9 511.0,134.6 513.3,134.3 515.6,134.0 517.9,133.8 520.2,133.5 522.5,133.2 524.8,132.9 527.1,132.7 529.4,132.7 531.7,132.4 534.0,132.1 536.3,131.8 538.6,131.3 540.9,131.0 543.2,131.0 545.5,130.7 547.8,130.5 550.1,130.2 552.4,130.2 554.7,130.2 557.0,129.9 559.3,129.6 561.6,129.3 563.9,129.1 566.2,128.8 568.5,128.5 570.8,128.2 573.1,128.2 575.4,128.0 577.7,128.0 579.9,127.7 582.2,127.7 584.5,127.4 586.8,127.4 589.1,127.1 591.4,126.9 593.7,126.6 596.0,126.0 598.3,125.8 600.6,125.5 602.9,125.5 605.2,124.9 607.5,124.7 609.8,124.7 612.1,124.4 614.4,124.4 616.7,123.8 619.0,123.6 621.3,123.3 623.6,123.3 625.9,123.0 628.2,122.7 630.5,122.2 632.8,121.9 635.1,121.3 637.4,121.3 639.7,121.1 642.0,120.5 644.3,120.5 646.6,120.0 648.9,119.7 651.2,119.1 653.5,118.9 655.8,118.3 658.1,117.8 660.3,117.5 662.6,117.2 664.9,116.9 667.2,116.7 669.5,116.4 671.8,116.1 674.1,115.5 676.4,115.0 678.7,114.7 681.0,114.4 683.3,113.9 685.6,113.6 687.9,113.6 690.2,113.3 692.5,113.1 694.8,112.8 697.1,112.5 699.4,112.2 701.7,112.0 704.0,111.7 706.3,111.7 708.6,111.4 710.9,110.9 713.2,110.3 715.5,109.8 717.8,109.2 720.1,108.9 722.4,108.6 724.7,108.4 727.0,108.1 729.3,107.8 731.6,107.5 733.9,107.3 736.2,107.3 738.4,107.0 740.7,106.7 743.0,106.4 745.3,106.2 747.6,105.9 749.9,105.3 752.2,105.1 754.5,104.8 756.8,104.5 759.1,104.2 761.4,104.0 763.7,103.7 766.0,103.4 768.3,103.1 770.6,102.9 772.9,102.9 775.2,102.0 777.5,101.2 779.8,100.6 782.1,100.4 784.4,100.1 786.7,99.3 789.0,99.0 791.3,99.0 793.6,98.4 795.9,98.2 798.2,97.9 800.5,97.6 802.8,97.3 805.1,97.1 807.4,96.8 809.7,96.2 812.0,96.0 814.3,95.7 816.5,95.4 818.8,95.1 821.1,94.8 823.4,94.6 825.7,94.0 828.0,93.7 830.3,93.2 832.6,92.9 834.9,92.6 837.2,92.4 839.5,92.1 841.8,91.8 844.1,91.5 846.4,91.3 848.7,91.0 851.0,90.7 853.3,90.2 855.6,89.9 857.9,89.6 860.2,89.3 862.5,89.1 864.8,88.8 867.1,88.5 869.4,87.9 871.7,87.7 874.0,87.4 876.3,87.1 878.6,86.8 880.9,86.6 883.2,86.3 885.5,86.0 887.8,85.7 890.1,85.5 892.4,85.2 894.6,84.9 896.9,84.6 899.2,84.4 901.5,84.1 903.8,83.8 906.1,83.5 908.4,82.7 910.7,82.4 913.0,82.2 915.3,81.9 917.6,81.6 919.9,81.3 922.2,81.0 924.5,80.8 926.8,80.2 929.1,79.9 931.4,79.4 933.7,78.8 936.0,78.6 938.3,78.3 940.6,78.0 942.9,77.7 945.2,77.5 947.5,77.2 949.8,76.9 952.1,76.6 954.4,76.4 956.7,76.1 959.0,75.8 961.3,75.5 963.6,75.3 965.9,75.0 968.2,74.7 970.5,74.4 972.7,74.1 975.0,73.9 977.3,73.6 979.6,73.3 981.9,73.3 984.2,73.0 986.5,72.8 988.8,72.5 991.1,72.2 993.4,71.9 995.7,71.7 998.0,71.4 1000.3,71.1 1002.6,70.8 1004.9,70.6 1007.2,70.3 1009.5,70.0 1011.8,69.5 1014.1,69.2 1016.4,68.9 1018.7,68.6 1021.0,68.4 1023.3,68.1 1025.6,67.8 1027.9,67.5 1030.2,67.2 1032.5,67.0 1034.8,66.7 1037.1,66.4 1039.4,66.1 1041.7,65.9 1044.0,65.3 1046.3,65.0 1048.6,64.5 1050.8,64.2 1053.1,63.9 1055.4,63.4 1057.7,62.8 1060.0,62.6 1062.3,62.3 1064.6,62.0 1066.9,61.7 1069.2,61.5 1071.5,61.2 1073.8,60.9 1076.1,60.6 1078.4,60.3 1080.7,60.1 1083.0,59.8 1085.3,59.5 1087.6,59.2 1089.9,59.0 1092.2,58.7 1094.5,58.4 1096.8,58.1 1099.1,57.9 1101.4,57.6 1103.7,57.3 1106.0,57.0 1108.3,56.8 1110.6,56.5 1112.9,56.2 1115.2,55.9 1117.5,55.7 1119.8,54.8 1122.1,54.6 1124.4,54.3 1126.7,54.0 1128.9,54.0 1131.2,54.0 1133.5,54.0 1135.8,54.0 1138.1,54.0 1140.4,54.0 1142.7,54.0 1145.0,54.0 1147.3,54.0 1149.6,54.0 1151.9,54.0 1154.2,54.0 1156.5,54.0 1158.8,54.0 1161.1,54.0 1163.4,54.0 1165.7,54.0 1168.0,54.0" fill="none" stroke="#7c5cff" stroke-width="3" stroke-linejoin="round" stroke-linecap="round"/><polyline points="70.0,147.0 72.3,140.1 74.6,119.4 76.9,120.2 79.2,119.1 81.5,118.9 83.8,117.2 86.1,117.5 88.4,116.9 90.7,117.8 93.0,117.2 95.3,117.8 97.6,116.9 99.9,116.9 102.2,116.9 104.5,117.8 106.8,117.2 109.1,116.9 111.3,113.3 113.6,114.2 115.9,111.1 118.2,111.4 120.5,111.1 122.8,111.1 125.1,110.9 127.4,111.4 129.7,110.9 132.0,111.7 134.3,111.1 136.6,111.1 138.9,111.1 141.2,110.6 143.5,110.3 145.8,110.6 148.1,109.8 150.4,109.8 152.7,109.8 155.0,109.8 157.3,109.8 159.6,109.8 161.9,109.8 164.2,109.8 166.5,109.8 168.8,109.8 171.1,109.8 173.4,109.8 175.7,109.8 178.0,109.8 180.3,109.8 182.6,109.8 184.9,109.8 187.2,109.8 189.4,109.8 191.7,109.8 194.0,110.6 196.3,110.6 198.6,110.6 200.9,110.6 203.2,110.6 205.5,110.6 207.8,110.6 210.1,110.6 212.4,110.6 214.7,110.6 217.0,110.6 219.3,110.6 221.6,110.6 223.9,110.6 226.2,110.6 228.5,110.6 230.8,110.6 233.1,110.6 235.4,110.6 237.7,110.6 240.0,110.6 242.3,110.6 244.6,110.6 246.9,110.6 249.2,110.6 251.5,110.6 253.8,110.6 256.1,110.6 258.4,110.6 260.7,110.6 263.0,110.6 265.3,110.6 267.5,110.6 269.8,110.6 272.1,110.6 274.4,110.6 276.7,110.6 279.0,110.6 281.3,110.6 283.6,110.6 285.9,110.6 288.2,110.6 290.5,110.6 292.8,110.6 295.1,110.6 297.4,110.6 299.7,110.6 302.0,110.6 304.3,110.6 306.6,110.6 308.9,110.6 311.2,110.6 313.5,110.6 315.8,110.6 318.1,110.6 320.4,110.6 322.7,110.6 325.0,110.6 327.3,110.6 329.6,110.6 331.9,110.6 334.2,110.6 336.5,110.6 338.8,110.6 341.1,110.6 343.4,110.6 345.6,110.6 347.9,110.6 350.2,110.6 352.5,110.6 354.8,110.6 357.1,110.6 359.4,110.6 361.7,110.6 364.0,110.6 366.3,110.6 368.6,110.6 370.9,110.6 373.2,110.6 375.5,110.6 377.8,110.6 380.1,110.6 382.4,110.6 384.7,110.6 387.0,110.6 389.3,110.6 391.6,110.6 393.9,110.6 396.2,110.6 398.5,110.6 400.8,110.6 403.1,110.6 405.4,110.6 407.7,110.6 410.0,110.6 412.3,110.6 414.6,110.6 416.9,110.6 419.2,110.6 421.5,110.6 423.7,110.6 426.0,110.6 428.3,110.6 430.6,110.6 432.9,110.6 435.2,110.6 437.5,110.6 439.8,110.6 442.1,110.6 444.4,110.6 446.7,110.6 449.0,110.6 451.3,110.6 453.6,110.6 455.9,110.6 458.2,110.6 460.5,110.6 462.8,110.6 465.1,110.6 467.4,110.6 469.7,110.6 472.0,110.6 474.3,110.6 476.6,110.6 478.9,110.6 481.2,110.6 483.5,110.6 485.8,110.6 488.1,110.6 490.4,110.6 492.7,110.6 495.0,110.6 497.3,110.6 499.6,110.6 501.8,110.6 504.1,110.6 506.4,110.6 508.7,110.6 511.0,110.6 513.3,110.6 515.6,110.6 517.9,110.6 520.2,110.6 522.5,110.6 524.8,110.6 527.1,110.6 529.4,110.6 531.7,110.6 534.0,110.6 536.3,110.6 538.6,110.6 540.9,110.6 543.2,110.6 545.5,110.6 547.8,110.6 550.1,110.6 552.4,110.6 554.7,110.6 557.0,110.6 559.3,110.6 561.6,110.6 563.9,110.6 566.2,110.6 568.5,110.6 570.8,110.6 573.1,110.6 575.4,110.6 577.7,110.6 579.9,110.6 582.2,110.6 584.5,110.6 586.8,110.6 589.1,110.6 591.4,110.6 593.7,110.6 596.0,110.6 598.3,110.6 600.6,110.6 602.9,110.6 605.2,110.6 607.5,110.6 609.8,110.6 612.1,110.6 614.4,110.6 616.7,110.6 619.0,110.6 621.3,110.6 623.6,110.6 625.9,110.6 628.2,110.6 630.5,110.6 632.8,110.6 635.1,110.6 637.4,110.6 639.7,110.6 642.0,110.6 644.3,110.6 646.6,110.6 648.9,110.6 651.2,110.6 653.5,110.6 655.8,110.6 658.1,110.6 660.3,110.6 662.6,110.6 664.9,110.6 667.2,110.6 669.5,110.6 671.8,110.6 674.1,110.6 676.4,110.6 678.7,110.6 681.0,110.6 683.3,110.6 685.6,110.6 687.9,110.6 690.2,110.6 692.5,110.6 694.8,110.6 697.1,110.6 699.4,110.6 701.7,110.6 704.0,110.6 706.3,110.6 708.6,110.6 710.9,110.6 713.2,110.6 715.5,110.6 717.8,110.6 720.1,110.6 722.4,110.6 724.7,110.6 727.0,110.6 729.3,110.6 731.6,110.6 733.9,110.6 736.2,110.6 738.4,110.6 740.7,110.6 743.0,110.6 745.3,110.6 747.6,110.6 749.9,110.6 752.2,110.6 754.5,110.6 756.8,110.6 759.1,110.6 761.4,110.6 763.7,110.6 766.0,110.6 768.3,110.6 770.6,110.6 772.9,110.6 775.2,110.6 777.5,110.6 779.8,110.6 782.1,110.6 784.4,110.6 786.7,110.6 789.0,110.6 791.3,110.6 793.6,110.6 795.9,110.6 798.2,110.6 800.5,110.6 802.8,110.6 805.1,110.6 807.4,110.6 809.7,110.6 812.0,110.6 814.3,110.6 816.5,110.6 818.8,110.6 821.1,110.6 823.4,110.6 825.7,110.6 828.0,110.6 830.3,110.6 832.6,110.6 834.9,110.6 837.2,110.6 839.5,110.6 841.8,110.6 844.1,110.6 846.4,110.6 848.7,110.6 851.0,110.6 853.3,110.6 855.6,110.6 857.9,110.6 860.2,110.6 862.5,110.6 864.8,110.6 867.1,110.6 869.4,110.6 871.7,110.6 874.0,110.6 876.3,110.6 878.6,110.6 880.9,110.6 883.2,110.6 885.5,110.6 887.8,110.6 890.1,110.6 892.4,110.6 894.6,110.6 896.9,110.6 899.2,110.6 901.5,110.6 903.8,110.6 906.1,110.6 908.4,110.6 910.7,110.6 913.0,110.6 915.3,110.6 917.6,110.6 919.9,110.6 922.2,110.6 924.5,110.6 926.8,110.6 929.1,110.6 931.4,110.6 933.7,110.6 936.0,110.6 938.3,110.6 940.6,110.6 942.9,110.6 945.2,110.6 947.5,110.6 949.8,110.6 952.1,110.6 954.4,110.6 956.7,110.6 959.0,110.6 961.3,110.6 963.6,110.6 965.9,110.6 968.2,110.6 970.5,110.6 972.7,110.6 975.0,110.6 977.3,110.6 979.6,110.6 981.9,110.6 984.2,110.6 986.5,110.6 988.8,110.6 991.1,110.6 993.4,110.6 995.7,110.6 998.0,110.6 1000.3,110.6 1002.6,110.6 1004.9,110.6 1007.2,110.6 1009.5,110.6 1011.8,110.6 1014.1,110.6 1016.4,110.6 1018.7,110.6 1021.0,110.6 1023.3,110.6 1025.6,110.6 1027.9,110.6 1030.2,110.6 1032.5,110.6 1034.8,110.6 1037.1,110.6 1039.4,110.6 1041.7,110.6 1044.0,110.6 1046.3,110.6 1048.6,110.6 1050.8,110.6 1053.1,110.6 1055.4,110.6 1057.7,110.6 1060.0,110.6 1062.3,110.6 1064.6,110.6 1066.9,110.6 1069.2,110.6 1071.5,110.6 1073.8,110.6 1076.1,110.6 1078.4,110.6 1080.7,110.6 1083.0,110.6 1085.3,110.6 1087.6,110.6 1089.9,110.6 1092.2,110.6 1094.5,110.6 1096.8,110.6 1099.1,110.6 1101.4,110.6 1103.7,110.6 1106.0,110.6 1108.3,110.6 1110.6,110.6 1112.9,110.6 1115.2,110.6 1117.5,110.6 1119.8,110.6 1122.1,110.6 1124.4,110.6 1126.7,110.6 1128.9,110.6 1131.2,110.6 1133.5,110.6 1135.8,110.6 1138.1,110.6 1140.4,110.6 1142.7,110.6 1145.0,110.6 1147.3,110.6 1149.6,110.6 1151.9,110.6 1154.2,110.6 1156.5,110.6 1158.8,110.6 1161.1,110.6 1163.4,110.6 1165.7,110.6 1168.0,110.6" fill="none" stroke="#00a7a5" stroke-width="3" stroke-linejoin="round" stroke-linecap="round"/><polyline points="70.0,310.7 72.3,307.9 74.6,305.2 76.9,305.2 79.2,296.9 81.5,302.4 83.8,296.9 86.1,296.9 88.4,288.6 90.7,291.4 93.0,288.6 95.3,294.1 97.6,291.4 99.9,294.1 102.2,288.6 104.5,291.4 106.8,288.6 109.1,294.1 111.3,291.4 113.6,299.6 115.9,294.1 118.2,294.1 120.5,291.4 122.8,291.4 125.1,288.6 127.4,294.1 129.7,291.4 132.0,291.4 134.3,288.6 136.6,294.1 138.9,291.4 141.2,296.9 143.5,294.1 145.8,294.1 148.1,285.8 150.4,283.1 152.7,280.3 155.0,277.6 157.3,274.8 159.6,272.0 161.9,269.3 164.2,266.5 166.5,263.8 168.8,263.8 171.1,263.8 173.4,261.0 175.7,258.2 178.0,255.5 180.3,255.5 182.6,252.7 184.9,250.0 187.2,247.2 189.4,244.4 191.7,241.7 194.0,238.9 196.3,238.9 198.6,236.2 200.9,233.4 203.2,230.6 205.5,230.6 207.8,230.6 210.1,227.9 212.4,227.9 214.7,227.6 217.0,227.3 219.3,227.1 221.6,226.8 223.9,226.5 226.2,226.5 228.5,226.5 230.8,226.2 233.1,225.9 235.4,225.7 237.7,225.4 240.0,225.1 242.3,224.8 244.6,224.6 246.9,224.3 249.2,224.3 251.5,224.0 253.8,223.7 256.1,223.5 258.4,223.2 260.7,222.9 263.0,222.6 265.3,222.4 267.5,222.1 269.8,221.8 272.1,221.8 274.4,221.5 276.7,221.3 279.0,221.0 281.3,221.0 283.6,220.7 285.9,220.4 288.2,220.2 290.5,219.9 292.8,219.6 295.1,219.3 297.4,219.0 299.7,218.5 302.0,218.2 304.3,217.9 306.6,217.7 308.9,217.4 311.2,217.4 313.5,217.1 315.8,216.8 318.1,216.8 320.4,216.8 322.7,216.3 325.0,216.0 327.3,215.7 329.6,215.5 331.9,215.2 334.2,215.2 336.5,214.9 338.8,214.6 341.1,214.6 343.4,213.8 345.6,213.5 347.9,213.5 350.2,213.3 352.5,213.0 354.8,212.7 357.1,212.7 359.4,212.4 361.7,211.3 364.0,211.0 366.3,211.0 368.6,211.0 370.9,209.9 373.2,209.4 375.5,209.1 377.8,208.8 380.1,208.8 382.4,208.6 384.7,208.3 387.0,208.0 389.3,206.9 391.6,206.4 393.9,206.4 396.2,205.8 398.5,205.5 400.8,205.2 403.1,204.4 405.4,204.1 407.7,203.9 410.0,203.9 412.3,203.6 414.6,203.3 416.9,203.0 419.2,203.0 421.5,203.0 423.7,202.8 426.0,202.5 428.3,202.2 430.6,201.9 432.9,201.9 435.2,201.7 437.5,200.8 439.8,200.3 442.1,200.3 444.4,200.0 446.7,199.7 449.0,199.2 451.3,198.9 453.6,198.6 455.9,198.1 458.2,197.8 460.5,197.2 462.8,197.0 465.1,196.7 467.4,196.7 469.7,196.1 472.0,196.1 474.3,193.9 476.6,193.7 478.9,193.7 481.2,193.4 483.5,193.1 485.8,192.6 488.1,192.0 490.4,191.7 492.7,191.4 495.0,191.2 497.3,190.9 499.6,190.9 501.8,190.6 504.1,190.1 506.4,189.5 508.7,188.1 511.0,186.2 513.3,185.4 515.6,185.1 517.9,184.8 520.2,184.5 522.5,183.2 524.8,182.9 527.1,181.8 529.4,181.8 531.7,181.0 534.0,180.7 536.3,179.9 538.6,179.0 540.9,178.5 543.2,178.5 545.5,177.9 547.8,177.6 550.1,177.1 552.4,177.1 554.7,177.1 557.0,176.5 559.3,176.3 561.6,175.7 563.9,175.4 566.2,174.9 568.5,174.3 570.8,174.1 573.1,174.1 575.4,173.5 577.7,173.5 579.9,173.2 582.2,173.2 584.5,173.0 586.8,173.0 589.1,172.7 591.4,172.4 593.7,172.1 596.0,171.6 598.3,171.3 600.6,171.0 602.9,171.0 605.2,170.2 607.5,169.9 609.8,169.9 612.1,169.6 614.4,169.6 616.7,169.1 619.0,168.8 621.3,168.5 623.6,168.5 625.9,168.3 628.2,168.0 630.5,167.4 632.8,167.2 635.1,166.6 637.4,166.6 639.7,166.3 642.0,165.8 644.3,165.8 646.6,165.2 648.9,165.0 651.2,164.4 653.5,164.1 655.8,163.6 658.1,163.0 660.3,162.7 662.6,162.5 664.9,162.2 667.2,161.9 669.5,161.6 671.8,161.4 674.1,160.8 676.4,160.3 678.7,160.0 681.0,159.7 683.3,159.2 685.6,158.9 687.9,158.9 690.2,158.6 692.5,158.3 694.8,158.1 697.1,157.8 699.4,157.5 701.7,157.2 704.0,156.9 706.3,156.9 708.6,156.7 710.9,156.1 713.2,155.6 715.5,155.0 717.8,154.5 720.1,154.2 722.4,153.9 724.7,153.6 727.0,153.4 729.3,153.1 731.6,152.8 733.9,152.5 736.2,152.5 738.4,152.3 740.7,152.0 743.0,151.7 745.3,151.4 747.6,151.2 749.9,150.6 752.2,150.3 754.5,150.0 756.8,149.8 759.1,149.5 761.4,149.2 763.7,148.9 766.0,148.7 768.3,148.4 770.6,148.1 772.9,148.1 775.2,147.8 777.5,147.6 779.8,147.3 782.1,147.0 784.4,146.7 786.7,146.5 789.0,146.2 791.3,146.2 793.6,145.9 795.9,145.6 798.2,145.4 800.5,145.1 802.8,144.8 805.1,144.5 807.4,144.3 809.7,143.7 812.0,143.4 814.3,143.1 816.5,142.9 818.8,142.6 821.1,142.3 823.4,142.0 825.7,141.5 828.0,141.2 830.3,140.7 832.6,140.4 834.9,140.1 837.2,139.8 839.5,139.6 841.8,139.3 844.1,139.0 846.4,138.7 848.7,138.5 851.0,138.2 853.3,137.6 855.6,137.4 857.9,137.1 860.2,136.8 862.5,136.5 864.8,136.2 867.1,136.0 869.4,135.4 871.7,135.1 874.0,134.9 876.3,134.6 878.6,134.3 880.9,134.0 883.2,133.8 885.5,133.5 887.8,133.2 890.1,132.9 892.4,132.7 894.6,132.4 896.9,132.1 899.2,131.8 901.5,131.6 903.8,131.3 906.1,131.0 908.4,130.2 910.7,129.9 913.0,129.6 915.3,129.3 917.6,129.1 919.9,128.8 922.2,128.5 924.5,128.2 926.8,128.0 929.1,127.7 931.4,127.1 933.7,126.9 936.0,126.6 938.3,126.3 940.6,126.0 942.9,125.8 945.2,125.5 947.5,125.2 949.8,124.9 952.1,124.7 954.4,124.4 956.7,124.1 959.0,123.8 961.3,123.6 963.6,123.3 965.9,123.0 968.2,122.7 970.5,122.4 972.7,122.2 975.0,121.9 977.3,121.6 979.6,121.3 981.9,121.3 984.2,121.1 986.5,120.8 988.8,120.5 991.1,120.2 993.4,120.0 995.7,119.7 998.0,119.4 1000.3,119.1 1002.6,118.9 1004.9,118.6 1007.2,118.3 1009.5,118.0 1011.8,117.5 1014.1,117.2 1016.4,116.9 1018.7,116.7 1021.0,116.1 1023.3,115.8 1025.6,115.5 1027.9,115.3 1030.2,115.0 1032.5,114.7 1034.8,114.4 1037.1,114.2 1039.4,113.9 1041.7,113.6 1044.0,113.1 1046.3,112.8 1048.6,112.2 1050.8,112.0 1053.1,111.7 1055.4,111.1 1057.7,110.6 1060.0,110.3 1062.3,110.0 1064.6,109.8 1066.9,109.5 1069.2,109.2 1071.5,108.9 1073.8,108.6 1076.1,108.4 1078.4,108.1 1080.7,107.8 1083.0,107.5 1085.3,107.3 1087.6,107.0 1089.9,106.7 1092.2,106.4 1094.5,106.2 1096.8,105.9 1099.1,105.6 1101.4,105.3 1103.7,105.1 1106.0,104.8 1108.3,104.5 1110.6,104.2 1112.9,104.0 1115.2,103.7 1117.5,103.4 1119.8,102.6 1122.1,102.3 1124.4,102.0 1126.7,101.7 1128.9,101.7 1131.2,101.5 1133.5,101.5 1135.8,101.2 1138.1,101.2 1140.4,100.9 1142.7,100.9 1145.0,100.6 1147.3,100.6 1149.6,100.4 1151.9,100.4 1154.2,100.4 1156.5,100.4 1158.8,100.4 1161.1,100.4 1163.4,99.8 1165.7,98.7 1168.0,98.2" fill="none" stroke="#e6a700" stroke-width="3" stroke-linejoin="round" stroke-linecap="round"/><polyline points="70.0,92.6 72.3,84.4 74.6,76.1 76.9,76.1 79.2,67.8 81.5,67.8 83.8,65.0 86.1,65.0 88.4,62.3 90.7,70.6 93.0,65.0 95.3,65.0 97.6,65.0 99.9,67.8 102.2,62.3 104.5,70.6 106.8,65.0 109.1,65.0 111.3,65.0 113.6,62.3 115.9,59.5 118.2,70.6 120.5,67.8 122.8,67.8 125.1,62.3 127.4,62.3 129.7,62.3 132.0,59.5 134.3,59.5 136.6,62.3 138.9,59.5 141.2,59.5 143.5,59.5 145.8,67.8 148.1,65.0 150.4,65.0 152.7,65.0 155.0,65.0 157.3,65.0 159.6,65.0 161.9,65.0 164.2,65.0 166.5,65.0 168.8,65.0 171.1,65.0 173.4,65.0 175.7,65.0 178.0,65.0 180.3,65.0 182.6,65.0 184.9,65.0 187.2,65.0 189.4,65.0 191.7,65.0 194.0,65.0 196.3,65.0 198.6,65.0 200.9,65.0 203.2,65.0 205.5,65.0 207.8,65.0 210.1,65.0 212.4,65.0 214.7,65.0 217.0,65.0 219.3,65.0 221.6,65.0 223.9,65.0 226.2,62.3 228.5,62.3 230.8,62.3 233.1,62.3 235.4,62.3 237.7,62.3 240.0,62.3 242.3,62.3 244.6,62.3 246.9,62.3 249.2,62.3 251.5,62.3 253.8,62.3 256.1,62.3 258.4,62.3 260.7,62.3 263.0,62.3 265.3,62.3 267.5,62.3 269.8,62.3 272.1,62.3 274.4,62.3 276.7,62.3 279.0,62.3 281.3,62.3 283.6,62.3 285.9,62.3 288.2,62.3 290.5,62.3 292.8,62.3 295.1,62.3 297.4,62.3 299.7,62.3 302.0,62.3 304.3,62.3 306.6,62.3 308.9,62.3 311.2,62.3 313.5,62.3 315.8,62.3 318.1,62.3 320.4,59.5 322.7,59.5 325.0,59.5 327.3,59.5 329.6,59.5 331.9,59.5 334.2,59.5 336.5,59.5 338.8,59.5 341.1,59.5 343.4,59.5 345.6,59.5 347.9,59.5 350.2,59.5 352.5,59.5 354.8,59.5 357.1,59.5 359.4,59.5 361.7,59.5 364.0,59.5 366.3,59.5 368.6,59.5 370.9,59.5 373.2,59.5 375.5,59.5 377.8,59.5 380.1,59.5 382.4,59.5 384.7,59.5 387.0,59.5 389.3,59.5 391.6,59.5 393.9,59.5 396.2,59.5 398.5,59.5 400.8,59.5 403.1,59.5 405.4,59.5 407.7,59.5 410.0,59.5 412.3,59.5 414.6,59.5 416.9,59.5 419.2,59.5 421.5,59.5 423.7,59.5 426.0,59.5 428.3,59.5 430.6,59.5 432.9,59.5 435.2,59.5 437.5,59.5 439.8,59.5 442.1,59.5 444.4,59.5 446.7,59.5 449.0,59.5 451.3,59.5 453.6,59.5 455.9,59.5 458.2,59.5 460.5,59.5 462.8,59.5 465.1,59.5 467.4,59.5 469.7,59.5 472.0,59.5 474.3,59.5 476.6,59.5 478.9,59.5 481.2,59.5 483.5,59.5 485.8,59.5 488.1,59.5 490.4,59.5 492.7,59.5 495.0,59.5 497.3,59.5 499.6,59.5 501.8,59.5 504.1,59.5 506.4,59.5 508.7,59.5 511.0,59.5 513.3,59.5 515.6,59.5 517.9,59.5 520.2,59.5 522.5,59.5 524.8,59.5 527.1,59.5 529.4,59.5 531.7,59.5 534.0,59.5 536.3,59.5 538.6,59.5 540.9,59.5 543.2,59.5 545.5,59.5 547.8,59.5 550.1,59.5 552.4,59.5 554.7,59.5 557.0,59.5 559.3,59.5 561.6,59.5 563.9,59.5 566.2,59.5 568.5,59.5 570.8,59.5 573.1,59.5 575.4,59.5 577.7,59.5 579.9,59.5 582.2,59.5 584.5,59.5 586.8,59.5 589.1,59.5 591.4,59.5 593.7,59.5 596.0,59.5 598.3,59.5 600.6,59.5 602.9,59.5 605.2,59.5 607.5,59.5 609.8,59.5 612.1,59.5 614.4,59.5 616.7,59.5 619.0,59.5 621.3,59.5 623.6,59.5 625.9,59.5 628.2,59.5 630.5,59.5 632.8,59.5 635.1,59.5 637.4,59.5 639.7,59.5 642.0,59.5 644.3,59.5 646.6,59.5 648.9,59.5 651.2,59.5 653.5,59.5 655.8,59.5 658.1,59.5 660.3,59.5 662.6,59.5 664.9,59.5 667.2,59.5 669.5,59.5 671.8,59.5 674.1,59.5 676.4,59.5 678.7,59.5 681.0,59.5 683.3,59.5 685.6,59.5 687.9,59.5 690.2,59.5 692.5,59.5 694.8,59.5 697.1,59.5 699.4,59.5 701.7,59.5 704.0,59.5 706.3,59.5 708.6,59.5 710.9,59.5 713.2,59.5 715.5,59.5 717.8,59.5 720.1,59.5 722.4,59.5 724.7,59.5 727.0,59.5 729.3,59.5 731.6,59.5 733.9,59.5 736.2,59.5 738.4,59.5 740.7,59.5 743.0,59.5 745.3,59.5 747.6,59.5 749.9,56.8 752.2,56.8 754.5,56.8 756.8,56.8 759.1,56.8 761.4,56.8 763.7,56.8 766.0,56.8 768.3,56.8 770.6,56.8 772.9,56.8 775.2,56.8 777.5,56.8 779.8,56.8 782.1,56.8 784.4,56.8 786.7,56.8 789.0,56.8 791.3,56.8 793.6,56.8 795.9,56.8 798.2,56.8 800.5,56.8 802.8,56.8 805.1,56.8 807.4,56.8 809.7,56.8 812.0,56.8 814.3,56.8 816.5,56.8 818.8,56.8 821.1,56.8 823.4,56.8 825.7,56.8 828.0,56.8 830.3,56.8 832.6,56.8 834.9,56.8 837.2,56.8 839.5,56.8 841.8,56.8 844.1,56.8 846.4,56.8 848.7,56.8 851.0,56.8 853.3,56.8 855.6,56.8 857.9,56.8 860.2,56.8 862.5,56.8 864.8,56.8 867.1,56.8 869.4,56.8 871.7,56.8 874.0,56.8 876.3,56.8 878.6,56.8 880.9,56.8 883.2,56.8 885.5,56.8 887.8,56.8 890.1,56.8 892.4,56.8 894.6,56.8 896.9,56.8 899.2,56.8 901.5,56.8 903.8,56.8 906.1,56.8 908.4,56.8 910.7,56.8 913.0,56.8 915.3,56.8 917.6,56.8 919.9,56.8 922.2,56.8 924.5,56.8 926.8,56.8 929.1,56.8 931.4,56.8 933.7,56.8 936.0,56.8 938.3,56.8 940.6,56.8 942.9,56.8 945.2,56.8 947.5,56.8 949.8,56.8 952.1,56.8 954.4,56.8 956.7,56.8 959.0,56.8 961.3,56.8 963.6,56.8 965.9,56.8 968.2,56.8 970.5,56.8 972.7,56.8 975.0,56.8 977.3,56.8 979.6,56.8 981.9,56.8 984.2,56.8 986.5,56.8 988.8,56.8 991.1,56.8 993.4,56.8 995.7,56.8 998.0,56.8 1000.3,56.8 1002.6,56.8 1004.9,56.8 1007.2,56.8 1009.5,56.8 1011.8,56.8 1014.1,56.8 1016.4,56.8 1018.7,56.8 1021.0,56.8 1023.3,56.8 1025.6,56.8 1027.9,56.8 1030.2,56.8 1032.5,56.8 1034.8,56.8 1037.1,56.8 1039.4,56.8 1041.7,56.8 1044.0,56.8 1046.3,56.8 1048.6,56.8 1050.8,56.8 1053.1,56.8 1055.4,56.8 1057.7,56.8 1060.0,56.8 1062.3,56.8 1064.6,56.8 1066.9,56.8 1069.2,56.8 1071.5,56.8 1073.8,56.8 1076.1,56.8 1078.4,56.8 1080.7,56.8 1083.0,56.8 1085.3,56.8 1087.6,56.8 1089.9,56.8 1092.2,56.8 1094.5,56.8 1096.8,56.8 1099.1,56.8 1101.4,56.8 1103.7,56.8 1106.0,56.8 1108.3,56.8 1110.6,56.8 1112.9,56.8 1115.2,56.8 1117.5,56.8 1119.8,56.8 1122.1,56.8 1124.4,56.8 1126.7,56.8 1128.9,56.8 1131.2,56.8 1133.5,56.8 1135.8,56.8 1138.1,56.8 1140.4,56.8 1142.7,56.8 1145.0,56.8 1147.3,56.8 1149.6,56.8 1151.9,56.8 1154.2,56.8 1156.5,56.8 1158.8,56.8 1161.1,56.8 1163.4,56.8 1165.7,56.8 1168.0,56.8" fill="none" stroke="#d94f8a" stroke-width="3" stroke-linejoin="round" stroke-linecap="round"/><polyline points="70.0,233.4 72.3,225.1 74.6,219.6 76.9,219.6 79.2,205.8 81.5,233.4 83.8,205.8 86.1,214.1 88.4,205.8 90.7,203.0 93.0,200.3 95.3,200.3 97.6,197.5 99.9,208.6 102.2,200.3 104.5,200.3 106.8,197.5 109.1,203.0 111.3,200.3 113.6,194.8 115.9,175.4 118.2,203.0 120.5,200.3 122.8,203.0 125.1,197.5 127.4,203.0 129.7,197.5 132.0,203.0 134.3,197.5 136.6,200.3 138.9,200.3 141.2,181.0 143.5,181.0 145.8,200.3 148.1,186.5 150.4,183.7 152.7,183.7 155.0,181.0 157.3,181.0 159.6,181.0 161.9,181.0 164.2,181.0 166.5,181.0 168.8,181.0 171.1,181.0 173.4,181.0 175.7,181.0 178.0,181.0 180.3,181.0 182.6,181.0 184.9,181.0 187.2,181.0 189.4,181.0 191.7,181.0 194.0,178.2 196.3,178.2 198.6,178.2 200.9,178.2 203.2,178.2 205.5,175.4 207.8,175.4 210.1,175.4 212.4,175.4 214.7,175.4 217.0,175.4 219.3,175.4 221.6,172.7 223.9,172.7 226.2,169.9 228.5,169.9 230.8,169.9 233.1,169.9 235.4,169.9 237.7,169.9 240.0,169.9 242.3,169.9 244.6,169.9 246.9,169.9 249.2,167.2 251.5,167.2 253.8,167.2 256.1,167.2 258.4,167.2 260.7,167.2 263.0,167.2 265.3,167.2 267.5,167.2 269.8,167.2 272.1,164.4 274.4,164.4 276.7,175.4 279.0,175.4 281.3,172.7 283.6,172.7 285.9,172.7 288.2,172.7 290.5,172.7 292.8,172.7 295.1,172.7 297.4,172.7 299.7,172.7 302.0,172.7 304.3,175.4 306.6,175.4 308.9,175.4 311.2,172.7 313.5,172.7 315.8,172.7 318.1,169.9 320.4,167.2 322.7,167.2 325.0,167.2 327.3,167.2 329.6,167.2 331.9,167.2 334.2,164.4 336.5,164.4 338.8,164.4 341.1,161.6 343.4,161.6 345.6,164.4 347.9,161.6 350.2,161.6 352.5,161.6 354.8,164.4 357.1,161.6 359.4,161.6 361.7,161.6 364.0,161.6 366.3,161.6 368.6,158.9 370.9,158.9 373.2,158.9 375.5,158.9 377.8,158.9 380.1,156.1 382.4,153.4 384.7,153.4 387.0,153.4 389.3,153.4 391.6,153.4 393.9,150.6 396.2,150.6 398.5,150.6 400.8,150.6 403.1,150.6 405.4,150.6 407.7,150.6 410.0,147.8 412.3,147.8 414.6,147.8 416.9,147.8 419.2,146.5 421.5,145.1 423.7,145.1 426.0,145.1 428.3,145.1 430.6,145.1 432.9,143.7 435.2,143.7 437.5,142.3 439.8,142.3 442.1,140.9 444.4,140.9 446.7,140.9 449.0,140.9 451.3,140.9 453.6,140.9 455.9,140.9 458.2,140.9 460.5,140.9 462.8,140.9 465.1,140.9 467.4,140.7 469.7,138.7 472.0,137.9 474.3,137.9 476.6,137.9 478.9,136.8 481.2,136.8 483.5,136.8 485.8,136.8 488.1,136.8 490.4,136.8 492.7,136.8 495.0,136.8 497.3,136.8 499.6,136.8 501.8,136.8 504.1,136.8 506.4,136.8 508.7,136.8 511.0,136.8 513.3,136.8 515.6,136.8 517.9,136.8 520.2,136.8 522.5,136.8 524.8,136.8 527.1,136.8 529.4,134.0 531.7,134.0 534.0,134.0 536.3,134.0 538.6,131.3 540.9,131.3 543.2,131.3 545.5,128.5 547.8,125.8 550.1,123.0 552.4,120.2 554.7,120.2 557.0,120.2 559.3,120.2 561.6,120.2 563.9,120.2 566.2,120.2 568.5,120.2 570.8,120.2 573.1,117.5 575.4,117.5 577.7,114.7 579.9,112.0 582.2,109.2 584.5,109.2 586.8,106.4 589.1,106.4 591.4,106.4 593.7,106.4 596.0,106.4 598.3,106.4 600.6,106.4 602.9,103.7 605.2,103.7 607.5,100.9 609.8,100.9 612.1,100.9 614.4,100.9 616.7,100.9 619.0,100.9 621.3,98.2 623.6,95.4 625.9,92.6 628.2,89.9 630.5,89.9 632.8,89.9 635.1,87.1 637.4,84.4 639.7,81.6 642.0,81.6 644.3,81.6 646.6,81.6 648.9,81.6 651.2,81.6 653.5,81.6 655.8,81.6 658.1,81.6 660.3,81.6 662.6,81.6 664.9,81.6 667.2,81.6 669.5,81.6 671.8,81.6 674.1,81.6 676.4,81.6 678.7,81.6 681.0,81.6 683.3,81.6 685.6,81.6 687.9,80.2 690.2,80.2 692.5,80.2 694.8,80.2 697.1,80.2 699.4,79.9 701.7,79.9 704.0,79.9 706.3,79.7 708.6,79.7 710.9,79.7 713.2,79.7 715.5,79.7 717.8,79.7 720.1,79.7 722.4,79.7 724.7,79.7 727.0,79.7 729.3,79.7 731.6,79.7 733.9,79.7 736.2,78.6 738.4,78.3 740.7,78.0 743.0,77.7 745.3,77.5 747.6,77.2 749.9,76.9 752.2,76.6 754.5,76.4 756.8,76.1 759.1,75.8 761.4,75.5 763.7,75.3 766.0,75.0 768.3,74.7 770.6,74.7 772.9,74.7 775.2,74.7 777.5,74.7 779.8,74.7 782.1,74.7 784.4,74.7 786.7,74.7 789.0,74.1 791.3,73.9 793.6,73.6 795.9,73.0 798.2,72.8 800.5,72.5 802.8,72.2 805.1,71.9 807.4,71.7 809.7,71.4 812.0,71.1 814.3,70.8 816.5,70.6 818.8,70.6 821.1,70.6 823.4,70.6 825.7,70.6 828.0,70.6 830.3,70.6 832.6,67.8 834.9,65.0 837.2,65.0 839.5,65.0 841.8,65.0 844.1,65.0 846.4,65.0 848.7,65.0 851.0,65.0 853.3,65.0 855.6,65.0 857.9,65.0 860.2,65.0 862.5,65.0 864.8,65.0 867.1,65.0 869.4,65.0 871.7,65.0 874.0,64.5 876.3,64.5 878.6,64.5 880.9,63.4 883.2,63.4 885.5,63.4 887.8,63.4 890.1,63.4 892.4,63.4 894.6,63.4 896.9,63.4 899.2,63.4 901.5,63.4 903.8,63.4 906.1,63.4 908.4,63.4 910.7,63.4 913.0,63.4 915.3,63.4 917.6,63.4 919.9,63.4 922.2,63.4 924.5,63.4 926.8,63.4 929.1,63.4 931.4,63.4 933.7,63.4 936.0,63.4 938.3,63.4 940.6,63.4 942.9,63.4 945.2,63.4 947.5,63.4 949.8,63.4 952.1,63.4 954.4,63.4 956.7,63.4 959.0,62.8 961.3,62.8 963.6,62.8 965.9,62.8 968.2,62.6 970.5,62.6 972.7,62.6 975.0,62.6 977.3,62.6 979.6,62.6 981.9,62.3 984.2,62.3 986.5,62.3 988.8,62.3 991.1,62.3 993.4,62.3 995.7,62.3 998.0,62.3 1000.3,62.3 1002.6,62.3 1004.9,62.3 1007.2,62.3 1009.5,62.3 1011.8,62.3 1014.1,62.3 1016.4,62.3 1018.7,62.3 1021.0,62.3 1023.3,62.3 1025.6,62.3 1027.9,62.3 1030.2,62.3 1032.5,62.3 1034.8,59.5 1037.1,59.5 1039.4,59.5 1041.7,59.5 1044.0,59.5 1046.3,59.5 1048.6,59.5 1050.8,59.5 1053.1,59.5 1055.4,59.5 1057.7,59.5 1060.0,59.5 1062.3,59.5 1064.6,59.5 1066.9,59.5 1069.2,59.5 1071.5,59.5 1073.8,59.5 1076.1,59.5 1078.4,59.5 1080.7,59.5 1083.0,59.5 1085.3,59.5 1087.6,59.5 1089.9,59.5 1092.2,59.5 1094.5,59.5 1096.8,59.5 1099.1,59.5 1101.4,59.5 1103.7,59.5 1106.0,59.5 1108.3,59.5 1110.6,59.5 1112.9,59.5 1115.2,59.5 1117.5,59.5 1119.8,59.5 1122.1,59.5 1124.4,59.5 1126.7,59.5 1128.9,59.5 1131.2,59.5 1133.5,59.5 1135.8,59.5 1138.1,59.5 1140.4,59.5 1142.7,56.8 1145.0,56.8 1147.3,54.0 1149.6,54.0 1151.9,54.0 1154.2,54.0 1156.5,54.0 1158.8,54.0 1161.1,54.0 1163.4,54.0 1165.7,54.0 1168.0,54.0" fill="none" stroke="#2589bd" stroke-width="3" stroke-linejoin="round" stroke-linecap="round"/><polyline points="1151.9,330.0 1154.2,330.0 1156.5,330.0 1158.8,330.0 1161.1,330.0 1163.4,330.0 1165.7,330.0 1168.0,330.0" fill="none" stroke="#5b8c36" stroke-width="3" stroke-linejoin="round" stroke-linecap="round"/><polyline points="1151.9,330.0 1154.2,330.0 1156.5,330.0 1158.8,330.0 1161.1,330.0 1163.4,330.0 1165.7,330.0 1168.0,330.0" fill="none" stroke="#9c6644" stroke-width="3" stroke-linejoin="round" stroke-linecap="round"/><polyline points="1151.9,169.9 1154.2,117.5 1156.5,112.0 1158.8,103.7 1161.1,103.7 1163.4,103.7 1165.7,103.7 1168.0,103.7" fill="none" stroke="#6c757d" stroke-width="3" stroke-linejoin="round" stroke-linecap="round"/><text x="70" y="358" text-anchor="middle" class="axis">base 69d858a</text><text x="226.20083682008368" y="358" text-anchor="middle" class="axis">PR #73</text><text x="384.69874476987445" y="358" text-anchor="middle" class="axis">PR #150</text><text x="540.8995815899582" y="358" text-anchor="middle" class="axis">PR #232</text><text x="697.1004184100418" y="358" text-anchor="middle" class="axis">PR #492</text><text x="853.3012552301254" y="358" text-anchor="middle" class="axis">PR #763</text><text x="1011.7991631799163" y="358" text-anchor="middle" class="axis">PR #1036</text><text x="1168" y="358" text-anchor="middle" class="axis">PR #1272</text><line x1="70" y1="396" x2="96" y2="396" stroke="#ff6b35" stroke-width="4"/><text x="106" y="401" class="legend">Correctness parity</text><line x1="619" y1="396" x2="645" y2="396" stroke="#7c5cff" stroke-width="4"/><text x="655" y="401" class="legend">PyTorch feature coverage</text><line x1="70" y1="424" x2="96" y2="424" stroke="#00a7a5" stroke-width="4"/><text x="106" y="429" class="legend">Performance parity</text><line x1="619" y1="424" x2="645" y2="424" stroke="#e6a700" stroke-width="4"/><text x="655" y="429" class="legend">Python API compatibility</text><line x1="70" y1="452" x2="96" y2="452" stroke="#d94f8a" stroke-width="4"/><text x="106" y="457" class="legend">Benchmark integrity</text><line x1="619" y1="452" x2="645" y2="452" stroke="#2589bd" stroke-width="4"/><text x="655" y="457" class="legend">Sustainable architecture</text><line x1="70" y1="480" x2="96" y2="480" stroke="#5b8c36" stroke-width="4"/><text x="106" y="485" class="legend">torch.compile program coverage parity</text><line x1="619" y1="480" x2="645" y2="480" stroke="#9c6644" stroke-width="4"/><text x="655" y="485" class="legend">torch.compile CUDA performance parity</text><line x1="70" y1="508" x2="96" y2="508" stroke="#6c757d" stroke-width="4"/><text x="106" y="513" class="legend">Repository polish</text>
</svg>
